<svg width="132" height="173" viewBox="0 0 132 173" fill="none" xmlns="http://www.w3.org/2000/svg">
<path d="M64.7358 4.20164L64.7331 4.20763C59.3618 16.0485 49.9256 36.0092 28.634 59.4273C15.7384 73.619 3.5 93.9244 3.5 113.441C3.5 146.627 30.0858 169.5 66 169.5C101.914 169.5 128.5 146.613 128.5 113.441C128.5 93.1201 116.279 73.6384 103.366 59.427C103.365 59.4267 103.366 59.4268 103.365 59.4266M64.7358 4.20164L70.4542 2.76177C75.7562 14.4499 85.0138 34.0394 105.956 57.0728L103.365 59.4266M64.7358 4.20164C64.9093 3.81721 65.3229 3.5 65.9937 3.5C66.6637 3.5 67.0881 3.81765 67.2687 4.21159M64.7358 4.20164L67.2687 4.21159M103.365 59.4266C82.0765 36.0114 72.6401 16.0529 67.2687 4.21159M103.365 59.4266L67.2687 4.21159" stroke="white" stroke-width="7"/>
<path d="M66.4842 124.366C66.2376 123.816 65.4197 123.816 65.1755 124.366C65.0753 124.591 64.9655 124.835 64.8437 125.098L65.8299 124.658L65.8315 124.657L66.4842 124.366ZM66.4842 124.366L65.8331 124.658L65.8315 124.659L64.8416 125.102C64.8071 125.177 64.7716 125.252 64.7351 125.33C65.0008 125.77 65.4631 125.954 65.829 125.954C66.1937 125.954 66.6576 125.771 66.9246 125.329C66.8873 125.251 66.8512 125.173 66.816 125.098C66.8153 125.096 66.8146 125.095 66.8139 125.093C66.6929 124.832 66.5838 124.59 66.4842 124.366ZM65.8299 127.604C65.3628 126.73 65.0098 125.967 64.7294 125.342L61.4518 133.817C63.558 131.46 64.9134 129.319 65.8299 127.604ZM65.8299 127.604C66.7463 129.319 68.1017 131.46 70.2079 133.817L65.8299 127.604ZM58.134 140.911C58.134 138.528 59.6507 135.834 61.4515 133.818H70.2083C72.0191 135.845 73.5258 138.414 73.5258 140.911C73.5258 144.919 70.428 147.814 65.8299 147.814C61.2314 147.814 58.134 144.921 58.134 140.911Z" stroke="white" stroke-width="4"/>
<path d="M85.8761 105.64C85.6295 105.089 84.8115 105.089 84.5673 105.64C84.4672 105.864 84.3574 106.108 84.2356 106.371L85.2217 105.931L85.2233 105.931L85.8761 105.64ZM85.8761 105.64L85.225 105.931L85.2233 105.932L84.2334 106.375C84.1989 106.45 84.1634 106.526 84.1269 106.603C84.3926 107.044 84.8549 107.227 85.2208 107.227C85.5856 107.227 86.0494 107.044 86.3164 106.603C86.2792 106.524 86.243 106.447 86.2079 106.371C86.2071 106.369 86.2064 106.368 86.2057 106.366C86.0848 106.106 85.9757 105.863 85.8761 105.64ZM85.2217 108.878C84.7547 108.004 84.4016 107.24 84.1213 106.615L80.8437 115.09C82.9498 112.733 84.3052 110.593 85.2217 108.878ZM85.2217 108.878C86.1382 110.593 87.4936 112.733 89.5997 115.09L85.2217 108.878ZM77.5258 122.184C77.5258 119.801 79.0425 117.107 80.8433 115.091H89.6001C91.411 117.119 92.9176 119.687 92.9176 122.184C92.9176 126.192 89.8198 129.088 85.2217 129.088C80.6233 129.088 77.5258 126.194 77.5258 122.184Z" stroke="white" stroke-width="4"/>
<path d="M61.3812 92.2632C61.1346 91.7128 60.3166 91.7128 60.0725 92.2632C59.9723 92.488 59.8625 92.7322 59.7407 92.9946L60.7269 92.555L60.7285 92.5542L61.3812 92.2632ZM61.3812 92.2632L60.7301 92.555L60.7285 92.5557L59.7386 92.9992C59.704 93.0735 59.6685 93.1493 59.632 93.2265C59.8977 93.6673 60.36 93.8504 60.7259 93.8504C61.0907 93.8504 61.5545 93.6679 61.8215 93.2262C61.7843 93.1475 61.7482 93.0703 61.713 92.9946C61.7123 92.9931 61.7116 92.9915 61.7109 92.99C61.5899 92.7294 61.4808 92.4867 61.3812 92.2632ZM60.7268 95.5014C60.2598 94.6273 59.9067 93.8638 59.6264 93.2384L56.3488 101.714C58.455 99.3568 59.8104 97.2164 60.7268 95.5014ZM60.7268 95.5014C61.6433 97.2164 62.9987 99.3568 65.1049 101.714L60.7268 95.5014ZM53.031 108.808C53.031 106.425 54.5476 103.731 56.3485 101.714H65.1052C66.9161 103.742 68.4227 106.311 68.4227 108.808C68.4227 112.816 65.3249 115.711 60.7269 115.711C56.1284 115.711 53.031 112.818 53.031 108.808Z" stroke="white" stroke-width="4"/>
</svg>
