<svg width="31" height="31" viewBox="0 0 31 31" fill="none" xmlns="http://www.w3.org/2000/svg">
<path d="M16.5089 12.4703C15.7052 12.4703 14.9344 12.7896 14.366 13.358C13.7977 13.9263 13.4784 14.6971 13.4784 15.5009V20.5517C13.4784 20.8196 13.372 21.0765 13.1826 21.266C12.9931 21.4554 12.7362 21.5619 12.4683 21.5619C12.2004 21.5619 11.9434 21.4554 11.754 21.266C11.5645 21.0765 11.4581 20.8196 11.4581 20.5517V15.5009C11.4581 14.1613 11.9902 12.8766 12.9375 11.9294C13.8847 10.9822 15.1694 10.45 16.5089 10.45H18.1111L16.8039 9.14285C16.7074 9.04967 16.6305 8.9382 16.5775 8.81496C16.5246 8.69171 16.4967 8.55916 16.4956 8.42503C16.4944 8.2909 16.5199 8.15788 16.5707 8.03374C16.6215 7.90959 16.6965 7.7968 16.7914 7.70196C16.8862 7.60711 16.999 7.5321 17.1232 7.48131C17.2473 7.43052 17.3803 7.40496 17.5145 7.40612C17.6486 7.40729 17.7811 7.43515 17.9044 7.4881C18.0276 7.54104 18.1391 7.618 18.2323 7.71448L21.2628 10.745C21.3569 10.8388 21.4315 10.9503 21.4824 11.073C21.5333 11.1957 21.5596 11.3273 21.5596 11.4602C21.5596 11.5931 21.5333 11.7246 21.4824 11.8473C21.4315 11.9701 21.3569 12.0815 21.2628 12.1754L18.2323 15.2059C18.0426 15.3953 17.7854 15.5016 17.5174 15.5014C17.2493 15.5012 16.9923 15.3946 16.8029 15.2049C16.6135 15.0152 16.5072 14.758 16.5074 14.49C16.5076 14.2219 16.6142 13.9649 16.8039 13.7755L18.1111 12.4703H16.5089Z" fill="white"/>
<path d="M11.927 1.47983C12.396 1.01067 12.9529 0.638511 13.5658 0.384599C14.1786 0.130688 14.8355 0 15.4989 0C16.1623 0 16.8192 0.130688 17.4321 0.384599C18.045 0.638511 18.6019 1.01067 19.0709 1.47983L29.518 11.929C29.9872 12.398 30.3594 12.9549 30.6133 13.5678C30.8672 14.1807 30.9979 14.8376 30.9979 15.5009C30.9979 16.1643 30.8672 16.8212 30.6133 17.4341C30.3594 18.047 29.9872 18.6039 29.518 19.0729L19.0709 29.5201C18.6019 29.9892 18.045 30.3614 17.4321 30.6153C16.8192 30.8692 16.1623 30.9999 15.4989 30.9999C14.8355 30.9999 14.1786 30.8692 13.5658 30.6153C12.9529 30.3614 12.396 29.9892 11.927 29.5201L1.47983 19.0729C1.01067 18.6039 0.638511 18.047 0.384599 17.4341C0.130688 16.8212 0 16.1643 0 15.5009C0 14.8376 0.130688 14.1807 0.384599 13.5678C0.638511 12.9549 1.01067 12.398 1.47983 11.929L11.927 1.48185V1.47983ZM17.6425 2.91022C17.3611 2.62861 17.0269 2.40521 16.6591 2.25279C16.2913 2.10037 15.8971 2.02192 15.4989 2.02192C15.1008 2.02192 14.7066 2.10037 14.3388 2.25279C13.971 2.40521 13.6368 2.62861 13.3554 2.91022L2.9082 13.3574C2.62659 13.6388 2.40319 13.973 2.25077 14.3408C2.09835 14.7086 2.0199 15.1028 2.0199 15.5009C2.0199 15.8991 2.09835 16.2933 2.25077 16.6611C2.40319 17.0289 2.62659 17.3631 2.9082 17.6445L13.3554 28.0917C13.6368 28.3733 13.971 28.5967 14.3388 28.7491C14.7066 28.9015 15.1008 28.98 15.4989 28.98C15.8971 28.98 16.2913 28.9015 16.6591 28.7491C17.0269 28.5967 17.3611 28.3733 17.6425 28.0917L28.0897 17.6445C28.3713 17.3631 28.5947 17.0289 28.7471 16.6611C28.8995 16.2933 28.978 15.8991 28.978 15.5009C28.978 15.1028 28.8995 14.7086 28.7471 14.3408C28.5947 13.973 28.3713 13.6388 28.0897 13.3574L17.6425 2.91022Z" fill="white"/>
</svg>
