<svg width="22" height="22" viewBox="0 0 22 22" fill="none" xmlns="http://www.w3.org/2000/svg">
<path d="M10.9963 0.000909905C6.67163 -0.0577502 2.50465 2.7255 0.864248 6.72045C-0.849163 10.6456 0.0411052 15.5216 3.03828 18.5829C5.92093 21.6858 10.6704 22.8247 14.6481 21.3729C18.7705 19.9691 21.8138 15.9207 21.9793 11.5634C22.2568 7.28184 19.7378 3.01025 15.8808 1.14522C14.3705 0.391533 12.684 -0.00150355 10.9963 0.000909905ZM10.9963 1.1898C15.2678 1.11551 19.3303 4.18387 20.4331 8.31045C21.5867 12.197 20.0264 16.697 16.6773 18.9989C13.1985 21.5559 8.03954 21.3709 4.75435 18.5691C1.4443 15.93 0.259458 11.0484 1.95773 7.17729C3.42968 3.59856 7.12454 1.14438 10.9963 1.1898ZM6.00742 7.19314V14.8032H15.9852V7.19313H6.00742V7.19314ZM8.22392 8.38208H13.7679C12.7859 8.98634 11.8039 10.3128 10.822 10.4576C9.95601 9.76569 9.08996 9.07389 8.22391 8.38208H8.22392ZM14.7978 9.08202V13.6143H7.19487V9.08236C8.46164 10.0947 9.72837 11.1072 10.9952 12.1195C12.2628 11.1071 13.5302 10.0945 14.7978 9.08202Z" fill="#FF2156"/>
</svg>
