<svg width="20" height="20" viewBox="0 0 20 20" fill="none" xmlns="http://www.w3.org/2000/svg">
<path d="M17.693 19.9925H17.5623C2.45256 19.1236 0.307211 6.37453 0.00732404 2.48368C-0.0168398 2.18117 0.0189263 1.87685 0.112573 1.58818C0.206219 1.29951 0.355906 1.03215 0.553056 0.801431C0.750205 0.570709 0.990944 0.381155 1.26148 0.243631C1.53201 0.106107 1.82702 0.0233157 2.1296 7.20953e-07H6.36647C6.67448 -0.000297447 6.97548 0.0918967 7.23048 0.264641C7.48549 0.437385 7.68274 0.682721 7.79671 0.968868L8.9655 3.84471C9.07803 4.12426 9.10596 4.4307 9.04581 4.72599C8.98566 5.02127 8.84008 5.29238 8.62716 5.50563L6.98932 7.15885C7.24516 8.61273 7.94141 9.95293 8.98387 10.9981C10.0263 12.0434 11.3647 12.7431 12.8179 13.0028L14.4865 11.3496C14.703 11.139 14.9766 10.9968 15.2733 10.9408C15.5701 10.8847 15.8767 10.9172 16.1551 11.0343L19.054 12.1954C19.3358 12.313 19.5763 12.5118 19.7447 12.7665C19.9132 13.0212 20.002 13.3203 19.9998 13.6257V17.6857C19.9998 18.2975 19.7568 18.8842 19.3242 19.3168C18.8915 19.7495 18.3048 19.9925 17.693 19.9925ZM2.31415 1.53788C2.11021 1.53788 1.91463 1.6189 1.77043 1.7631C1.62622 1.90731 1.54521 2.10289 1.54521 2.30683V2.36834C1.89892 6.92048 4.1673 17.6857 17.6469 18.4546C17.7479 18.4609 17.8491 18.4471 17.9448 18.4141C18.0405 18.3811 18.1287 18.3296 18.2045 18.2624C18.2802 18.1953 18.3419 18.1138 18.3861 18.0228C18.4303 17.9317 18.4561 17.8328 18.4619 17.7318V13.6257L15.563 12.4645L13.3562 14.656L12.9871 14.6099C6.29727 13.7718 5.38992 7.08196 5.38992 7.01275L5.34378 6.64366L7.52758 4.4368L6.37416 1.53788H2.31415Z" fill="#FF2156"/>
</svg>
