<svg width="17" height="25" viewBox="0 0 17 25" fill="none" xmlns="http://www.w3.org/2000/svg">
<path d="M8.33332 1.67494C9.07093 3.43575 10.2936 5.97378 12.5943 8.86994C14.1904 10.8803 15.6656 13.5959 15.6656 16.3932C15.6656 20.9813 12.4952 23.999 8.33332 23.999C4.17128 23.999 1.001 20.9832 1.001 16.3932C1.001 13.7102 2.48036 10.8752 4.07221 8.87015L8.33332 1.67494ZM8.33332 1.67494C7.59571 3.43575 6.37304 5.97378 4.07237 8.86994L8.33332 1.67494Z" stroke="white" stroke-width="2"/>
<path d="M8.31138 18.4183C8.42584 18.6621 8.59446 18.9652 8.85522 19.2992L8.31138 18.4183ZM8.31138 18.4183C8.19692 18.6621 8.0283 18.9652 7.76754 19.2992L8.31138 18.4183ZM8.22876 17.9721L8.22877 17.9721L8.22876 17.9721ZM7.3374 20.363C7.3374 19.9931 7.54019 19.5906 7.7675 19.2993H8.85526C9.0836 19.592 9.28536 19.9765 9.28536 20.363C9.28536 20.9985 8.86058 21.3993 8.31138 21.3993C7.76214 21.3993 7.3374 20.9988 7.3374 20.363Z" stroke="white" stroke-width="0.5"/>
<path d="M10.7601 15.712C10.8746 15.9558 11.0432 16.259 11.304 16.593L10.7601 15.712ZM10.7601 15.712C10.6457 15.9558 10.477 16.259 10.2163 16.593L10.7601 15.712ZM10.6775 15.2658L10.6775 15.2658L10.6775 15.2658ZM9.78614 17.6567C9.78614 17.2869 9.98893 16.8844 10.2162 16.593H11.304C11.5323 16.8857 11.7341 17.2702 11.7341 17.6567C11.7341 18.2922 11.3093 18.693 10.7601 18.693C10.2109 18.693 9.78614 18.2925 9.78614 17.6567Z" stroke="white" stroke-width="0.5"/>
<path d="M7.66767 13.779C7.78213 14.0228 7.95075 14.326 8.21151 14.66L7.66767 13.779ZM7.66767 13.779C7.55322 14.0228 7.38459 14.326 7.12384 14.66L7.66767 13.779ZM7.58505 13.3328L7.58506 13.3328L7.58505 13.3328ZM6.6937 15.7237C6.6937 15.3538 6.89648 14.9514 7.12379 14.66H8.21155C8.43989 14.9527 8.64165 15.3372 8.64165 15.7237C8.64165 16.3592 8.21687 16.76 7.66767 16.76C7.11843 16.76 6.6937 16.3595 6.6937 15.7237Z" stroke="white" stroke-width="0.5"/>
</svg>
