<svg width="374" height="280" viewBox="0 0 374 280" fill="none" xmlns="http://www.w3.org/2000/svg">
<path d="M374 245.292H0V245.479H374V245.292Z" fill="#EBEBEB"/>
<path d="M332.03 256.07H287.232V256.257H332.03V256.07Z" fill="#EBEBEB"/>
<path d="M253.497 252.024H214.175V252.211H253.497V252.024Z" fill="#EBEBEB"/>
<path d="M283.185 255.981H270.956V256.168H283.185V255.981Z" fill="#EBEBEB"/>
<path d="M78.3754 251.934H41.9702V252.121H78.3754V251.934Z" fill="#EBEBEB"/>
<path d="M89.4982 251.934H81.6965V252.121H89.4982V251.934Z" fill="#EBEBEB"/>
<path d="M151.343 253.542H126.173V253.729H151.343V253.542Z" fill="#EBEBEB"/>
<path d="M177.276 211.931H32.8447C31.7132 211.929 30.6287 211.478 29.8294 210.677C29.03 209.876 28.5811 208.791 28.5811 207.66V4.63016C28.5909 3.50519 29.0442 2.42953 29.8425 1.63683C30.6408 0.844131 31.7196 0.398412 32.8447 0.396484H177.276C178.409 0.396484 179.495 0.846472 180.296 1.64745C181.097 2.44844 181.547 3.5348 181.547 4.66756V207.66C181.547 208.793 181.097 209.879 180.296 210.68C179.495 211.481 178.409 211.931 177.276 211.931ZM32.8447 0.546085C31.7628 0.548066 30.7259 0.979225 29.9616 1.74492C29.1973 2.51062 28.7681 3.54829 28.7681 4.63016V207.66C28.7681 208.742 29.1973 209.779 29.9616 210.545C30.7259 211.311 31.7628 211.742 32.8447 211.744H177.276C178.359 211.742 179.396 211.311 180.162 210.545C180.927 209.78 181.358 208.742 181.36 207.66V4.63016C181.358 3.54761 180.927 2.50995 180.162 1.74447C179.396 0.978982 178.359 0.548062 177.276 0.546085H32.8447Z" fill="#EBEBEB"/>
<path d="M339.076 211.931H194.637C193.505 211.929 192.42 211.478 191.619 210.678C190.819 209.877 190.368 208.792 190.366 207.66V4.63016C190.378 3.50451 190.833 2.42886 191.632 1.63636C192.432 0.84387 193.511 0.39839 194.637 0.396484H339.076C340.2 0.400377 341.276 0.846967 342.073 1.63946C342.87 2.43195 343.322 3.50648 343.332 4.63016V207.66C343.332 208.79 342.884 209.874 342.086 210.675C341.289 211.475 340.206 211.927 339.076 211.931ZM194.637 0.546085C193.554 0.548062 192.517 0.978982 191.751 1.74447C190.986 2.50995 190.555 3.54761 190.553 4.63016V207.66C190.555 208.742 190.986 209.78 191.751 210.545C192.517 211.311 193.554 211.742 194.637 211.744H339.076C340.158 211.742 341.196 211.311 341.962 210.545C342.727 209.78 343.158 208.742 343.16 207.66V4.63016C343.158 3.54761 342.727 2.50995 341.962 1.74447C341.196 0.978982 340.158 0.548062 339.076 0.546085H194.637Z" fill="#EBEBEB"/>
<path d="M338.926 170.417H35.0737V175.668H338.926V170.417Z" fill="#EBEBEB"/>
<path d="M84.2845 143.736L289.708 143.736V19.8071L84.2845 19.8071L84.2845 143.736Z" fill="#F0F0F0"/>
<path d="M284.158 138.186V25.3572L89.8348 25.3572V138.186H284.158Z" fill="#FAFAFA"/>
<path d="M252.689 138.186L217.279 25.3572H182.213L217.623 138.186H252.689Z" fill="white"/>
<path d="M206.755 138.186L171.344 25.3572H157.671L193.081 138.186H206.755Z" fill="white"/>
<path d="M90.5454 138.186V25.3572H89.8423V138.186H90.5454Z" fill="#E6E6E6"/>
<path d="M336.346 175.668H37.6467V245.292H336.346V175.668Z" fill="#F5F5F5"/>
<path d="M213.793 175.668H193.68L160.207 245.292H180.32L213.793 175.668Z" fill="#FAFAFA"/>
<path d="M305.992 175.668H285.878L252.405 245.292H272.519L305.992 175.668Z" fill="#FAFAFA"/>
<path d="M186.125 175.668H166.011L132.546 245.292H152.659L186.125 175.668Z" fill="#FAFAFA"/>
<path d="M65.3901 165.704L59.092 158.411V145.247C59.2143 145.243 59.3304 145.191 59.4156 145.103C59.5007 145.015 59.5483 144.898 59.5483 144.775C59.5483 144.648 59.4978 144.527 59.408 144.437C59.3183 144.347 59.1965 144.297 59.0695 144.297H52.36C52.233 144.297 52.1112 144.347 52.0215 144.437C51.9317 144.527 51.8813 144.648 51.8813 144.775C51.8812 144.898 51.9288 145.015 52.0139 145.103C52.0991 145.191 52.2152 145.243 52.3375 145.247V158.411L46.0618 165.704C45.7057 166.116 45.4756 166.621 45.3989 167.16C45.3222 167.699 45.4022 168.248 45.6294 168.743C45.8565 169.237 46.2212 169.656 46.6799 169.949C47.1386 170.242 47.6719 170.396 48.216 170.394H63.2359C63.7801 170.396 64.3134 170.242 64.772 169.949C65.2307 169.656 65.5954 169.237 65.8226 168.743C66.0497 168.248 66.1297 167.699 66.053 167.16C65.9764 166.621 65.7462 166.116 65.3901 165.704Z" fill="#F5F5F5"/>
<path d="M225.791 165.704L219.493 158.389V130.713C219.62 130.713 219.742 130.663 219.832 130.573C219.921 130.483 219.972 130.361 219.972 130.234C219.972 130.107 219.921 129.986 219.832 129.896C219.742 129.806 219.62 129.756 219.493 129.756H212.814C212.687 129.756 212.565 129.806 212.475 129.896C212.385 129.986 212.335 130.107 212.335 130.234C212.335 130.361 212.385 130.483 212.475 130.573C212.565 130.663 212.687 130.713 212.814 130.713V158.389L206.448 165.704C206.092 166.116 205.862 166.621 205.785 167.16C205.708 167.699 205.788 168.248 206.016 168.743C206.243 169.237 206.607 169.656 207.066 169.949C207.525 170.242 208.058 170.396 208.602 170.394H223.652C224.195 170.394 224.726 170.237 225.183 169.943C225.639 169.649 226.002 169.23 226.227 168.736C226.452 168.242 226.531 167.694 226.454 167.156C226.377 166.619 226.147 166.115 225.791 165.704Z" fill="#F5F5F5"/>
<path d="M159.332 170.379H107.211L111.325 118.251H159.332V170.379Z" fill="#E0E0E0"/>
<path d="M182.273 156.399H130.152L125.425 118.251H177.545L182.273 156.399Z" fill="#F0F0F0"/>
<path d="M182.273 156.399H130.152L146.429 170.417H198.549L182.273 156.399Z" fill="#F0F0F0"/>
<path d="M132.456 150.864L129.105 123.816C129.053 123.496 129.072 123.168 129.162 122.856C129.252 122.543 129.41 122.255 129.624 122.011C129.839 121.767 130.105 121.574 130.403 121.445C130.701 121.316 131.024 121.255 131.349 121.266H172.392C173.092 121.288 173.763 121.555 174.287 122.022C174.81 122.488 175.153 123.123 175.256 123.816L178.608 150.887C178.658 151.207 178.638 151.534 178.548 151.845C178.457 152.156 178.299 152.444 178.085 152.687C177.87 152.93 177.605 153.122 177.307 153.251C177.01 153.379 176.687 153.44 176.364 153.43H135.321C134.618 153.407 133.945 153.137 133.422 152.668C132.898 152.199 132.556 151.56 132.456 150.864Z" fill="#E0E0E0"/>
<path d="M269.908 170.379H312.971L309.575 127.325H269.908V170.379Z" fill="#E0E0E0"/>
<path d="M250.961 158.838H294.016L297.928 127.325H254.866L250.961 158.838Z" fill="#F0F0F0"/>
<path d="M250.962 158.838H294.016L280.575 170.417H237.512L250.962 158.838Z" fill="#F0F0F0"/>
<path d="M292.116 154.268L294.891 131.895C294.933 131.631 294.917 131.361 294.842 131.104C294.768 130.848 294.638 130.611 294.461 130.41C294.285 130.209 294.067 130.05 293.822 129.943C293.576 129.837 293.311 129.785 293.044 129.793H259.137C258.558 129.808 258.004 130.028 257.571 130.412C257.139 130.797 256.856 131.322 256.773 131.895L253.998 154.268C253.957 154.531 253.973 154.8 254.047 155.056C254.121 155.312 254.25 155.549 254.426 155.75C254.601 155.95 254.819 156.11 255.063 156.217C255.307 156.324 255.572 156.376 255.838 156.369H289.753C290.331 156.354 290.886 156.135 291.318 155.75C291.751 155.366 292.034 154.84 292.116 154.268Z" fill="#E0E0E0"/>
<path d="M187 279.071C267.098 279.071 332.03 275.28 332.03 270.604C332.03 265.928 267.098 262.137 187 262.137C106.902 262.137 41.9702 265.928 41.9702 270.604C41.9702 275.28 106.902 279.071 187 279.071Z" fill="#F5F5F5"/>
<path opacity="0.2" d="M65.0762 52.9958L105.214 206.336C106.448 210.998 109.477 214.983 113.64 217.419C117.802 219.855 122.76 220.544 127.429 219.336C132.092 218.102 136.077 215.073 138.513 210.91C140.949 206.747 141.638 201.79 140.43 197.12L100.292 43.7805L65.0762 52.9958Z" fill="#FF2156"/>
<path d="M126.292 214.998C122.774 215.914 119.037 215.397 115.899 213.562C112.761 211.726 110.478 208.722 109.552 205.206L79.2881 89.4908C79.2881 89.4908 85.4142 85.3094 92.5576 86.02C97.1983 86.352 101.853 85.6044 106.156 83.8359L136.076 198.28C136.988 201.794 136.47 205.526 134.636 208.659C132.803 211.792 129.803 214.071 126.292 214.998Z" fill="#FF2156"/>
<path opacity="0.2" d="M107.353 155.322C107.353 155.957 107.165 156.577 106.812 157.105C106.46 157.633 105.959 158.044 105.372 158.287C104.786 158.53 104.141 158.593 103.518 158.469C102.896 158.346 102.324 158.04 101.875 157.591C101.426 157.142 101.121 156.571 100.997 155.948C100.873 155.326 100.937 154.681 101.18 154.094C101.422 153.508 101.834 153.007 102.361 152.654C102.889 152.302 103.51 152.113 104.144 152.113C104.995 152.115 105.81 152.454 106.411 153.055C107.012 153.657 107.351 154.472 107.353 155.322Z" fill="black"/>
<path d="M105.58 155.322C105.582 155.607 105.499 155.885 105.342 156.122C105.185 156.359 104.961 156.545 104.699 156.654C104.437 156.764 104.148 156.794 103.869 156.739C103.589 156.685 103.333 156.548 103.131 156.348C102.93 156.147 102.792 155.891 102.736 155.613C102.68 155.334 102.708 155.045 102.817 154.782C102.925 154.519 103.109 154.294 103.345 154.136C103.582 153.978 103.86 153.894 104.144 153.894C104.524 153.894 104.888 154.044 105.157 154.312C105.426 154.579 105.578 154.943 105.58 155.322Z" fill="#FF2156"/>
<path opacity="0.2" d="M108.191 121.071C108.192 121.449 108.081 121.819 107.872 122.134C107.663 122.449 107.366 122.694 107.017 122.84C106.668 122.985 106.284 123.023 105.913 122.95C105.542 122.877 105.202 122.695 104.935 122.427C104.667 122.16 104.486 121.82 104.412 121.449C104.339 121.078 104.377 120.694 104.523 120.345C104.668 119.997 104.914 119.699 105.228 119.49C105.543 119.281 105.913 119.17 106.291 119.171C106.794 119.173 107.276 119.374 107.632 119.73C107.988 120.086 108.189 120.568 108.191 121.071Z" fill="black"/>
<path d="M107.136 121.071C107.138 121.241 107.089 121.406 106.995 121.548C106.902 121.689 106.769 121.8 106.613 121.865C106.457 121.931 106.285 121.948 106.119 121.915C105.953 121.883 105.8 121.801 105.68 121.682C105.561 121.562 105.479 121.409 105.447 121.243C105.414 121.077 105.432 120.905 105.497 120.749C105.562 120.593 105.673 120.46 105.814 120.367C105.956 120.274 106.122 120.225 106.291 120.226C106.514 120.228 106.728 120.318 106.886 120.476C107.044 120.634 107.134 120.848 107.136 121.071Z" fill="#FF2156"/>
<path opacity="0.2" d="M115.753 195.004C118.025 195.004 119.867 193.162 119.867 190.89C119.867 188.618 118.025 186.776 115.753 186.776C113.481 186.776 111.639 188.618 111.639 190.89C111.639 193.162 113.481 195.004 115.753 195.004Z" fill="black"/>
<path d="M115.753 192.73C116.769 192.73 117.593 191.906 117.593 190.89C117.593 189.873 116.769 189.05 115.753 189.05C114.737 189.05 113.913 189.873 113.913 190.89C113.913 191.906 114.737 192.73 115.753 192.73Z" fill="#FF2156"/>
<path opacity="0.2" d="M119.792 174.965C121.085 174.965 122.134 173.916 122.134 172.623C122.134 171.33 121.085 170.282 119.792 170.282C118.499 170.282 117.451 171.33 117.451 172.623C117.451 173.916 118.499 174.965 119.792 174.965Z" fill="black"/>
<path d="M120.832 172.623C120.832 172.831 120.77 173.034 120.655 173.206C120.54 173.378 120.376 173.513 120.184 173.592C119.992 173.671 119.781 173.691 119.578 173.65C119.374 173.609 119.188 173.508 119.042 173.361C118.895 173.214 118.796 173.027 118.757 172.823C118.717 172.619 118.739 172.409 118.819 172.217C118.9 172.026 119.035 171.863 119.208 171.749C119.382 171.635 119.585 171.575 119.792 171.576C120.069 171.578 120.333 171.689 120.528 171.886C120.723 172.082 120.832 172.347 120.832 172.623Z" fill="#FF2156"/>
<path opacity="0.2" d="M126.779 205.109C128.295 205.109 129.524 203.88 129.524 202.364C129.524 200.848 128.295 199.619 126.779 199.619C125.262 199.619 124.033 200.848 124.033 202.364C124.033 203.88 125.262 205.109 126.779 205.109Z" fill="black"/>
<path d="M128.005 202.356C128.005 202.599 127.933 202.836 127.799 203.038C127.664 203.24 127.472 203.397 127.248 203.49C127.024 203.583 126.777 203.607 126.539 203.56C126.301 203.512 126.083 203.395 125.911 203.224C125.74 203.052 125.623 202.834 125.576 202.596C125.528 202.358 125.553 202.111 125.645 201.887C125.738 201.663 125.895 201.471 126.097 201.336C126.299 201.202 126.536 201.13 126.779 201.13C127.104 201.13 127.416 201.259 127.646 201.489C127.876 201.719 128.005 202.031 128.005 202.356Z" fill="#FF2156"/>
<path opacity="0.2" d="M109.133 137.183C109.133 137.818 108.945 138.438 108.593 138.966C108.24 139.494 107.739 139.905 107.152 140.148C106.566 140.391 105.921 140.454 105.298 140.33C104.676 140.207 104.104 139.901 103.655 139.452C103.207 139.003 102.901 138.432 102.777 137.809C102.653 137.187 102.717 136.542 102.96 135.955C103.203 135.369 103.614 134.868 104.142 134.515C104.669 134.163 105.29 133.974 105.924 133.974C106.776 133.974 107.592 134.312 108.194 134.914C108.795 135.516 109.133 136.332 109.133 137.183Z" fill="black"/>
<path d="M108.191 137.183C108.191 137.627 108.059 138.061 107.813 138.43C107.566 138.799 107.216 139.087 106.806 139.256C106.396 139.426 105.944 139.471 105.509 139.384C105.074 139.298 104.674 139.084 104.36 138.77C104.046 138.456 103.833 138.056 103.746 137.621C103.659 137.186 103.704 136.735 103.874 136.324C104.044 135.914 104.331 135.564 104.7 135.317C105.069 135.071 105.503 134.939 105.947 134.939C106.542 134.939 107.113 135.176 107.534 135.596C107.954 136.017 108.191 136.588 108.191 137.183Z" fill="#FF2156"/>
<path opacity="0.2" d="M116.419 150.079C116.419 150.523 116.287 150.956 116.041 151.325C115.794 151.694 115.444 151.982 115.034 152.152C114.624 152.322 114.172 152.366 113.737 152.28C113.302 152.193 112.902 151.979 112.588 151.665C112.274 151.352 112.061 150.952 111.974 150.516C111.887 150.081 111.932 149.63 112.102 149.22C112.272 148.81 112.559 148.459 112.928 148.213C113.297 147.966 113.731 147.835 114.175 147.835C114.77 147.835 115.341 148.071 115.762 148.492C116.182 148.913 116.419 149.484 116.419 150.079Z" fill="black"/>
<path d="M115.753 150.079C115.759 150.398 115.67 150.712 115.497 150.98C115.324 151.249 115.075 151.459 114.781 151.586C114.488 151.712 114.164 151.748 113.85 151.689C113.536 151.631 113.247 151.48 113.019 151.256C112.791 151.033 112.635 150.746 112.57 150.434C112.506 150.121 112.536 149.796 112.657 149.5C112.777 149.205 112.983 148.952 113.249 148.774C113.514 148.596 113.826 148.5 114.145 148.5C114.566 148.5 114.971 148.666 115.272 148.961C115.573 149.256 115.745 149.657 115.753 150.079Z" fill="#FF2156"/>
<path d="M93.4799 62.0599L79.97 65.5966L92.0936 111.908L105.604 108.371L93.4799 62.0599Z" fill="white"/>
<path d="M98.4062 18.3566L97.6826 18.5461L99.1185 24.0311L99.8421 23.8416L98.4062 18.3566Z" fill="#FF2156"/>
<path d="M96.7614 15.0124L93.7245 3.42586C93.5261 2.66606 93.0816 1.99339 92.4605 1.51296C91.8393 1.03254 91.0765 0.771439 90.2912 0.77046C89.9855 0.769249 89.681 0.809509 89.3861 0.89014L82.5569 2.67786L82.3699 1.92986L89.1991 0.14214C89.5552 0.0466516 89.9225 -0.0011381 90.2912 2.05725e-05C91.2425 0.000710737 92.1668 0.316786 92.9193 0.89878C93.6718 1.48077 94.2102 2.29584 94.4501 3.21642L97.4421 14.8029L96.7614 15.0124Z" fill="#FF2156"/>
<path d="M54.0427 12.0703L89.8617 2.6934C90.2912 2.58705 90.7453 2.65414 91.1258 2.88015C91.5062 3.10617 91.7823 3.47291 91.8943 3.90099L101.697 41.3481L62.6222 51.5774L52.8191 14.1303C52.7626 13.9147 52.7495 13.69 52.7806 13.4692C52.8117 13.2485 52.8863 13.0361 53.0002 12.8445C53.114 12.6528 53.2648 12.4857 53.4438 12.3528C53.6227 12.2199 53.8263 12.1239 54.0427 12.0703Z" fill="#FF2156"/>
<path opacity="0.2" d="M72.9218 7.12053L70.9897 7.62631L81.2191 46.7015L83.1511 46.1958L72.9218 7.12053Z" fill="black"/>
<path opacity="0.2" d="M80.2317 5.62653L78.2944 6.12582L88.3924 45.3061L90.3297 44.8068L80.2317 5.62653Z" fill="black"/>
<path opacity="0.2" d="M87.3866 3.34093L85.4546 3.84671L95.6839 42.9219L97.616 42.4162L87.3866 3.34093Z" fill="black"/>
<path opacity="0.2" d="M65.6784 9.0197L63.7463 9.52548L73.9757 48.6007L75.9077 48.0949L65.6784 9.0197Z" fill="black"/>
<path opacity="0.2" d="M58.4516 10.9167L56.5195 11.4225L66.7489 50.4977L68.6809 49.9919L58.4516 10.9167Z" fill="black"/>
<path d="M101.033 38.6864L61.9502 48.9176C60.6194 49.266 59.823 50.6272 60.1713 51.958L61.5296 57.1464C61.878 58.4772 63.2392 59.2736 64.57 58.9252L103.652 48.694C104.983 48.3456 105.78 46.9843 105.431 45.6535L104.073 40.4652C103.725 39.1344 102.363 38.338 101.033 38.6864Z" fill="#FF2156"/>
<path d="M329.794 96.4099L329.385 101.465L330.131 101.525L330.539 96.4702L329.794 96.4099Z" fill="#FF2156"/>
<path d="M331.484 75.893L330.271 90.9013L331.017 90.9616L332.23 75.9532L331.484 75.893Z" fill="#FF2156"/>
<path d="M209.552 14.2494L196.32 177.904L294.667 185.848L322.627 162.077L333.765 24.2876L209.552 14.2494Z" fill="white"/>
<path d="M294.667 186.536H294.607L196.268 178.585C196.177 178.578 196.088 178.554 196.007 178.512C195.926 178.471 195.854 178.414 195.795 178.344C195.737 178.274 195.693 178.193 195.666 178.106C195.639 178.019 195.63 177.928 195.639 177.837L208.864 14.1971C208.871 14.1066 208.897 14.0184 208.939 13.9378C208.98 13.8571 209.038 13.7856 209.107 13.7272C209.177 13.6687 209.257 13.6247 209.344 13.5975C209.43 13.5703 209.521 13.5605 209.612 13.5687L333.817 23.5845C333.908 23.591 333.997 23.6157 334.078 23.6571C334.159 23.6985 334.231 23.7558 334.29 23.8256C334.348 23.8953 334.392 23.9761 334.419 24.0632C334.446 24.1503 334.455 24.2418 334.446 24.3325L323.308 162.114C323.302 162.204 323.277 162.291 323.236 162.371C323.195 162.45 323.138 162.521 323.069 162.578L295.108 186.357C294.988 186.468 294.831 186.532 294.667 186.536ZM197.06 177.276L294.435 185.152L321.969 161.74L333.024 24.9159L210.188 14.9899L197.06 177.276Z" fill="#FF2156"/>
<path opacity="0.2" d="M291.885 161.531L294.667 185.848L322.627 162.077L291.885 161.531Z" fill="#FF2156"/>
<path d="M296.754 159.982L294.667 185.848L322.627 162.077L296.754 159.982Z" fill="white"/>
<path d="M294.667 186.536C294.558 186.537 294.45 186.511 294.353 186.461C294.232 186.4 294.132 186.304 294.065 186.185C293.998 186.067 293.968 185.931 293.979 185.796L296.073 159.93C296.079 159.839 296.104 159.751 296.145 159.67C296.186 159.589 296.243 159.517 296.313 159.459C296.381 159.4 296.461 159.356 296.547 159.329C296.633 159.302 296.724 159.292 296.814 159.302L322.68 161.388C322.815 161.399 322.943 161.45 323.05 161.534C323.156 161.618 323.236 161.731 323.278 161.86C323.321 161.991 323.325 162.132 323.287 162.266C323.25 162.399 323.174 162.518 323.069 162.608L295.108 186.387C294.985 186.489 294.828 186.543 294.667 186.536ZM297.382 160.723L295.46 184.255L320.892 162.623L297.382 160.723Z" fill="#FF2156"/>
<path opacity="0.2" d="M235.104 138.028H234.984L218.049 136.66C217.868 136.646 217.691 136.595 217.529 136.512C217.368 136.429 217.224 136.315 217.107 136.175C216.99 136.036 216.902 135.875 216.848 135.701C216.794 135.527 216.775 135.345 216.793 135.164L218.162 118.229C218.177 118.048 218.227 117.872 218.311 117.71C218.394 117.549 218.509 117.406 218.648 117.289C218.787 117.172 218.948 117.084 219.121 117.03C219.294 116.975 219.477 116.956 219.658 116.972L236.585 118.341C236.766 118.356 236.942 118.407 237.103 118.49C237.265 118.574 237.408 118.688 237.525 118.827C237.641 118.966 237.73 119.127 237.784 119.301C237.838 119.474 237.858 119.656 237.841 119.837L236.473 136.764C236.459 136.944 236.409 137.119 236.327 137.28C236.245 137.44 236.132 137.583 235.994 137.699C235.745 137.91 235.43 138.026 235.104 138.028ZM219.635 134.027L233.847 135.179L234.992 120.967L220.78 119.815L219.635 134.027Z" fill="#263238"/>
<path opacity="0.2" d="M238.827 75.9303L238.707 75.9283L221.797 74.2782C221.616 74.2611 221.44 74.2081 221.28 74.1223C221.12 74.0364 220.978 73.9195 220.863 73.7783C220.749 73.6371 220.663 73.4744 220.612 73.2998C220.561 73.1253 220.545 72.9423 220.566 72.7615L222.216 55.8519C222.234 55.6712 222.288 55.4958 222.374 55.3359C222.46 55.176 222.577 55.0348 222.718 54.9203C222.859 54.8058 223.021 54.7204 223.195 54.6689C223.369 54.6174 223.552 54.6009 223.732 54.6203L240.635 56.2703C240.815 56.2884 240.991 56.342 241.151 56.4282C241.31 56.5143 241.452 56.6312 241.566 56.7722C241.681 56.9132 241.766 57.0755 241.818 57.2496C241.869 57.4238 241.886 57.6064 241.866 57.787L240.216 74.6891C240.199 74.8687 240.147 75.0431 240.062 75.2022C239.977 75.3613 239.862 75.502 239.722 75.6161C239.47 75.8225 239.153 75.9338 238.827 75.9303ZM223.427 71.6719L237.617 73.06L238.998 58.869L224.807 57.4809L223.427 71.6719Z" fill="#263238"/>
<path d="M299.761 131.296H299.641L244.334 126.808C243.972 126.779 243.637 126.606 243.402 126.329C243.167 126.052 243.052 125.693 243.081 125.331C243.111 124.969 243.283 124.634 243.56 124.399C243.837 124.164 244.197 124.048 244.559 124.078L299.858 128.566C300.038 128.573 300.215 128.614 300.378 128.689C300.542 128.764 300.689 128.87 300.812 129.002C300.934 129.133 301.03 129.288 301.093 129.456C301.156 129.625 301.185 129.804 301.178 129.984C301.172 130.163 301.13 130.34 301.056 130.504C300.981 130.667 300.875 130.815 300.743 130.937C300.611 131.06 300.457 131.155 300.288 131.218C300.12 131.281 299.941 131.31 299.761 131.304V131.296Z" fill="#E0E0E0"/>
<path d="M303.587 70.2741L303.467 70.2721L248.242 64.8653C247.881 64.8295 247.548 64.6516 247.318 64.3707C247.088 64.0898 246.978 63.7289 247.014 63.3674C247.05 63.0059 247.228 62.6734 247.509 62.4431C247.789 62.2127 248.15 62.1035 248.512 62.1392L303.729 67.5459C303.909 67.5552 304.085 67.5999 304.247 67.6773C304.41 67.7547 304.555 67.8633 304.676 67.997C304.796 68.1306 304.889 68.2866 304.949 68.4562C305.009 68.6257 305.035 68.8054 305.026 68.9851C305.016 69.1647 304.972 69.3407 304.894 69.5031C304.817 69.6655 304.708 69.811 304.575 69.9314C304.441 70.0518 304.285 70.1446 304.115 70.2047C303.946 70.2648 303.766 70.2909 303.587 70.2815L303.587 70.2741Z" fill="#E0E0E0"/>
<path d="M261.628 135.111H261.508L243.78 133.683C243.592 133.679 243.407 133.638 243.235 133.56C243.064 133.482 242.91 133.37 242.784 133.23C242.657 133.091 242.561 132.927 242.5 132.749C242.44 132.57 242.417 132.382 242.432 132.194C242.447 132.006 242.501 131.824 242.59 131.658C242.679 131.492 242.8 131.346 242.948 131.229C243.095 131.112 243.265 131.026 243.447 130.977C243.629 130.928 243.819 130.917 244.005 130.945L261.732 132.381C262.095 132.395 262.438 132.552 262.685 132.819C262.932 133.086 263.063 133.439 263.049 133.802C263.035 134.165 262.878 134.508 262.611 134.755C262.344 135.002 261.991 135.133 261.628 135.119V135.111Z" fill="#E0E0E0"/>
<path d="M265.395 73.4545L265.276 73.4525L247.574 71.7293C247.386 71.723 247.201 71.6781 247.031 71.5975C246.861 71.5169 246.709 71.4023 246.585 71.2607C246.461 71.119 246.368 70.9535 246.31 70.7743C246.253 70.595 246.232 70.4059 246.251 70.2185C246.269 70.0312 246.326 69.8496 246.418 69.6851C246.509 69.5206 246.633 69.3765 246.783 69.2619C246.932 69.1473 247.103 69.0646 247.286 69.0188C247.468 68.973 247.658 68.9651 247.844 68.9957L265.546 70.7264C265.908 70.7463 266.248 70.9095 266.491 71.1801C266.733 71.4507 266.858 71.8065 266.838 72.1693C266.818 72.532 266.655 72.872 266.384 73.1144C266.114 73.3569 265.758 73.4819 265.395 73.4619L265.395 73.4545Z" fill="#E0E0E0"/>
<path d="M287.726 137.221H287.606L272.272 135.979C271.91 135.949 271.574 135.777 271.34 135.5C271.105 135.223 270.989 134.864 271.019 134.502C271.049 134.14 271.221 133.804 271.498 133.569C271.775 133.334 272.134 133.219 272.496 133.249L287.793 134.483C288.156 134.496 288.499 134.652 288.747 134.918C288.994 135.184 289.126 135.537 289.113 135.9C289.1 136.263 288.944 136.606 288.678 136.854C288.412 137.102 288.059 137.233 287.696 137.221H287.726Z" fill="#E0E0E0"/>
<path d="M291.455 75.9973L291.335 75.9953L276.024 74.4989C275.662 74.4631 275.33 74.2852 275.099 74.0043C274.869 73.7234 274.76 73.3625 274.795 73.001C274.831 72.6395 275.009 72.307 275.29 72.0767C275.571 71.8464 275.932 71.7371 276.293 71.7728L291.567 73.2611C291.93 73.2801 292.271 73.4423 292.514 73.7122C292.757 73.9821 292.883 74.3376 292.864 74.7003C292.845 75.0631 292.683 75.4035 292.413 75.6467C292.143 75.8898 291.787 76.0157 291.425 75.9968L291.455 75.9973Z" fill="#E0E0E0"/>
<path opacity="0.2" d="M232.673 168.128H232.553L215.618 166.759C215.437 166.745 215.26 166.695 215.099 166.612C214.937 166.529 214.793 166.414 214.676 166.275C214.559 166.136 214.471 165.974 214.417 165.801C214.363 165.627 214.344 165.444 214.362 165.263L215.731 148.336C215.746 148.155 215.796 147.979 215.88 147.817C215.963 147.656 216.078 147.513 216.217 147.396C216.356 147.279 216.517 147.191 216.69 147.137C216.863 147.082 217.046 147.063 217.227 147.079L234.124 148.5C234.305 148.515 234.482 148.565 234.644 148.648C234.806 148.731 234.949 148.845 235.066 148.985C235.183 149.124 235.271 149.285 235.325 149.459C235.379 149.633 235.398 149.815 235.381 149.996L234.012 166.931C233.98 167.293 233.809 167.629 233.533 167.866C233.285 168.049 232.981 168.142 232.673 168.128ZM217.204 164.134L231.416 165.286L232.561 151.074L218.349 149.922L217.204 164.134Z" fill="#263238"/>
<path opacity="0.2" d="M235.895 105.985L235.776 105.983L218.866 104.333C218.685 104.316 218.509 104.263 218.349 104.177C218.188 104.091 218.047 103.974 217.932 103.833C217.817 103.692 217.732 103.529 217.681 103.355C217.63 103.18 217.614 102.997 217.635 102.816L219.285 85.9143C219.303 85.7336 219.356 85.5582 219.442 85.3984C219.529 85.2385 219.646 85.0972 219.787 84.9827C219.928 84.8682 220.09 84.7828 220.264 84.7313C220.438 84.6798 220.621 84.6633 220.801 84.6827L237.673 86.3846C237.854 86.4017 238.03 86.4547 238.19 86.5405C238.35 86.6264 238.492 86.7433 238.607 86.8845C238.721 87.0257 238.807 87.1884 238.858 87.3629C238.909 87.5375 238.925 87.7205 238.904 87.9013L237.254 104.811C237.217 105.173 237.039 105.505 236.76 105.738C236.509 105.917 236.203 106.004 235.895 105.985ZM220.495 101.734L234.686 103.122L236.067 88.9314L221.876 87.5434L220.495 101.734Z" fill="#263238"/>
<path d="M287.404 160.596H287.284L241.903 156.923C241.541 156.893 241.206 156.721 240.971 156.444C240.736 156.167 240.62 155.808 240.65 155.446C240.68 155.084 240.852 154.748 241.129 154.513C241.406 154.278 241.765 154.163 242.127 154.193L287.509 157.858C287.872 157.872 288.214 158.029 288.461 158.296C288.708 158.562 288.839 158.916 288.825 159.279C288.811 159.642 288.654 159.985 288.387 160.232C288.121 160.479 287.767 160.61 287.404 160.596Z" fill="#E0E0E0"/>
<path d="M290.744 99.3638L290.625 99.3618L245.311 94.9353C244.949 94.8995 244.617 94.7216 244.386 94.4407C244.156 94.1597 244.047 93.7988 244.083 93.4373C244.118 93.0758 244.296 92.7433 244.577 92.513C244.858 92.2827 245.219 92.1734 245.581 92.2091L290.894 96.6282C291.257 96.6481 291.597 96.8113 291.84 97.0819C292.082 97.3525 292.207 97.7084 292.187 98.0711C292.167 98.4339 292.004 98.7739 291.733 99.0163C291.463 99.2587 291.107 99.3837 290.744 99.3638Z" fill="#E0E0E0"/>
<path d="M269.22 166.004H269.1L241.35 163.76C241.161 163.756 240.976 163.715 240.804 163.637C240.633 163.559 240.479 163.447 240.353 163.308C240.226 163.168 240.13 163.004 240.07 162.826C240.009 162.647 239.986 162.459 240.001 162.271C240.017 162.083 240.07 161.901 240.159 161.735C240.248 161.569 240.37 161.423 240.517 161.306C240.664 161.189 240.834 161.103 241.016 161.054C241.198 161.005 241.388 160.994 241.574 161.022L269.317 163.266C269.68 163.279 270.023 163.435 270.271 163.701C270.519 163.967 270.65 164.32 270.637 164.683C270.625 165.046 270.468 165.39 270.202 165.637C269.936 165.885 269.583 166.017 269.22 166.004Z" fill="#E0E0E0"/>
<path d="M272.473 104.469L272.353 104.467L244.644 101.762C244.456 101.755 244.271 101.711 244.101 101.63C243.93 101.549 243.779 101.435 243.655 101.293C243.531 101.152 243.437 100.986 243.379 100.807C243.322 100.628 243.302 100.438 243.32 100.251C243.339 100.064 243.395 99.8821 243.487 99.7176C243.578 99.5531 243.703 99.409 243.852 99.2944C244.001 99.1798 244.173 99.0971 244.355 99.0513C244.538 99.0055 244.728 98.9976 244.914 99.0282L272.616 101.733C272.979 101.752 273.319 101.914 273.562 102.184C273.805 102.454 273.931 102.81 273.912 103.172C273.893 103.535 273.731 103.875 273.461 104.119C273.191 104.362 272.836 104.488 272.473 104.469Z" fill="#E0E0E0"/>
<path opacity="0.3" d="M134.233 126.142C140.045 109.02 128.333 89.5649 108.074 82.6878C87.8144 75.8106 66.6791 84.1158 60.8669 101.238C55.0547 118.36 66.7666 137.815 87.0261 144.693C107.286 151.57 128.421 143.265 134.233 126.142Z" fill="#FF2156"/>
<path opacity="0.3" d="M119.376 90.239L111.248 81.825L64.8315 126.665L72.9596 135.079L119.376 90.239Z" fill="white"/>
<path opacity="0.3" d="M129.974 98.8756L123.628 92.3069L76.1359 138.186L82.4815 144.755L129.974 98.8756Z" fill="white"/>
<path d="M101.466 149.757C96.2667 149.739 91.1049 148.873 86.1847 147.191C75.8024 143.661 67.1929 136.906 61.9345 128.17C56.5863 119.291 55.3296 109.47 58.3964 100.412C61.4632 91.3533 68.457 84.3296 78.1062 80.5372C87.5984 76.7972 98.5416 76.6925 108.924 80.223C119.306 83.7536 127.923 90.5006 133.181 99.2372C138.522 108.116 139.779 117.975 136.72 127.003C133.66 136.031 126.651 143.085 117.01 146.87C112.055 148.798 106.783 149.777 101.466 149.757ZM93.6422 82.8934C88.9897 82.8748 84.3749 83.7272 80.0361 85.4067C71.8081 88.6605 65.9138 94.5547 63.3557 102.124C60.7975 109.694 61.8597 117.967 66.415 125.499C71.0376 133.181 78.6598 139.136 87.8677 142.262C97.0755 145.389 106.755 145.307 115.095 142.03C123.278 138.814 129.202 132.89 131.76 125.35C134.318 117.81 133.256 109.507 128.693 101.967C124.071 94.2854 116.456 88.3388 107.241 85.2122C102.865 83.7015 98.2713 82.9182 93.6422 82.8934Z" fill="#263238"/>
<path d="M137.041 122.627C142.143 123.216 147.211 124.067 152.225 125.178C157.207 126.24 162.144 127.467 167.028 128.813C171.913 130.16 176.752 131.633 181.584 133.204C183.971 134.049 186.461 134.61 188.676 135.949C189.834 136.634 190.902 137.46 191.855 138.41C192.377 138.926 192.86 139.481 193.298 140.071C193.797 140.726 194.228 141.43 194.585 142.172C195.277 143.601 195.379 145.244 194.869 146.747C194.36 148.25 193.28 149.493 191.862 150.206C191.123 150.576 190.349 150.872 189.551 151.089C188.847 151.287 188.129 151.432 187.404 151.522C186.068 151.694 184.716 151.694 183.38 151.522C180.807 151.238 178.495 150.169 176.087 149.391C171.307 147.708 166.565 145.927 161.875 144.005C157.185 142.083 152.517 140.071 147.91 137.879C143.259 135.704 138.722 133.293 134.318 130.653C133.476 130.137 132.835 129.35 132.499 128.421C132.164 127.492 132.154 126.477 132.471 125.542C132.789 124.607 133.415 123.808 134.247 123.275C135.078 122.743 136.066 122.509 137.049 122.612L137.041 122.627Z" fill="#263238"/>
<path opacity="0.1" d="M182.512 69.6388C183.051 72.6982 181.801 74.9796 179.722 74.7327C177.643 74.4859 175.526 71.8155 174.995 68.7487C174.464 65.6819 175.743 63.408 177.785 63.6548C179.827 63.9017 181.959 66.5795 182.512 69.6388Z" fill="#FF2156"/>
<path d="M193.732 267.432C199.918 266.954 203.06 262.989 202.574 258.531C202.304 256.07 210.181 255.27 210.181 255.27C209.021 263.042 210.719 264.291 211.011 266.288C211.303 268.285 211.138 270.454 209.515 270.492C207.555 270.544 206.673 270.17 204.234 270.267C201.384 270.372 199.462 270.484 194.405 270.492C192.393 270.507 191.002 267.657 193.732 267.432Z" fill="#263238"/>
<path d="M249.249 262.944C252.906 256.684 249.899 252.57 247.259 249.166C245.696 247.154 253.198 244.604 253.198 244.604C255.068 249.308 256.938 249.249 258.808 250.288C260.678 251.328 261.748 253.056 260.723 254.32C259.489 255.816 258.397 255.704 256.946 257.634C255.248 259.878 253.437 262.802 251.059 265.226C249.645 266.684 247.872 265.278 249.249 262.944Z" fill="#263238"/>
<path d="M177.381 136.331C177.381 136.331 178.421 167.747 186.095 193.927C189.439 216.561 202.491 259.332 202.491 259.332C205.199 259.978 208.024 259.952 210.719 259.257C210.719 259.257 214.901 226.24 206.119 190.441C211.826 152.255 207.944 132.763 207.944 132.763L177.381 136.331Z" fill="#FF2156"/>
<path d="M189.446 134.887C189.446 134.887 202.558 178.099 212.634 198.085C223.226 219.074 246.047 248.949 247.102 250.273C250.004 248.89 252.54 247.319 254.058 245.202C254.058 245.202 245.337 212.066 232.449 189.491C222.313 139.749 215.559 131.775 215.559 131.775L189.446 134.887Z" fill="#FF2156"/>
<path d="M197.098 72.3765C196.545 76.8122 196.35 83.9556 198.482 87.4936C198.482 87.4936 192.827 88.4585 185.474 95.9161C180.986 90.7474 184.607 89.1841 184.607 89.1841C187.89 87.9873 187.935 83.8209 187.546 80.612L197.098 72.3765Z" fill="#FFC3BD"/>
<path d="M173.349 101.616C172.504 96.4471 175.556 92.2359 181.966 90.0218C187.875 87.9873 196.358 86.4987 202.214 87.3365C208.071 88.1743 210.218 91.0765 209.829 95.4897C208.153 114.638 215.476 125.918 215.574 131.775C201.795 135.291 180.769 138.245 177.381 136.33C174.905 133.72 175.384 117.436 176.154 114.953C170.043 111.744 173.82 104.496 173.349 101.616Z" fill="#FF2156"/>
<path d="M179.169 69.5117C179.258 70.0876 179.026 70.6112 178.645 70.6711C178.263 70.7309 177.897 70.312 177.785 69.7286C177.673 69.1452 177.927 68.6216 178.308 68.5617C178.69 68.5019 179.071 68.9282 179.169 69.5117Z" fill="#263238"/>
<path d="M178.48 68.5692L176.984 68.3897C176.984 68.3897 177.912 69.3696 178.48 68.5692Z" fill="#263238"/>
<path d="M179.146 70.7085C178.833 72.119 178.33 73.4804 177.65 74.7552C177.979 74.9208 178.341 75.0121 178.709 75.0224C179.078 75.0328 179.444 74.962 179.782 74.815L179.146 70.7085Z" fill="#ED847E"/>
<path d="M177.314 66.4224C177.255 66.3871 177.209 66.3353 177.18 66.2736C177.152 66.2119 177.142 66.1431 177.152 66.0758C177.163 66.0085 177.193 65.9459 177.239 65.8957C177.285 65.8456 177.345 65.8102 177.411 65.7941C177.94 65.6442 178.498 65.6238 179.037 65.7344C179.576 65.845 180.08 66.0836 180.508 66.4299C180.572 66.4944 180.608 66.5819 180.608 66.673C180.608 66.7642 180.572 66.8516 180.508 66.9161C180.476 66.9489 180.438 66.975 180.397 66.9929C180.355 67.0107 180.31 67.0199 180.264 67.0199C180.219 67.0199 180.174 67.0107 180.132 66.9929C180.09 66.975 180.053 66.9489 180.021 66.9161C179.679 66.6489 179.278 66.4663 178.852 66.3831C178.426 66.2999 177.986 66.3185 177.568 66.4374C177.484 66.4659 177.393 66.4606 177.314 66.4224Z" fill="#263238"/>
<path d="M198.1 65.5174C198.803 72.7356 199.252 75.7799 196.29 80.0136C191.84 86.3791 182.983 85.6236 180.178 78.7495C177.658 72.5635 176.932 61.7998 183.342 57.8653C189.753 53.9308 197.397 58.2992 198.1 65.5174Z" fill="#FFC3BD"/>
<path d="M183.26 70.0428C180.635 70.4242 179.52 66.415 180.418 64.6497C177.321 64.5524 176.783 61.7549 177.785 59.6979C178.787 57.6409 181.293 53.0781 190.314 54.4619C199.335 55.8457 202.282 63.6922 201.496 66.9909C200.711 70.2896 202.327 79.5648 193.897 81.0907C185.467 82.6166 180.336 74.2615 183.26 70.0428Z" fill="#263238"/>
<path d="M213.591 87.9125C208.984 83.4245 191.548 85.6685 178.862 89.7077C166.176 93.7469 169.34 106.478 170.439 115.349C171.539 124.22 178.174 186.828 185.788 209.597C204.279 209.829 232.516 203.613 240.355 199.566C237.281 191.413 220.787 127.99 218.079 111.302C216.763 103.164 218.453 92.6249 213.591 87.9125Z" fill="#FF2156"/>
<path opacity="0.6" d="M213.591 87.9125C208.984 83.4245 191.548 85.6685 178.862 89.7077C166.176 93.7469 169.34 106.478 170.439 115.349C171.539 124.22 178.174 186.828 185.788 209.597C204.279 209.829 232.516 203.613 240.355 199.566C237.281 191.413 220.787 127.99 218.079 111.302C216.763 103.164 218.453 92.6249 213.591 87.9125Z" fill="white"/>
<path opacity="0.5" d="M171.546 124.766C174.09 121.475 176.281 118.289 176.969 116.321C179.423 109.283 176.109 128.499 173.192 138.492C172.541 133.271 171.988 128.589 171.546 124.766Z" fill="#FF2156"/>
<path d="M150.49 128.94L153.153 131.633C154.582 135.568 148.987 137.737 148.987 137.737L146.474 139.861C146.098 140.214 145.602 140.41 145.086 140.41C144.57 140.41 144.074 140.214 143.698 139.861L141.828 137.991C141.413 137.544 141.181 136.956 141.181 136.345C141.181 135.735 141.413 135.147 141.828 134.7L143.773 132.546C144.319 131.929 144.99 131.434 145.741 131.094L150.49 128.94Z" fill="#FF2156"/>
<path d="M151.567 128.656C148.575 127.347 145.838 129.658 143.339 130.848C142.913 131.05 142.771 132.276 143.519 132.411C144.001 132.526 144.501 132.545 144.99 132.465C145.48 132.386 145.948 132.21 146.369 131.947C146.997 132.755 149.608 134.124 152.211 131.76C152.413 130.681 152.182 129.566 151.567 128.656Z" fill="#FF2156"/>
<path d="M186.955 101.421L186.589 103.157L186.192 104.795C185.923 105.879 185.639 106.957 185.355 108.026C184.756 110.173 184.105 112.312 183.38 114.437C182.654 116.561 181.884 118.678 180.994 120.795C180.567 121.857 180.089 122.919 179.61 123.974L178.862 125.559L178.406 126.479C178.204 126.891 177.979 127.28 177.747 127.669C175.854 130.793 173.036 133.253 169.684 134.707L169.37 134.842L169.138 134.932L168.689 135.096L167.784 135.418L166.019 135.971L164.298 136.45L162.6 136.862C160.356 137.37 158.112 137.759 155.913 138.066C154.806 138.215 153.707 138.343 152.6 138.462C151.493 138.582 150.416 138.672 149.219 138.739L147.356 127.826L150.199 126.928C151.164 126.621 152.121 126.292 153.071 125.963C154.971 125.32 156.811 124.647 158.629 123.929L159.945 123.383L161.217 122.829L162.413 122.246L162.959 121.946L163.244 121.804L163.371 121.737L163.416 121.7C163.895 121.311 164.251 120.791 164.441 120.204C164.441 120.129 164.485 120.062 164.5 119.987V119.934L164.553 119.785L164.665 119.456L165.129 118.124C165.42 117.212 165.727 116.322 166.004 115.387C166.565 113.539 167.081 111.647 167.575 109.717C168.068 107.787 168.532 105.864 168.966 103.912C169.19 102.94 169.407 101.967 169.609 100.995L170.185 98.175L186.955 101.421Z" fill="#FF2156"/>
<g opacity="0.6">
<path opacity="0.6" d="M186.955 101.421L186.589 103.157L186.192 104.795C185.923 105.879 185.639 106.957 185.355 108.026C184.756 110.173 184.105 112.312 183.38 114.437C182.654 116.561 181.884 118.678 180.994 120.795C180.567 121.857 180.089 122.919 179.61 123.974L178.862 125.559L178.406 126.479C178.204 126.891 177.979 127.28 177.747 127.669C175.854 130.793 173.036 133.253 169.684 134.707L169.37 134.842L169.138 134.932L168.689 135.096L167.784 135.418L166.019 135.971L164.298 136.45L162.6 136.862C160.356 137.37 158.112 137.759 155.913 138.066C154.806 138.215 153.707 138.343 152.6 138.462C151.493 138.582 150.416 138.672 149.219 138.739L147.356 127.826L150.199 126.928C151.164 126.621 152.121 126.292 153.071 125.963C154.971 125.32 156.811 124.647 158.629 123.929L159.945 123.383L161.217 122.829L162.413 122.246L162.959 121.946L163.244 121.804L163.371 121.737L163.416 121.7C163.895 121.311 164.251 120.791 164.441 120.204C164.441 120.129 164.485 120.062 164.5 119.987V119.934L164.553 119.785L164.665 119.456L165.129 118.124C165.42 117.212 165.727 116.322 166.004 115.387C166.565 113.539 167.081 111.647 167.575 109.717C168.068 107.787 168.532 105.864 168.966 103.912C169.19 102.94 169.407 101.967 169.609 100.995L170.185 98.175L186.955 101.421Z" fill="white"/>
</g>
<path opacity="0.5" d="M199.095 131.843C199.095 131.843 211.407 130.115 215.028 127.743C210.644 131.581 204.713 132.396 199.095 131.843Z" fill="#FF2156"/>
<path opacity="0.5" d="M200.464 133.226C200.464 133.226 209.507 133.294 212.357 131.947C208.804 134.288 204.443 134.244 200.464 133.226Z" fill="#FF2156"/>
<path d="M178.48 71.7631C177.605 74.1119 176.64 76.685 177.291 79.5349C177.942 82.3847 180.837 83.8807 185.31 83.8433C184.831 81.9808 182.804 80.8513 181.196 77.9865C179.587 75.1217 181.196 68.629 181.196 68.629L180.635 68.1428C179.972 69.7749 179.444 71.4585 179.056 73.1769C178.308 72.0549 178.48 71.7631 178.48 71.7631Z" fill="#FF2156"/>
<path opacity="0.3" d="M178.48 71.7631C177.605 74.1119 176.64 76.685 177.291 79.5349C177.942 82.3847 180.837 83.8807 185.31 83.8433C184.831 81.9808 182.804 80.8513 181.196 77.9865C179.587 75.1217 181.196 68.629 181.196 68.629L180.635 68.1428C179.972 69.7749 179.444 71.4585 179.056 73.1769C178.308 72.0549 178.48 71.7631 178.48 71.7631Z" fill="white"/>
<path d="M185.25 71.9576C185.159 72.6469 184.917 73.3074 184.54 73.8919C184.164 74.4765 183.663 74.9705 183.073 75.3386C181.577 76.139 180.373 74.3213 180.38 72.2419C180.38 70.3644 181.128 67.694 182.834 67.7539C184.539 67.8137 185.594 70.0577 185.25 71.9576Z" fill="#FFC3BD"/>
<path d="M177.403 60.6778C177.919 64.0587 181.712 73.6706 187.486 77.4928C192.722 80.9785 198.175 81.3974 199.941 77.62C199.941 77.62 206.403 79.8116 207.944 67.4023C209.268 56.7957 201.579 49.2633 193.231 47.9543C185.639 46.7725 170.716 50.2507 177.403 60.6778Z" fill="#DBDBDB"/>
<path opacity="0.2" d="M178.069 60.9845C178.069 60.9845 183.926 71.9127 199.297 77.1113C190.321 76.3185 183.096 69.4219 178.069 60.9845Z" fill="black"/>
</svg>
