<svg width="251" height="37" viewBox="0 0 251 37" fill="none" xmlns="http://www.w3.org/2000/svg">
<path d="M239.5 4.21173C240.466 6.37906 242.143 9.852 245.713 13.8893C247.94 16.4095 250 19.816 250 23.3276C250 29.0487 245.561 33 239.5 33C233.439 33 229 29.0512 229 23.3276C229 19.9583 231.065 16.4037 233.287 13.8891C236.857 9.85188 238.534 6.37902 239.5 4.21173Z" stroke="#FF2156" stroke-width="2"/>
<path d="M240.517 24.3439L240.517 24.3439C241.136 23.2873 241.456 22.2333 241.692 21.4559C241.733 21.3206 241.771 21.1937 241.808 21.0766C241.943 20.6512 242.041 20.4207 242.129 20.3109C242.134 20.3043 242.139 20.299 242.143 20.2948C242.152 20.2971 242.165 20.301 242.183 20.3076C242.748 20.5248 243.454 21.26 243.947 22.3363C244.431 23.392 244.659 24.6693 244.382 25.8605C244.183 26.7145 243.774 27.3536 243.26 27.7203C242.759 28.0783 242.115 28.2092 241.352 27.9788L241.351 27.9788C240.779 27.8062 240.311 27.3662 240.109 26.7502C239.907 26.1384 239.955 25.305 240.517 24.3439ZM242.123 20.2917C242.123 20.2916 242.124 20.2916 242.125 20.2917C242.124 20.2918 242.123 20.2917 242.123 20.2917Z" stroke="#FF2156"/>
<path d="M5.79995 30H19.2677C20.0756 30.0004 20.874 29.8231 21.608 29.4801C22.342 29.1372 22.9941 28.6368 23.5195 28.0133L30.6622 19.549C30.8117 19.372 30.9162 19.1605 30.9663 18.9329C31.0164 18.7053 31.0106 18.4687 30.9495 18.2439C30.8883 18.0191 30.7737 17.813 30.6157 17.6438C30.4577 17.4746 30.2611 17.3475 30.0434 17.2736L27.2882 16.3407C26.6223 16.1209 25.9133 16.0711 25.224 16.1959C24.5347 16.3206 23.8862 16.6161 23.3361 17.056L18.8771 20.6781L18.0134 18.9218C17.5506 17.9751 16.8361 17.1789 15.9508 16.6235C15.0655 16.068 14.0448 15.7755 13.0042 15.779H5.79995C4.25578 15.779 3 17.0546 3 18.6232V27.1558C3 28.7244 4.25578 30 5.79995 30ZM5.79995 18.6232H13.0042C14.0724 18.6232 15.0314 19.2247 15.5088 20.1946L16.1346 21.4674H9.99989V24.3116H18.4194C18.6347 24.3087 18.8465 24.2552 19.0381 24.1552L19.0423 24.1537L19.0479 24.1509H19.0521L19.0549 24.1495H19.0605L19.0619 24.1481C19.0773 24.1523 19.0661 24.1466 19.0661 24.1466C19.0829 24.1466 19.0689 24.1452 19.0689 24.1452H19.0703L19.0731 24.1438L19.0773 24.1424L19.0801 24.1409L19.0829 24.1395L19.0871 24.1381L19.0899 24.1367L19.0927 24.1353L19.0969 24.1324L19.0997 24.131L19.1025 24.1296L19.1067 24.1281L19.1095 24.1267H19.1109L19.1137 24.1253H19.1151L19.1179 24.1239L19.1207 24.1225C19.1361 24.121 19.1249 24.121 19.1249 24.121L19.1277 24.1196C19.1817 24.0865 19.2332 24.0495 19.2817 24.0087L25.086 19.2916C25.4514 18.9958 25.9582 18.9034 26.402 19.0541L27.1818 19.3186L21.3957 26.1774C21.1295 26.4844 20.8022 26.7304 20.4353 26.8991C20.0684 27.0677 19.6704 27.1553 19.2677 27.1558H5.79995V18.6232ZM19.4651 3.4437C18.8197 4.16328 15.5998 7.89629 15.5998 10.8016C15.5998 13.5463 17.7978 15.779 20.4997 15.779C23.2017 15.779 25.3996 13.5463 25.3996 10.8016C25.3996 7.89629 22.1797 4.16328 21.5343 3.4437C21.0037 2.8521 19.9957 2.8521 19.4651 3.4437ZM22.5997 10.8016C22.5997 11.9777 21.6575 12.9348 20.4997 12.9348C19.3419 12.9348 18.3998 11.9777 18.3998 10.8016C18.3998 9.7948 19.4329 8.0513 20.4997 6.6292C21.5665 8.0513 22.5997 9.7948 22.5997 10.8016Z" fill="#FF2156"/>
</svg>
