<svg width="231" height="258" viewBox="0 0 231 258" fill="none" xmlns="http://www.w3.org/2000/svg">
<path d="M196.836 139.469L155.25 123.745C154.567 123.487 153.941 123.096 153.409 122.596C152.877 122.096 152.449 121.496 152.149 120.83C151.849 120.164 151.683 119.445 151.661 118.715C151.639 117.985 151.76 117.258 152.02 116.575L173.782 59.0194C174.303 57.6395 175.352 56.5234 176.697 55.9166C178.041 55.3097 179.572 55.2617 180.952 55.7831L207.328 65.755L219.782 94.5156L204.006 136.256C203.48 137.631 202.429 138.742 201.085 139.345C199.741 139.947 198.213 139.992 196.836 139.469Z" fill="#F5F5F5"/>
<path d="M207.328 65.7549L201.199 81.9535C200.958 82.5891 200.845 83.2659 200.866 83.9453C200.886 84.6246 201.041 85.2932 201.32 85.9129C201.6 86.5325 201.998 87.0911 202.493 87.5566C202.989 88.0222 203.571 88.3856 204.206 88.6262L219.782 94.5156L207.328 65.7549Z" fill="#EBEBEB"/>
<path d="M200.873 83.4574C200.873 83.4574 199.186 87.3112 203.16 90.3187C203.31 90.4309 203.466 90.534 203.629 90.6275C205.527 91.7711 218.015 99.2042 218.129 98.9012L219.776 94.5442L204.201 88.6549C204.201 88.6549 200.37 87.0253 200.873 83.4574Z" fill="#E0E0E0"/>
<path d="M197.963 79.9751C197.883 80.1867 193.514 78.7229 188.202 76.716C182.89 74.709 178.648 72.9079 178.728 72.7135C178.808 72.5191 183.176 73.9657 188.488 75.9727C193.8 77.9796 198.043 79.7522 197.963 79.9751Z" fill="#E0E0E0"/>
<path d="M206.922 93.8352C206.842 94.041 199.695 91.548 190.952 88.226C182.21 84.9039 175.183 82.0679 175.263 81.8563C175.343 81.6448 182.49 84.1434 191.238 87.4712C199.987 90.799 206.985 93.6236 206.922 93.8352Z" fill="#E0E0E0"/>
<path d="M206.882 102.561C206.802 102.766 199.014 100.016 189.482 96.4082C179.951 92.8002 172.289 89.7126 172.369 89.5068C172.449 89.3009 180.237 92.0512 189.768 95.6592C199.3 99.2671 206.985 102.349 206.882 102.561Z" fill="#E0E0E0"/>
<path d="M204.155 109.776C204.075 109.982 196.287 107.232 186.755 103.624C177.224 100.016 169.562 96.9056 169.642 96.7226C169.722 96.5397 177.51 99.2671 187.041 102.869C196.573 106.472 204.235 109.565 204.155 109.776Z" fill="#E0E0E0"/>
<path d="M201.427 116.992C201.347 117.198 193.554 114.448 184.028 110.84C174.502 107.232 166.835 104.144 166.909 103.939C166.983 103.733 174.777 106.483 184.314 110.085C193.851 113.687 201.502 116.781 201.427 116.992Z" fill="#E0E0E0"/>
<path d="M198.694 124.208C198.62 124.414 190.826 121.658 181.301 118.056C171.775 114.454 164.101 111.36 164.181 111.154C164.262 110.949 172.049 113.699 181.581 117.301C191.112 120.903 198.774 123.997 198.694 124.208Z" fill="#E0E0E0"/>
<path d="M58.1881 79.7163L3.3652 98.915C1.46967 99.5788 0.471155 101.654 1.13496 103.549L28.6413 182.095C29.3051 183.99 31.3799 184.989 33.2754 184.325L88.0983 165.126C89.9938 164.463 90.9924 162.388 90.3286 160.492L62.8222 81.9465C62.1584 80.051 60.0836 79.0525 58.1881 79.7163Z" fill="#EBEBEB"/>
<path d="M58.8906 84.5984L5.85931 103.17L33.1219 181.019L86.1531 162.448L58.8906 84.5984Z" fill="#E0E0E0"/>
<path d="M57.9418 84.2322L4.91054 102.803L31.6534 179.169L84.6847 160.598L57.9418 84.2322Z" fill="#FAFAFA"/>
<path d="M84.675 160.596L57.8641 84.2578L57.9613 84.3035L4.93994 102.881L4.9914 102.778C14.9862 131.458 24.2891 157.949 31.7165 179.145L31.6307 179.105L84.6807 160.596L31.6708 179.242H31.6079V179.179C24.1747 157.983 14.9004 131.493 4.84846 102.818V102.738H4.92279L57.9499 84.1777H58.0242V84.2463L84.675 160.596Z" fill="#E0E0E0"/>
<path d="M65.8694 167.183C65.8694 167.183 77.6767 157.223 79.7237 146.851C78.5389 148.495 77.0334 149.882 75.2979 150.929C73.5625 151.975 71.6331 152.66 69.626 152.94C69.626 152.94 69.3916 163.804 65.8694 167.183Z" fill="#E0E0E0"/>
<path d="M23.0337 119.82L20.2437 120.797C19.2244 121.154 18.6875 122.269 19.0445 123.288L20.0215 126.078C20.3784 127.098 21.4941 127.635 22.5134 127.278L25.3034 126.301C26.3227 125.944 26.8596 124.828 26.5027 123.809L25.5256 121.019C25.1687 120 24.053 119.463 23.0337 119.82Z" fill="#EBEBEB"/>
<path d="M22.6939 124.626C22.6745 124.636 22.6529 124.641 22.631 124.641C22.6092 124.641 22.5876 124.636 22.5681 124.626L21.2873 123.882C21.2563 123.859 21.235 123.824 21.2274 123.786C21.2199 123.748 21.2266 123.708 21.2462 123.674C21.2659 123.641 21.2972 123.615 21.3342 123.603C21.3713 123.591 21.4116 123.593 21.4474 123.608L22.591 124.26L23.9404 121.401C23.9601 121.363 23.9933 121.333 24.0335 121.319C24.0737 121.304 24.118 121.305 24.1577 121.321C24.1771 121.33 24.1944 121.343 24.2087 121.359C24.2229 121.375 24.2338 121.393 24.2408 121.414C24.2477 121.434 24.2505 121.455 24.249 121.477C24.2475 121.498 24.2417 121.519 24.232 121.538L22.8083 124.58C22.7936 124.595 22.7758 124.607 22.7561 124.615C22.7363 124.623 22.7152 124.627 22.6939 124.626Z" fill="white"/>
<path d="M59.3107 107.998C59.3107 108.044 52.4493 110.497 43.9355 113.476C35.4216 116.455 28.4973 118.833 28.4973 118.793C28.4973 118.753 35.3587 116.295 43.8783 113.316C52.3978 110.337 59.2992 107.958 59.3107 107.998Z" fill="#E0E0E0"/>
<path d="M43.1409 118.988C43.1409 118.988 42.9637 119.068 42.6435 119.194L41.2598 119.708C40.1162 120.131 38.4695 120.709 36.6855 121.338C34.9016 121.967 33.2548 122.527 32.1113 122.922L30.7104 123.385C30.5408 123.447 30.3669 123.497 30.1901 123.534C30.35 123.45 30.5163 123.379 30.6875 123.322L32.0712 122.813C33.2148 122.384 34.8615 121.807 36.6455 121.178C38.4294 120.549 40.0762 119.994 41.2197 119.594L42.6206 119.131C42.7896 119.068 42.9637 119.02 43.1409 118.988Z" fill="#E0E0E0"/>
<path d="M60.0374 110.102C60.0374 110.142 53.176 112.595 44.6564 115.574C36.1369 118.553 29.2183 120.938 29.2183 120.892C29.2183 120.846 36.0797 118.399 44.605 115.42C53.1303 112.441 60.0374 110.057 60.0374 110.102Z" fill="#E0E0E0"/>
<path d="M27.0165 131.197L24.2265 132.174C23.2072 132.531 22.6703 133.646 23.0272 134.666L24.0043 137.456C24.3612 138.475 25.4769 139.012 26.4962 138.655L29.2862 137.678C30.3055 137.321 30.8424 136.205 30.4855 135.186L29.5084 132.396C29.1515 131.377 28.0358 130.84 27.0165 131.197Z" fill="#EBEBEB"/>
<path d="M26.6792 136.004C26.6587 136.014 26.6362 136.019 26.6134 136.019C26.5906 136.019 26.5681 136.014 26.5477 136.004L25.2726 135.261C25.2541 135.251 25.2379 135.237 25.2249 135.22C25.2119 135.204 25.2025 135.185 25.1971 135.165C25.1918 135.144 25.1906 135.123 25.1938 135.102C25.1969 135.081 25.2043 135.061 25.2154 135.044C25.2255 135.025 25.2392 135.009 25.2558 134.996C25.2723 134.983 25.2914 134.973 25.3117 134.968C25.3321 134.963 25.3533 134.962 25.3741 134.965C25.3949 134.968 25.4148 134.975 25.4327 134.986L26.5763 135.638L27.9257 132.751C27.9442 132.713 27.9764 132.684 28.0157 132.669C28.0549 132.654 28.0984 132.655 28.1372 132.671C28.1759 132.688 28.206 132.72 28.221 132.76C28.236 132.8 28.2347 132.844 28.2173 132.882L26.7935 135.93C26.7808 135.95 26.7641 135.966 26.7444 135.979C26.7246 135.992 26.7024 136.001 26.6792 136.004Z" fill="white"/>
<path d="M63.2962 119.377C63.2962 119.422 56.4349 121.87 47.9153 124.854C39.3958 127.839 32.4772 130.212 32.4772 130.172C32.4772 130.132 39.3386 127.673 47.8581 124.694C56.3777 121.715 63.2848 119.337 63.2962 119.377Z" fill="#E0E0E0"/>
<path d="M47.1262 130.366C47.1262 130.366 46.9489 130.446 46.623 130.572L45.245 131.087C44.1014 131.51 42.4547 132.087 40.6707 132.716C38.8868 133.345 37.24 133.906 36.0965 134.3L34.6956 134.763C34.526 134.826 34.3521 134.875 34.1753 134.912C34.3345 134.827 34.501 134.756 34.6727 134.701L36.0565 134.192C37.2 133.763 38.8468 133.185 40.6307 132.556C42.4147 131.927 44.0614 131.373 45.205 130.972L46.6058 130.509C46.7748 130.447 46.9489 130.399 47.1262 130.366Z" fill="#E0E0E0"/>
<path d="M64.0397 121.492C64.0397 121.532 57.1783 123.985 48.6588 126.964C40.1392 129.943 33.2207 132.327 33.2207 132.282C33.2207 132.236 40.082 129.789 48.6016 126.81C57.1212 123.831 64.0397 121.435 64.0397 121.492Z" fill="#E0E0E0"/>
<path d="M31.0051 142.574L28.2152 143.551C27.1959 143.908 26.6589 145.024 27.0159 146.043L27.9929 148.833C28.3499 149.852 29.4655 150.389 30.4848 150.032L33.2748 149.055C34.2941 148.698 34.8311 147.583 34.4741 146.563L33.4971 143.773C33.1401 142.754 32.0244 142.217 31.0051 142.574Z" fill="#EBEBEB"/>
<path d="M30.6647 147.383C30.6443 147.393 30.6218 147.398 30.599 147.398C30.5762 147.398 30.5537 147.393 30.5332 147.383L29.2524 146.651C29.2316 146.642 29.2128 146.629 29.1975 146.612C29.1821 146.595 29.1705 146.575 29.1634 146.554C29.1562 146.532 29.1538 146.509 29.1561 146.487C29.1585 146.464 29.1656 146.442 29.1771 146.423C29.1885 146.403 29.204 146.386 29.2225 146.373C29.241 146.36 29.262 146.351 29.2843 146.346C29.3066 146.342 29.3295 146.342 29.3516 146.348C29.3737 146.353 29.3945 146.362 29.4125 146.376L30.5561 147.028L31.9055 144.141C31.9135 144.121 31.9255 144.102 31.9408 144.087C31.956 144.072 31.9742 144.06 31.9943 144.051C32.0143 144.043 32.0358 144.039 32.0574 144.04C32.079 144.04 32.1003 144.045 32.12 144.054C32.1397 144.063 32.1574 144.076 32.172 144.092C32.1867 144.108 32.1979 144.126 32.2051 144.147C32.2123 144.167 32.2153 144.189 32.214 144.21C32.2126 144.232 32.2068 144.253 32.1971 144.272L30.7734 147.32C30.7454 147.352 30.7071 147.375 30.6647 147.383Z" fill="white"/>
<path d="M67.2815 130.755C67.2815 130.801 60.4201 133.248 51.9005 136.233C43.381 139.218 36.4624 141.59 36.4624 141.545C36.4624 141.499 43.3238 139.052 51.8491 136.073C60.3743 133.094 67.2643 130.715 67.2815 130.755Z" fill="#E0E0E0"/>
<path d="M51.1117 141.739C50.9495 141.822 50.7813 141.893 50.6086 141.951L49.2248 142.465C48.0813 142.888 46.4403 143.466 44.6506 144.095C42.8609 144.724 41.2199 145.278 40.0763 145.679L38.6755 146.142C38.5056 146.203 38.3318 146.253 38.1551 146.29C38.3144 146.205 38.4808 146.134 38.6526 146.079L40.0363 145.564C41.1799 145.141 42.8266 144.564 44.6106 143.935C46.3945 143.306 48.0413 142.751 49.1848 142.351L50.58 141.888C50.7543 141.828 50.9318 141.779 51.1117 141.739Z" fill="#E0E0E0"/>
<path d="M68.0421 132.859C68.0421 132.899 61.1807 135.352 52.6611 138.331C44.1416 141.31 37.223 143.695 37.223 143.649C37.223 143.603 44.0844 141.156 52.6039 138.171C61.1235 135.186 68.002 132.814 68.0421 132.859Z" fill="#E0E0E0"/>
<path d="M34.9879 153.951L32.1979 154.928C31.1787 155.285 30.6417 156.401 30.9987 157.42L31.9757 160.21C32.3327 161.23 33.4483 161.767 34.4676 161.41L37.2576 160.433C38.2769 160.076 38.8138 158.96 38.4569 157.941L37.4798 155.151C37.1229 154.131 36.0072 153.594 34.9879 153.951Z" fill="#EBEBEB"/>
<path d="M34.6441 158.761C34.6242 158.77 34.6028 158.774 34.5812 158.774C34.5595 158.774 34.5381 158.77 34.5183 158.761L33.2375 158.018C33.2011 157.996 33.1749 157.96 33.1647 157.919C33.1545 157.878 33.1612 157.834 33.1832 157.798C33.2051 157.761 33.2407 157.735 33.282 157.725C33.3233 157.715 33.3669 157.721 33.4033 157.743L34.5468 158.395L35.8963 155.536C35.9137 155.498 35.9458 155.467 35.9855 155.452C36.0251 155.437 36.0691 155.439 36.1078 155.456C36.1455 155.475 36.1747 155.507 36.1895 155.546C36.2044 155.585 36.2038 155.629 36.1879 155.668L34.7584 158.715C34.7276 158.745 34.6866 158.761 34.6441 158.761Z" fill="white"/>
<path d="M71.2667 142.134C71.2667 142.179 64.4053 144.627 55.8858 147.606C47.3662 150.585 40.4476 152.969 40.4476 152.923C40.4476 152.877 47.309 150.43 55.8286 147.451C64.3481 144.472 71.2495 142.076 71.2667 142.134Z" fill="#E0E0E0"/>
<path d="M55.0912 153.118C54.932 153.203 54.7656 153.273 54.5938 153.329L53.2101 153.844C52.0665 154.267 50.4198 154.844 48.6358 155.473C46.8519 156.102 45.2051 156.657 44.0616 157.057L42.6607 157.52C42.3291 157.623 42.1404 157.675 42.1404 157.669C42.2996 157.584 42.4661 157.513 42.6378 157.457L44.0215 156.943C45.1651 156.52 46.8118 155.942 48.5958 155.313C50.3798 154.684 52.0265 154.13 53.1701 153.729L54.5709 153.266C54.7408 153.205 54.9146 153.155 55.0912 153.118Z" fill="#E0E0E0"/>
<path d="M72.0043 144.238C72.0043 144.278 65.1429 146.731 56.6234 149.71C48.1038 152.689 41.1853 155.067 41.1853 155.027C41.1853 154.987 48.0466 152.534 56.5662 149.55C65.0857 146.565 71.9872 144.192 72.0043 144.238Z" fill="#E0E0E0"/>
<path d="M10.9155 95.3619L12.3107 99.3643C12.7009 100.479 13.5175 101.392 14.581 101.905C15.6446 102.417 16.8681 102.487 17.9827 102.097L47.3152 91.8054C47.8666 91.6129 48.3747 91.3135 48.8103 90.9244C49.2459 90.5353 49.6006 90.0641 49.8539 89.5378C50.1072 89.0115 50.2543 88.4404 50.2866 87.8572C50.319 87.274 50.2361 86.6901 50.0426 86.139L48.6474 82.1365L10.9155 95.3619Z" fill="#E0E0E0"/>
<path d="M30.1731 89.9413C29.3939 90.2155 28.5509 90.2523 27.7508 90.047C26.9506 89.8418 26.2294 89.4038 25.6783 88.7884C25.1273 88.1731 24.7712 87.408 24.6552 86.5902C24.5391 85.7724 24.6684 84.9385 25.0265 84.1941C25.3847 83.4498 25.9556 82.8284 26.6671 82.4087C27.3786 81.9891 28.1986 81.7899 29.0233 81.8365C29.848 81.8831 30.6404 82.1734 31.3 82.6706C31.9597 83.1678 32.457 83.8495 32.729 84.6294C33.0929 85.6728 33.0282 86.8179 32.5491 87.8137C32.0699 88.8094 31.2155 89.5745 30.1731 89.9413ZM27.9432 83.5774C27.4626 83.7452 27.0426 84.0517 26.7363 84.4583C26.43 84.8648 26.2512 85.3531 26.2224 85.8613C26.1937 86.3695 26.3163 86.8749 26.5748 87.3134C26.8334 87.7518 27.2161 88.1038 27.6748 88.3247C28.1334 88.5456 28.6472 88.6255 29.1512 88.5543C29.6552 88.4831 30.1268 88.264 30.5063 87.9248C30.8858 87.5855 31.1561 87.1413 31.283 86.6483C31.41 86.1554 31.3879 85.6359 31.2195 85.1555C30.994 84.512 30.5222 83.9844 29.9079 83.6885C29.2936 83.3926 28.587 83.3526 27.9432 83.5774Z" fill="#E0E0E0"/>
<path d="M53.6159 100.336C53.6159 100.411 45.9082 103.195 36.3423 106.54C26.7764 109.885 19.0002 112.544 18.9716 112.47C18.943 112.395 26.6792 109.611 36.2451 106.266C45.811 102.921 53.5873 100.239 53.6159 100.336Z" fill="#E0E0E0"/>
<path d="M43.707 101.737C43.707 101.812 40.3335 103.075 36.108 104.556C31.8825 106.037 28.4347 107.198 28.4061 107.095C28.3775 106.992 31.7853 105.757 36.0108 104.276C40.2363 102.795 43.6841 101.663 43.707 101.737Z" fill="#E0E0E0"/>
<path d="M196.122 217.597C198.227 216.609 200.594 216.322 202.875 216.78C204.098 216.98 205.379 217.352 206.208 218.266C207.037 219.181 207.203 220.805 206.243 221.594C205.622 222.016 204.873 222.204 204.127 222.126C202.337 222.126 200.359 221.789 198.935 222.864C198.118 223.475 197.58 224.493 196.608 224.796C196.119 224.91 195.606 224.86 195.148 224.653C194.69 224.447 194.313 224.095 194.075 223.653C193.613 222.758 193.511 221.721 193.789 220.754C193.909 220.084 194.182 219.45 194.587 218.903C194.991 218.355 195.517 217.909 196.122 217.597Z" fill="#FF2156"/>
<path d="M191.388 208.517C192.646 210.307 195.087 209.718 196.219 208.62C197.352 207.523 197.826 205.939 198.261 204.429C199.256 200.97 200.262 197.345 199.524 193.823C199.341 192.764 198.872 191.776 198.169 190.964C197.811 190.561 197.353 190.259 196.841 190.088C196.329 189.918 195.782 189.884 195.253 189.992C194.018 190.318 193.258 191.524 192.703 192.668C191.072 196.058 190.219 199.769 190.204 203.532C190.204 205.281 190.404 207.111 191.388 208.558" fill="#FF2156"/>
<path d="M187.94 211.09C188.586 210.247 189.017 209.259 189.194 208.212C189.371 207.165 189.29 206.09 188.958 205.081C188.267 203.072 187.036 201.292 185.401 199.935C183.542 198.281 181.379 197.005 179.032 196.178C178.125 195.812 177.15 195.646 176.173 195.692C175.684 195.72 175.21 195.867 174.792 196.12C174.373 196.373 174.023 196.725 173.771 197.145C173.097 198.426 173.771 199.975 174.435 201.239C175.659 203.47 177.058 205.599 178.62 207.608C179.872 209.226 181.307 210.822 183.223 211.554C185.138 212.286 187.117 212.194 188.129 210.873" fill="#FF2156"/>
<path d="M191.307 235.568C191.37 235.302 191.407 235.03 191.416 234.757C191.479 234.185 191.548 233.419 191.633 232.532C191.743 231.436 191.911 230.346 192.137 229.267C192.427 227.955 192.823 226.668 193.32 225.419C193.808 224.172 194.471 222.999 195.287 221.937C195.952 221.071 196.802 220.364 197.774 219.867C198.433 219.54 199.139 219.32 199.867 219.216C200.141 219.206 200.413 219.167 200.679 219.101C200.403 219.071 200.125 219.071 199.85 219.101C199.096 219.162 198.358 219.356 197.671 219.673C196.647 220.154 195.749 220.867 195.047 221.754C194.197 222.833 193.511 224.032 193.011 225.311C192.504 226.577 192.11 227.886 191.833 229.222C191.623 230.314 191.478 231.417 191.399 232.527C191.325 233.47 191.302 234.242 191.29 234.762C191.264 235.031 191.27 235.301 191.307 235.568Z" fill="#263238" fill-opacity="0.5"/>
<path d="M191.457 233.859C191.474 233.734 191.474 233.607 191.457 233.481V232.418C191.457 231.48 191.457 230.131 191.503 228.415C191.588 225.059 191.874 221.451 192.435 216.362C192.961 211.576 193.67 206.007 194.419 202.388C194.579 201.565 194.739 200.821 194.893 200.175C195.048 199.529 195.162 198.963 195.282 198.511C195.402 198.06 195.465 197.734 195.534 197.459C195.565 197.335 195.588 197.209 195.602 197.082C195.545 197.195 195.501 197.313 195.471 197.436C195.385 197.711 195.282 198.054 195.156 198.477C195.03 198.9 194.87 199.483 194.71 200.129C194.55 200.776 194.361 201.513 194.184 202.336C193.268 206.624 192.579 210.956 192.12 215.316C191.548 220.416 191.308 225.036 191.291 228.421C191.291 230.102 191.291 231.463 191.348 232.424C191.348 232.864 191.394 233.224 191.411 233.504C191.416 233.624 191.431 233.742 191.457 233.859Z" fill="#263238" fill-opacity="0.5"/>
<path d="M191.479 224.905C191.511 224.524 191.511 224.142 191.479 223.761C191.414 222.736 191.298 221.715 191.131 220.702C190.885 219.198 190.553 217.708 190.136 216.242C189.652 214.437 189.029 212.673 188.272 210.965C186.978 207.816 185.124 204.927 182.8 202.439C182.395 202.014 181.963 201.615 181.507 201.244C181.313 201.073 181.136 200.907 180.936 200.776L180.438 200.432C180.139 200.203 179.819 200 179.483 199.826C180.581 200.684 181.622 201.612 182.6 202.605C184.854 205.11 186.66 207.984 187.94 211.102C188.681 212.8 189.308 214.546 189.815 216.328C190.246 217.78 190.599 219.253 190.873 220.742C191.108 222.017 191.245 223.029 191.325 223.773C191.349 224.153 191.4 224.532 191.479 224.905Z" fill="#263238" fill-opacity="0.5"/>
<path d="M182.822 240.703L183.72 252.996H199.518L200.41 240.703H182.822Z" fill="#263238" fill-opacity="0.5"/>
<path d="M202.303 235.854H181.302V240.703H202.303V235.854Z" fill="#263238" fill-opacity="0.5"/>
<path d="M181.302 252.528V253.865H182.285H201.949V252.528H181.302Z" fill="#455A64"/>
<path d="M183.252 256.233L182.285 253.866H201.2L200.068 256.233H183.252Z" fill="#455A64"/>
<path d="M200.124 244.717C200.124 244.717 200.124 244.763 200.05 244.831L199.816 245.146L198.895 246.324L198.855 246.375L198.815 246.318L196.557 243.196H196.694L194.464 246.347L194.395 246.444L194.315 246.352L191.679 243.208H191.828L191.685 243.391L189.323 246.347L189.249 246.45L189.175 246.347C188.374 245.203 187.625 244.151 186.945 243.196H187.076L184.338 246.318L184.286 246.375L184.246 246.312C183.886 245.706 183.6 245.22 183.388 244.871L183.171 244.488C183.142 244.446 183.119 244.4 183.102 244.351C183.102 244.351 183.137 244.385 183.194 244.471L183.44 244.843L184.338 246.255H184.252L186.951 243.093L187.019 243.013L187.082 243.099L189.329 246.238H189.175L191.548 243.282L191.696 243.099L191.771 243.002L191.845 243.093L194.481 246.244H194.332L196.579 243.105L196.642 243.013L196.711 243.105C197.597 244.38 198.358 245.46 198.924 246.267H198.838L199.799 245.123L200.056 244.826L200.124 244.717Z" fill="#E0E0E0"/>
<path d="M200.633 240.617C200.633 240.674 196.677 240.72 191.794 240.72C186.911 240.72 182.954 240.674 182.954 240.617C182.954 240.56 186.911 240.52 191.794 240.52C196.677 240.52 200.633 240.566 200.633 240.617Z" fill="#455A64"/>
<path d="M201.434 254.003C201.434 254.054 197.128 254.1 191.828 254.1C186.528 254.1 182.222 254.054 182.222 254.003C182.222 253.951 186.522 253.9 191.828 253.9C197.134 253.9 201.434 253.946 201.434 254.003Z" fill="#263238" fill-opacity="0.5"/>
<path d="M45.6294 214.779C45.5836 214.83 45.2234 214.613 44.8232 214.292C44.4229 213.972 44.1313 213.669 44.1771 213.612C44.2228 213.555 44.5773 213.778 44.9776 214.098C45.3778 214.418 45.6694 214.721 45.6294 214.779Z" fill="#263238" fill-opacity="0.5"/>
<path d="M56.6076 198.403C56.7633 196.877 56.6373 195.337 56.236 193.857C55.7557 192.399 54.635 191.067 53.1369 190.752C51.4215 190.398 49.6719 191.478 48.7113 192.942C47.7507 194.406 47.4248 196.178 47.1389 197.899C45.1881 209.792 44.4696 221.853 44.9947 233.893L51.9933 234.877C55.0409 222.315 56.0358 211.331 56.6076 198.403Z" fill="#455A64"/>
<path d="M52.1361 190.678L52.1017 190.792L51.9874 191.107L51.5185 192.319C51.4213 192.582 51.2898 192.891 51.1869 193.194L50.8495 194.251L50.455 195.469L50.0948 196.859C49.5073 199.154 49.0548 201.481 48.7397 203.829C48.3623 206.459 48.1164 209.375 47.9163 212.44C47.5618 218.575 47.5046 224.144 47.3445 228.17C47.2702 230.188 47.2016 231.818 47.1272 232.938C47.0872 233.51 47.0586 233.916 47.0358 234.236C47.0358 234.368 47.0358 234.482 47.0358 234.568C47.0358 234.654 47.0358 234.682 47.0358 234.682C47.0358 234.682 47.0358 234.648 47.0358 234.568C47.0358 234.488 47.0358 234.368 47.0358 234.231C47.0358 233.916 47.0358 233.481 47.0758 232.933C47.1215 231.789 47.1616 230.182 47.213 228.164C47.3274 224.161 47.356 218.569 47.7162 212.428C47.9106 209.358 48.1679 206.436 48.5567 203.795C48.8846 201.454 49.3563 199.136 49.969 196.853L50.3464 195.464C50.495 195.037 50.6323 194.631 50.7581 194.246L51.124 193.188C51.2326 192.868 51.3699 192.582 51.4728 192.319L51.9874 191.13C52.0408 191.004 52.0865 190.901 52.1246 190.821C52.1205 190.773 52.1244 190.725 52.1361 190.678Z" fill="#263238" fill-opacity="0.5"/>
<path d="M52.782 190.706C53.1468 191.137 53.4367 191.626 53.6397 192.153C54.1748 193.599 54.3913 195.144 54.2744 196.682C54.0914 200.553 53.7426 205.882 53.2852 211.771C52.8278 217.66 52.3074 222.978 51.8957 226.826C51.6842 228.747 51.5069 230.302 51.3754 231.4C51.3068 231.921 51.2554 232.332 51.2153 232.635L51.1696 232.955C51.1722 232.992 51.1722 233.028 51.1696 233.064C51.1696 233.064 51.1696 233.03 51.1696 232.955C51.1696 232.881 51.1696 232.761 51.1696 232.63C51.1696 232.326 51.2325 231.915 51.2782 231.389C51.3869 230.291 51.5355 228.741 51.7185 226.815C52.0844 222.961 52.5704 217.666 53.0336 211.754C53.4967 205.842 53.8684 200.541 54.0971 196.682C54.2216 195.162 54.0268 193.633 53.5253 192.193C53.322 191.677 53.0732 191.179 52.782 190.706Z" fill="#263238" fill-opacity="0.5"/>
<path d="M57.6371 208.826C57.1778 208.793 56.7284 208.677 56.3105 208.483C55.8663 208.368 55.4462 208.174 55.0698 207.911C55.5296 207.941 55.9796 208.058 56.3963 208.254C56.8409 208.369 57.2613 208.563 57.6371 208.826Z" fill="#263238" fill-opacity="0.5"/>
<path d="M58.4825 201.69C58.1033 201.993 57.6763 202.231 57.2189 202.394C56.794 202.629 56.3317 202.79 55.8523 202.868C56.6541 202.326 57.5441 201.928 58.4825 201.69Z" fill="#263238" fill-opacity="0.5"/>
<path d="M58.0424 195.864C57.3513 195.989 56.64 195.94 55.9726 195.721C56.3109 195.624 56.667 195.606 57.0132 195.67C57.3667 195.654 57.719 195.72 58.0424 195.864Z" fill="#263238" fill-opacity="0.5"/>
<path d="M50.8156 192.136C50.7585 192.17 50.4497 191.787 50.1352 191.284C49.9063 190.993 49.7443 190.655 49.6606 190.295C49.7178 190.26 50.0266 190.638 50.3468 191.147C50.667 191.656 50.89 192.096 50.8156 192.136Z" fill="#263238" fill-opacity="0.5"/>
<path d="M48.4308 195.658C48.1124 195.773 47.771 195.808 47.4359 195.761C47.099 195.793 46.7593 195.742 46.4467 195.612C46.7651 195.498 47.1066 195.463 47.4417 195.509C47.7786 195.477 48.1183 195.528 48.4308 195.658Z" fill="#263238" fill-opacity="0.5"/>
<path d="M46.7157 202.685C46.3497 202.671 45.9919 202.573 45.6693 202.399C45.3163 202.299 44.9901 202.121 44.7144 201.879C45.0804 201.894 45.4382 201.991 45.7608 202.165C46.1138 202.265 46.44 202.443 46.7157 202.685Z" fill="#263238" fill-opacity="0.5"/>
<path d="M46.5323 208.626C46.5323 208.695 46.1492 208.838 45.6403 208.941C45.1314 209.043 44.714 209.083 44.6969 209.015C44.6797 208.946 45.0857 208.803 45.5888 208.7C45.8923 208.598 46.2165 208.572 46.5323 208.626Z" fill="#263238" fill-opacity="0.5"/>
<path d="M45.7436 218.324C45.7436 218.392 45.3319 218.524 44.7944 218.621C44.4733 218.716 44.1338 218.732 43.8052 218.667C44.0937 218.495 44.4192 218.395 44.7544 218.375C45.0747 218.276 45.4147 218.258 45.7436 218.324Z" fill="#263238" fill-opacity="0.5"/>
<path d="M45.1719 223.675C45.2062 223.733 44.8517 223.984 44.3828 224.247C43.9139 224.51 43.508 224.647 43.4794 224.585C43.4508 224.522 43.7996 224.276 44.2684 224.013C44.7373 223.75 45.1719 223.613 45.1719 223.675Z" fill="#263238" fill-opacity="0.5"/>
<path d="M49.5575 229.748C49.5003 229.782 49.1915 229.359 48.8713 228.799C48.6397 228.478 48.4798 228.111 48.4025 227.724C48.4596 227.689 48.7684 228.112 49.0886 228.673C49.3202 228.993 49.4801 229.36 49.5575 229.748Z" fill="#263238" fill-opacity="0.5"/>
<path d="M50.821 219.656C50.8668 219.702 50.5237 220.119 50.0548 220.582C49.586 221.045 49.1628 221.377 49.1114 221.325C49.0599 221.274 49.4087 220.862 49.8776 220.399C50.3464 219.936 50.7695 219.604 50.821 219.656Z" fill="#263238" fill-opacity="0.5"/>
<path d="M50.5408 214.355C50.4893 214.407 50.1748 214.144 49.8318 213.784C49.4887 213.423 49.26 213.075 49.3057 213.029C49.3515 212.983 49.6717 213.24 50.0147 213.601C50.3578 213.961 50.5922 214.31 50.5408 214.355Z" fill="#263238" fill-opacity="0.5"/>
<path d="M51.41 207.591C51.4615 207.637 51.1756 208.043 50.7696 208.489C50.3636 208.935 49.9977 209.272 49.9462 209.226C49.8948 209.181 50.1807 208.775 50.5809 208.323C50.9812 207.871 51.3585 207.545 51.41 207.591Z" fill="#263238" fill-opacity="0.5"/>
<path d="M51.896 202.685C51.8445 202.737 51.45 202.422 51.004 201.988C50.558 201.553 50.2435 201.159 50.2893 201.107C50.335 201.056 50.7353 201.37 51.1812 201.81C51.6272 202.251 51.9417 202.634 51.896 202.685Z" fill="#263238" fill-opacity="0.5"/>
<path d="M52.8568 196.041C52.7811 196.402 52.6269 196.742 52.4051 197.036C52.102 197.551 51.8047 197.939 51.7475 197.905C51.6904 197.871 51.8848 197.425 52.1935 196.91C52.5023 196.396 52.7939 196.007 52.8568 196.041Z" fill="#263238" fill-opacity="0.5"/>
<path d="M54.6574 189.889C54.7203 189.923 54.5431 190.369 54.2629 190.884C53.9827 191.398 53.6911 191.793 53.6454 191.764C53.6998 191.407 53.8347 191.067 54.0399 190.769C54.3201 190.249 54.5945 189.86 54.6574 189.889Z" fill="#263238" fill-opacity="0.5"/>
<path d="M56.7044 192.685C56.733 192.748 56.4528 192.942 56.0754 193.125C55.6981 193.308 55.3721 193.4 55.3435 193.337C55.315 193.274 55.5951 193.079 55.9725 192.896C56.3499 192.713 56.6758 192.622 56.7044 192.685Z" fill="#263238" fill-opacity="0.5"/>
<path d="M56.7502 214.779C55.8004 214.709 54.9009 214.325 54.1943 213.686C54.6395 213.821 55.0704 213.999 55.4808 214.218C55.922 214.361 56.3473 214.549 56.7502 214.779Z" fill="#263238" fill-opacity="0.5"/>
<path d="M55.9158 219.456C55.9158 219.524 55.5098 219.661 54.9723 219.764C54.6529 219.867 54.313 219.888 53.9831 219.827C54.2691 219.652 54.5923 219.546 54.9266 219.519C55.4641 219.416 55.9043 219.387 55.9158 219.456Z" fill="#263238" fill-opacity="0.5"/>
<path d="M54.892 227.478C54.852 227.535 54.3202 227.163 53.8285 226.546C53.5011 226.193 53.2706 225.762 53.1595 225.294C53.4791 225.633 53.768 226.001 54.0229 226.391C54.3454 226.726 54.6363 227.09 54.892 227.478Z" fill="#263238" fill-opacity="0.5"/>
<path d="M43.6341 231.149C43.5883 231.097 43.8742 230.777 44.2688 230.44C44.6633 230.102 45.0235 229.868 45.0693 229.925C45.115 229.982 44.8291 230.291 44.4346 230.634C44.0401 230.977 43.6798 231.2 43.6341 231.149Z" fill="#263238" fill-opacity="0.5"/>
<path d="M40.3972 213.641C39.9398 212.217 39.0878 210.559 37.5955 210.536C37.1508 210.56 36.7208 210.703 36.3506 210.951C35.9804 211.198 35.6836 211.541 35.4913 211.942C35.0806 212.736 34.8835 213.623 34.9195 214.515C35.1038 220.853 36.1837 227.132 38.1272 233.167H43.5992C43.5329 226.533 42.4531 219.948 40.3972 213.641Z" fill="#455A64"/>
<path d="M30.511 204.681C30.2404 203.347 29.5296 202.143 28.4927 201.262C27.4559 200.38 26.153 199.873 24.7932 199.821C22.3746 200.244 21.4368 202.622 21.151 205.058C20.8651 207.494 21.6198 209.918 22.3689 212.257C24.7627 219.759 27.1604 227.262 29.5619 234.768L36.3661 234.025C34.239 223.973 33.004 214.653 30.511 204.681Z" fill="#455A64"/>
<path d="M37.5959 210.536C37.419 210.779 37.264 211.037 37.1327 211.308C36.8507 212.081 36.7623 212.911 36.8754 213.726C36.9783 214.767 37.0984 216.014 37.2757 217.386C37.4529 218.758 37.6988 220.245 38.0075 221.834C38.6251 224.979 39.3226 227.792 39.7629 229.839C39.9859 230.863 40.1574 231.698 40.2604 232.275C40.3061 232.544 40.3461 232.761 40.3747 232.944C40.4033 233.127 40.409 233.178 40.3747 233.178C40.345 233.106 40.322 233.032 40.3061 232.955L40.146 232.298C39.9973 231.686 39.8029 230.868 39.5742 229.879C39.0882 227.832 38.362 225.025 37.7445 221.874C37.4358 220.296 37.1727 218.787 37.0298 217.403C36.9383 216.717 36.8811 216.054 36.8239 215.442C36.7668 214.83 36.7096 214.252 36.681 213.726C36.5833 212.887 36.7013 212.037 37.0241 211.256C37.1602 210.978 37.3553 210.732 37.5959 210.536Z" fill="#263238" fill-opacity="0.5"/>
<path d="M24.919 199.626C24.6158 199.972 24.3405 200.341 24.0956 200.73C23.4694 201.817 23.1144 203.039 23.0607 204.292C23.0323 206.15 23.3164 208 23.9012 209.764C24.473 211.788 25.1534 214.012 25.8453 216.339C27.2004 221.005 28.424 225.225 29.3217 228.307L30.3509 231.943C30.4653 232.355 30.5511 232.681 30.6197 232.933C30.6571 233.046 30.682 233.163 30.694 233.281C30.6416 233.175 30.5994 233.064 30.5682 232.95C30.4939 232.698 30.3852 232.378 30.2595 231.966C29.9907 231.091 29.6133 229.862 29.1559 228.358L25.6051 216.408C24.919 214.07 24.2729 211.834 23.6782 209.821C23.0958 208.032 22.8269 206.156 22.8835 204.275C22.9572 202.997 23.3504 201.759 24.027 200.673C24.2646 200.277 24.566 199.923 24.919 199.626Z" fill="#263238" fill-opacity="0.5"/>
<path d="M34.9085 233.298C34.8509 233.193 34.7994 233.084 34.7541 232.973C34.6683 232.75 34.5254 232.435 34.371 232.012C34.0451 231.177 33.6277 229.948 33.2274 228.404C32.8272 226.86 32.3698 224.973 31.9581 222.915C31.5464 220.856 31.1347 218.552 30.6773 216.151C30.2199 213.749 29.6824 211.491 29.0706 209.472C28.5398 207.678 27.8766 205.925 27.0865 204.229C26.5493 203.088 25.9362 201.983 25.2511 200.924C25.0166 200.547 24.8051 200.267 24.6793 200.072C24.6077 199.975 24.5445 199.872 24.4906 199.763C24.5745 199.848 24.651 199.94 24.7193 200.038C24.8623 200.232 25.0853 200.495 25.3311 200.873C26.0543 201.915 26.6947 203.012 27.2466 204.155C28.0668 205.847 28.7494 207.602 29.2879 209.404C29.9336 211.608 30.4642 213.845 30.8774 216.105C31.3291 218.501 31.7522 220.788 32.141 222.875C32.5299 224.962 32.9415 226.809 33.3532 228.358C33.7649 229.908 34.148 231.137 34.4453 231.978C34.5826 232.406 34.7141 232.727 34.7884 232.95C34.8414 233.061 34.8817 233.178 34.9085 233.298Z" fill="#263238" fill-opacity="0.5"/>
<path d="M22.5173 211.136C22.5173 211.199 22.1628 211.348 21.6883 211.462C21.2137 211.576 20.8192 211.616 20.8077 211.548C20.7963 211.479 21.1565 211.336 21.6311 211.222C22.1057 211.108 22.5002 211.068 22.5173 211.136Z" fill="#263238" fill-opacity="0.5"/>
<path d="M21.7973 206.493C21.4256 206.598 21.0392 206.64 20.6537 206.619C20.2734 206.673 19.8866 206.661 19.5102 206.585C19.8662 206.415 20.2602 206.34 20.6537 206.368C21.0394 206.311 21.4331 206.355 21.7973 206.493Z" fill="#263238" fill-opacity="0.5"/>
<path d="M22.5636 202.251C22.5178 202.308 22.1462 202.068 21.7402 201.719C21.3343 201.37 21.0312 201.044 21.077 200.993C21.1227 200.941 21.4886 201.176 21.9003 201.525C22.312 201.873 22.6093 202.199 22.5636 202.251Z" fill="#263238" fill-opacity="0.5"/>
<path d="M24.6391 198.328C24.7077 198.328 24.6848 198.677 24.6791 199.072C24.6734 199.466 24.6791 199.804 24.5934 199.815C24.5076 199.826 24.4161 199.495 24.4275 199.066C24.439 198.637 24.5876 198.311 24.6391 198.328Z" fill="#263238" fill-opacity="0.5"/>
<path d="M28.8755 200.175C28.9327 200.215 28.7669 200.553 28.5039 200.924C28.2409 201.296 27.9836 201.57 27.9321 201.53C27.8806 201.49 28.0407 201.159 28.298 200.781C28.5553 200.404 28.8184 200.135 28.8755 200.175Z" fill="#263238" fill-opacity="0.5"/>
<path d="M31.6263 204.972C31.6263 205.041 31.3003 205.241 30.8429 205.43C30.3855 205.619 29.9852 205.716 29.9624 205.653C29.9395 205.59 30.2883 205.384 30.7457 205.201C31.2031 205.018 31.6034 204.892 31.6263 204.972Z" fill="#263238" fill-opacity="0.5"/>
<path d="M33.2959 209.873C32.9933 210.135 32.6187 210.3 32.2209 210.347C31.8398 210.471 31.4317 210.484 31.043 210.387C31.4099 210.242 31.7944 210.146 32.1866 210.101C32.5457 209.98 32.9182 209.904 33.2959 209.873Z" fill="#263238" fill-opacity="0.5"/>
<path d="M25.634 208.477C25.5711 208.477 25.634 208.117 25.7426 207.717C25.8513 207.317 26.0228 207.014 26.0857 207.037C26.1486 207.059 26.0857 207.397 25.9771 207.797C25.8684 208.197 25.7312 208.5 25.634 208.477Z" fill="#263238" fill-opacity="0.5"/>
<path d="M26.7034 214.653C26.7265 214.292 26.8322 213.942 27.0122 213.629C27.2466 213.092 27.4868 212.68 27.5497 212.709C27.5265 213.069 27.4209 213.419 27.2409 213.732C27.0065 214.27 26.7663 214.693 26.7034 214.653Z" fill="#263238" fill-opacity="0.5"/>
<path d="M24.0616 216.345C23.7246 216.337 23.3925 216.263 23.0838 216.128C22.5635 215.962 22.1404 215.813 22.1575 215.745C22.4979 215.701 22.8437 215.751 23.1582 215.888C23.6899 216.054 24.0902 216.282 24.0616 216.345Z" fill="#263238" fill-opacity="0.5"/>
<path d="M25.5826 221.377C25.6226 221.434 25.331 221.709 24.9365 221.994C24.5419 222.28 24.176 222.463 24.136 222.412C24.096 222.36 24.3876 222.074 24.7878 221.789C25.1881 221.503 25.5426 221.32 25.5826 221.377Z" fill="#263238" fill-opacity="0.5"/>
<path d="M26.806 226.397C26.806 226.46 26.4629 226.609 25.9998 226.717C25.5367 226.826 25.1536 226.866 25.1364 226.803C25.1193 226.74 25.4795 226.592 25.9426 226.477C26.4058 226.363 26.7889 226.329 26.806 226.397Z" fill="#263238" fill-opacity="0.5"/>
<path d="M33.4333 214.069C33.4676 214.127 33.1589 214.372 32.7129 214.538C32.2669 214.704 31.8666 214.727 31.8552 214.664C31.8438 214.601 32.1983 214.47 32.6214 214.304C33.0445 214.138 33.399 214.007 33.4333 214.069Z" fill="#263238" fill-opacity="0.5"/>
<path d="M34.3765 221.874C34.3479 221.937 33.9819 221.829 33.5588 221.628C33.1357 221.428 32.8155 221.217 32.8441 221.154C32.8727 221.091 33.2443 221.205 33.6675 221.4C34.0906 221.594 34.4108 221.811 34.3765 221.874Z" fill="#263238" fill-opacity="0.5"/>
<path d="M36.0518 227.466C35.6731 227.447 35.3028 227.348 34.9654 227.175C34.3936 226.952 33.9534 226.717 33.9762 226.649C34.3531 226.668 34.7214 226.767 35.0569 226.94C35.6287 227.163 36.0747 227.398 36.0518 227.466Z" fill="#263238" fill-opacity="0.5"/>
<path d="M27.0743 231.846C27.04 231.783 27.486 231.486 28.0006 231.08C28.5152 230.674 28.9155 230.308 28.9669 230.36C29.0184 230.411 28.6925 230.851 28.155 231.274C27.856 231.563 27.4813 231.761 27.0743 231.846Z" fill="#263238" fill-opacity="0.5"/>
<path d="M31.4888 228.987C31.4202 228.987 31.323 228.621 31.1515 228.187C30.9799 227.752 30.8084 227.403 30.8656 227.363C30.9227 227.323 31.2086 227.621 31.3859 228.095C31.5631 228.57 31.5574 228.987 31.4888 228.987Z" fill="#263238" fill-opacity="0.5"/>
<path d="M30.3053 222.28C30.2653 222.337 29.9794 222.2 29.6649 221.977C29.3505 221.754 29.1332 221.526 29.1732 221.468C29.2132 221.411 29.4991 221.548 29.8136 221.771C30.1281 221.994 30.3625 222.223 30.3053 222.28Z" fill="#263238" fill-opacity="0.5"/>
<path d="M40.5974 211.748C40.6375 211.805 40.3573 212.08 39.9742 212.36C39.5911 212.64 39.248 212.829 39.208 212.772C39.168 212.714 39.4424 212.446 39.8255 212.16C40.2086 211.874 40.5974 211.691 40.5974 211.748Z" fill="#263238" fill-opacity="0.5"/>
<path d="M42.1697 215.991C42.1697 216.059 41.7408 216.151 41.2034 216.094C40.6659 216.036 40.2599 215.853 40.2771 215.791C40.2942 215.728 40.7174 215.791 41.232 215.842C41.7466 215.893 42.164 215.922 42.1697 215.991Z" fill="#263238" fill-opacity="0.5"/>
<path d="M35.4974 216.946C35.4974 217.008 35.1143 217.151 34.5882 217.186C34.0622 217.22 33.6505 217.134 33.6562 217.066C33.662 216.997 34.0736 216.974 34.5768 216.94C35.08 216.905 35.4859 216.877 35.4974 216.946Z" fill="#263238" fill-opacity="0.5"/>
<path d="M36.0746 212.932C36.0746 213 35.6629 213.012 35.2169 212.8C34.7709 212.589 34.5136 212.286 34.5593 212.228C34.6051 212.171 34.9139 212.388 35.3198 212.571C35.7258 212.754 36.0803 212.863 36.0746 212.932Z" fill="#263238" fill-opacity="0.5"/>
<path d="M42.7416 220.548C42.7073 220.605 42.2899 220.41 41.8096 220.107C41.3293 219.804 40.9748 219.536 41.0148 219.456C41.0548 219.376 41.4665 219.599 41.9468 219.896C42.4271 220.193 42.7816 220.491 42.7416 220.548Z" fill="#263238" fill-opacity="0.5"/>
<path d="M59.0199 232.452H23.4265V238.759H59.0199V232.452Z" fill="#FF2156"/>
<path d="M26.0856 237.513L30.414 256.364H51.6271L56.3614 237.513H26.0856Z" fill="#FF2156"/>
<path d="M59.0032 238.77C59.0032 238.839 50.9982 238.896 41.0721 238.896C31.146 238.896 23.141 238.839 23.141 238.77C23.141 238.702 31.146 238.645 41.0721 238.645C50.9982 238.645 59.0032 238.708 59.0032 238.77Z" fill="#263238" fill-opacity="0.5"/>
<path d="M39.2079 217.083C39.1507 217.117 38.9049 216.837 38.6647 216.448C38.4246 216.059 38.2759 215.716 38.3331 215.682C38.3903 215.648 38.6361 215.928 38.8763 216.317C39.1164 216.705 39.2651 217.043 39.2079 217.083Z" fill="#263238" fill-opacity="0.5"/>
<path d="M39.2195 222.155C39.2024 221.825 39.2672 221.497 39.4082 221.2C39.574 220.691 39.7684 220.296 39.8313 220.319C39.8489 220.65 39.7841 220.98 39.6426 221.28C39.454 221.783 39.2881 222.177 39.2195 222.155Z" fill="#263238" fill-opacity="0.5"/>
<path d="M40.9577 227.483C40.8948 227.518 40.6317 227.089 40.3859 226.534C40.1886 226.212 40.0637 225.852 40.0199 225.477C40.0828 225.442 40.3459 225.871 40.5917 226.426C40.789 226.748 40.9139 227.109 40.9577 227.483Z" fill="#263238" fill-opacity="0.5"/>
<path d="M37.2009 231.772C37.1494 231.726 37.361 231.4 37.6755 231.034C37.9899 230.668 38.2816 230.417 38.3387 230.462C38.3959 230.508 38.1786 230.84 37.8642 231.2C37.5497 231.56 37.2523 231.846 37.2009 231.772Z" fill="#263238" fill-opacity="0.5"/>
<path d="M36.4121 223.99C36.4121 224.059 36.0575 224.053 35.6459 223.99C35.2342 223.927 34.914 223.807 34.9254 223.738C34.9369 223.67 35.2799 223.675 35.6859 223.738C36.0919 223.801 36.4235 223.921 36.4121 223.99Z" fill="#263238" fill-opacity="0.5"/>
<path d="M160.242 189.1H75.8357V256.41H160.242V189.1Z" fill="#E0E0E0"/>
<g opacity="0.3">
<path opacity="0.3" d="M81.9824 189.237C91.92 192.782 102.881 193.542 113.545 193.743C115.758 193.783 117.993 193.777 120.132 194.314C122.27 194.852 124.334 196.07 125.432 197.985C126.627 200.072 126.501 202.685 125.821 204.99C125.14 207.294 123.968 209.427 123.122 211.674C121.624 215.649 121.165 219.942 121.79 224.144C121.982 225.935 122.585 227.656 123.551 229.176C124.04 229.931 124.7 230.561 125.476 231.016C126.252 231.47 127.124 231.737 128.022 231.795C131.23 231.84 133.426 228.69 135.015 225.9C141.539 214.464 148.595 201.485 152.769 189.003L81.9824 189.237Z" fill="black"/>
</g>
<path d="M104.597 256.05C104.511 256.05 104.448 241.132 104.448 222.732C104.448 204.332 104.511 189.408 104.597 189.408C104.682 189.408 104.745 204.326 104.745 222.732C104.745 241.138 104.677 256.05 104.597 256.05Z" fill="#455A64"/>
<path d="M139.184 139.355C138.932 137.674 133.912 132.127 133.912 132.127C133.912 132.127 131.407 122.058 130.653 119.091C130.401 118.233 130.034 117.413 129.56 116.655C127.785 113.698 125.261 111.262 122.242 109.593L115.294 105.688L113.636 101.994L96.9517 93.4177L92.4289 101.423C92.4289 101.423 81.445 104.911 79.9926 107.386C78.5403 109.862 80.7131 143.294 80.7131 143.294C80.7131 143.294 76.1388 162.575 75.1496 166.566C74.1605 170.557 75.4584 175.314 75.4584 175.314L83.6406 165.051C86.185 161.86 91.7656 160.391 95.7738 160.448L130.029 160.602L128.651 151.008L156.366 156.371C156.366 156.371 161.129 147.074 161.512 146.891C161.895 146.708 139.184 139.355 139.184 139.355Z" fill="#FF2156"/>
<path d="M96.2429 104.539C96.0027 104.293 98.1755 111.64 100.909 119.125C102.379 123.17 103.128 127.441 103.121 131.744V158.847L119.543 157.732L117.09 139.881C117.09 139.881 115.089 128.365 114.528 123.985C114.014 119.983 112.241 109.119 112.241 109.119C112.241 109.119 103.121 111.543 96.2429 104.539Z" fill="white"/>
<path d="M132.688 146.079C132.663 145.941 132.663 145.799 132.688 145.661C132.726 145.288 132.799 144.918 132.906 144.558C133.253 143.355 133.898 142.26 134.781 141.373C135.669 140.489 136.764 139.84 137.966 139.486C138.326 139.379 138.695 139.307 139.069 139.269C139.205 139.243 139.345 139.243 139.481 139.269C139.481 139.32 138.909 139.383 138.029 139.686C136.886 140.078 135.848 140.727 134.995 141.582C134.141 142.438 133.495 143.477 133.106 144.621C132.803 145.507 132.74 146.079 132.688 146.079Z" fill="#263238" fill-opacity="0.5"/>
<path d="M133.534 139.583C134.297 139.135 135.16 138.886 136.044 138.857C136.92 138.736 137.812 138.842 138.635 139.166C138.635 139.258 137.491 139.035 136.067 139.166C134.643 139.298 133.569 139.669 133.534 139.583Z" fill="#263238" fill-opacity="0.5"/>
<g opacity="0.3">
<path opacity="0.3" d="M79.061 154.375L77.6315 155.988C79.122 157.828 81.1421 159.165 83.418 159.819C85.7118 160.306 88.0555 160.517 90.3994 160.448C91.349 160.494 92.3002 160.403 93.224 160.179C94.156 159.91 95.0194 159.384 95.9857 159.327C96.6338 159.33 97.2784 159.422 97.9012 159.601C98.528 159.779 99.1906 159.789 99.8224 159.63C100.135 159.546 100.413 159.363 100.613 159.108C100.814 158.854 100.928 158.542 100.937 158.218C93.8092 156.134 86.4725 154.846 79.061 154.375Z" fill="black"/>
</g>
<path d="M125.947 156.445L121.945 152.168L113.625 150.081C113.625 150.081 106.032 152.368 105.849 152.368C105.666 152.368 99.2392 150.607 99.2392 150.607L96.9921 158.852L108.571 159.647L121.79 159.115C121.79 159.115 122.482 158.475 122.07 158.035C121.659 157.595 124.283 158.778 124.592 158.79C124.901 158.801 125.495 159.041 125.907 158.549C126.187 158.183 126.565 157.103 125.947 156.445Z" fill="#FFBE9D"/>
<path d="M122.07 158.006C121.621 157.921 121.181 157.795 120.755 157.629C119.955 157.377 118.84 157.057 117.599 156.714C116.358 156.371 115.215 156.142 114.386 155.999C113.932 155.94 113.486 155.835 113.053 155.685C113.511 155.665 113.97 155.699 114.42 155.788C115.514 155.94 116.598 156.154 117.668 156.428C118.739 156.7 119.793 157.036 120.824 157.434C121.262 157.571 121.681 157.763 122.07 158.006Z" fill="#D08A66"/>
<path d="M125.947 156.445C125.323 156.288 124.709 156.097 124.106 155.874C122.962 155.496 121.401 155.027 119.646 154.541C117.891 154.055 116.335 153.501 115.152 153.432C114.514 153.399 113.875 153.424 113.242 153.506C113.397 153.421 113.565 153.363 113.739 153.335C114.207 153.234 114.686 153.195 115.163 153.22C116.387 153.22 118.022 153.741 119.737 154.255C121.453 154.77 123.065 155.245 124.186 155.679C124.758 155.891 125.186 156.085 125.495 156.222C125.656 156.274 125.808 156.349 125.947 156.445Z" fill="#D08A66"/>
<path d="M79.9926 107.386C79.9926 107.386 74.0175 111.543 72.5595 117.524C71.1014 123.505 64.8061 147.949 66.0983 151.602C67.3905 155.256 92.5147 158.847 92.5147 158.847L95.4936 146.268L82.7315 142.774C82.7315 142.774 82.8973 131.138 83.0574 126.318C83.2175 121.498 79.9926 107.386 79.9926 107.386Z" fill="#FF2156"/>
<path d="M95.3336 148.16L99.4447 149.172L96.9689 158.652L92.9321 158.006L95.3336 148.16Z" fill="white"/>
<path d="M66.0069 150.31C66.0069 150.31 66.0069 150.522 66.0698 150.882C66.2088 151.435 66.5142 151.932 66.9447 152.306C68.0368 153.323 70.1238 154.17 72.7654 154.644C73.9719 155.044 75.3499 155.359 76.8193 155.691C78.2888 156.022 79.8784 156.36 81.548 156.697C84.8929 157.383 88.5923 158.103 92.5148 158.835L92.3432 158.944C92.6234 157.8 92.915 156.548 93.2295 155.296C93.9328 152.437 94.6189 149.624 95.265 146.977L95.3679 147.148L84.0524 143.94C82.49 143.283 80.7995 142.986 79.1065 143.071C77.8198 143.143 76.5559 143.441 75.3727 143.952C74.6208 144.277 73.9026 144.675 73.2285 145.141L72.7082 145.519C72.6513 145.564 72.59 145.605 72.5252 145.639C72.5252 145.639 72.5767 145.581 72.6853 145.49C72.794 145.398 72.9598 145.256 73.1885 145.084C73.8526 144.592 74.5676 144.172 75.3213 143.832C76.5119 143.292 77.7905 142.972 79.095 142.888C80.8177 142.778 82.5427 143.064 84.1381 143.723L95.488 146.902L95.6253 146.937L95.5909 147.074C94.9448 149.721 94.2644 152.511 93.5668 155.399C93.2581 156.645 92.9607 157.88 92.6749 159.041L92.6405 159.178H92.5033C88.5809 158.441 84.8872 157.709 81.5423 157.011C79.8727 156.663 78.2888 156.314 76.8136 155.971C75.3384 155.628 73.9547 155.302 72.7425 154.884C70.0666 154.375 67.9796 153.495 66.876 152.426C66.4385 152.032 66.138 151.509 66.0184 150.933C65.9772 150.728 65.9733 150.517 66.0069 150.31Z" fill="#263238" fill-opacity="0.5"/>
<path d="M83.4288 143.626C83.3945 143.666 82.9657 143.271 82.1995 142.762C80.1929 141.419 77.8211 140.726 75.4067 140.778C74.4804 140.778 73.9144 140.904 73.9029 140.853C74.382 140.679 74.886 140.585 75.3953 140.573C77.8761 140.393 80.3391 141.109 82.3367 142.591C82.7554 142.873 83.1244 143.223 83.4288 143.626Z" fill="#263238" fill-opacity="0.5"/>
<path d="M85.1046 123.156C85.1256 123.411 85.1256 123.667 85.1046 123.922C85.1046 124.42 85.0532 125.129 84.9846 126.009C84.8416 127.765 84.5843 130.183 84.1212 132.836C83.7592 135.106 83.2298 137.346 82.5373 139.538C82.4001 139.955 82.2514 140.332 82.1314 140.681L81.7654 141.505C81.6582 141.739 81.526 141.962 81.3709 142.168C81.4426 141.923 81.5384 141.685 81.6568 141.459C81.754 141.213 81.8569 140.933 81.977 140.624C82.0971 140.315 82.2114 139.915 82.3372 139.48C82.9621 137.281 83.4604 135.047 83.8296 132.791C84.287 130.149 84.5786 127.742 84.773 125.992C84.8588 125.163 84.9331 124.471 84.9903 123.922C84.9977 123.663 85.0361 123.406 85.1046 123.156Z" fill="#263238" fill-opacity="0.5"/>
<path d="M99.6731 116.678C99.6731 116.678 99.616 116.523 99.4787 116.255C99.2754 115.874 98.9782 115.551 98.6153 115.317C98.3469 115.133 98.04 115.012 97.7179 114.965C97.3959 114.917 97.0673 114.944 96.757 115.043C96.3638 115.177 96.0125 115.412 95.7378 115.724C95.463 116.036 95.2743 116.414 95.1904 116.821L95.1103 117.227L94.9331 116.849C94.2643 115.414 93.6819 113.94 93.1891 112.435C92.3155 109.929 91.8784 107.291 91.8969 104.636C91.8969 104.127 91.9655 103.67 91.9941 103.264C92.0227 102.858 92.1142 102.52 92.1771 102.246C92.2374 101.957 92.3216 101.674 92.4286 101.4C92.2336 102.468 92.1246 103.55 92.1027 104.636C92.1498 107.261 92.611 109.862 93.4693 112.344C93.9625 113.837 94.5351 115.303 95.1846 116.735L94.9273 116.769C95.026 116.32 95.2411 115.904 95.5513 115.564C95.8614 115.223 96.2555 114.971 96.6941 114.831C97.0345 114.728 97.3942 114.706 97.7446 114.767C98.0949 114.827 98.4264 114.969 98.7125 115.18C99.084 115.441 99.3767 115.799 99.5588 116.215C99.6087 116.324 99.6452 116.439 99.6674 116.558C99.6788 116.632 99.6846 116.678 99.6731 116.678Z" fill="#263238" fill-opacity="0.5"/>
<path d="M113.614 117.964C113.552 117.741 113.509 117.514 113.482 117.284C113.357 116.654 113.317 116.009 113.362 115.368C113.491 114.382 113.982 113.479 114.74 112.835C115.209 112.45 115.797 112.238 116.404 112.235C116.735 112.231 117.063 112.299 117.365 112.435C117.667 112.57 117.936 112.769 118.154 113.018L117.902 113.167L117.359 111.801C116.29 109.107 115.341 106.654 114.666 104.888L113.882 102.778C113.774 102.526 113.691 102.263 113.637 101.994C113.777 102.231 113.896 102.48 113.991 102.738C114.22 103.31 114.511 103.979 114.866 104.813C115.592 106.569 116.581 108.999 117.639 111.675L118.177 113.047L118.525 113.928L117.954 113.19C117.765 112.971 117.53 112.796 117.266 112.677C117.003 112.559 116.716 112.5 116.427 112.504C115.883 112.5 115.354 112.684 114.929 113.024C114.214 113.622 113.738 114.455 113.585 115.374C113.524 116 113.535 116.632 113.619 117.255C113.647 117.491 113.645 117.729 113.614 117.964Z" fill="#263238" fill-opacity="0.5"/>
<path d="M124.22 119.382C124.3 119.382 125.592 128.062 127.108 138.794C128.623 149.527 129.778 158.235 129.698 158.235C129.618 158.235 128.325 149.555 126.81 138.794C125.295 128.033 124.14 119.394 124.22 119.382Z" fill="#263238" fill-opacity="0.5"/>
<g opacity="0.3">
<path opacity="0.3" d="M93.3613 112.527C93.4308 114.75 93.9137 116.941 94.785 118.988C95.4083 118.216 96.1001 117.404 97.0722 117.175C98.25 116.895 99.445 117.621 100.297 118.513C100.149 117.621 99.7971 116.776 99.2678 116.043C99.0035 115.683 98.6596 115.389 98.2629 115.183C97.8661 114.978 97.4273 114.867 96.9807 114.86C96.5355 114.87 96.1065 115.029 95.7617 115.31C95.4168 115.592 95.1757 115.981 95.0766 116.415L93.4356 112.567" fill="black"/>
</g>
<path d="M83.7035 118.811C83.6521 118.811 83.6692 118.21 83.4977 117.278C83.2627 116.064 82.7906 114.908 82.1082 113.876C81.7241 113.318 81.2854 112.799 80.7989 112.327C80.3957 111.945 79.9573 111.602 79.4895 111.303C78.6833 110.794 78.1172 110.6 78.1401 110.548C78.2804 110.558 78.4178 110.593 78.546 110.651C78.7061 110.694 78.8613 110.754 79.0092 110.828C79.2068 110.913 79.3979 111.013 79.581 111.126C80.0783 111.407 80.5441 111.74 80.9704 112.121C81.4832 112.598 81.9415 113.132 82.337 113.71C83.0457 114.772 83.5068 115.98 83.6864 117.244C83.7433 117.622 83.7624 118.005 83.7435 118.387C83.7435 118.662 83.7264 118.811 83.7035 118.811Z" fill="#263238" fill-opacity="0.5"/>
<path d="M116.895 78.0367C116.568 74.975 115.101 72.1485 112.785 70.1195C110.469 68.0906 107.474 67.008 104.396 67.0871H103.761C96.9284 67.6589 93.6006 73.7827 94.3668 80.5926L96.2422 104.55L97.037 105.522C98.8213 107.714 101.281 109.255 104.032 109.903C106.783 110.551 109.671 110.272 112.246 109.107L111.72 101.4C111.72 101.4 118.273 100.21 118.181 93.635C118.141 90.4444 117.524 83.9147 116.895 78.0367Z" fill="#FFBE9D"/>
<path d="M111.772 101.383C108.721 101.468 105.711 100.674 103.098 99.0955C103.098 99.0955 105.242 103.778 111.789 103.018L111.772 101.383Z" fill="#D08A66"/>
<path d="M114.814 83.4458C114.821 83.69 114.733 83.9273 114.569 84.1084C114.405 84.2894 114.177 84.4002 113.933 84.4178C113.814 84.4296 113.694 84.4176 113.579 84.3824C113.465 84.3473 113.359 84.2898 113.267 84.2131C113.175 84.1365 113.099 84.0424 113.043 83.9362C112.988 83.8299 112.954 83.7138 112.944 83.5945C112.936 83.3499 113.024 83.1118 113.188 82.9304C113.352 82.749 113.581 82.6386 113.825 82.6224C113.944 82.6098 114.065 82.6213 114.18 82.6561C114.294 82.691 114.401 82.7485 114.493 82.8252C114.586 82.902 114.661 82.9964 114.717 83.103C114.772 83.2096 114.805 83.3262 114.814 83.4458Z" fill="#263238" fill-opacity="0.5"/>
<path d="M115.231 79.8722C115.157 79.9865 114.414 80.0666 113.516 80.5469C112.618 81.0272 112.092 81.6275 111.972 81.6161C111.852 81.6047 111.972 81.4503 112.195 81.1816C112.537 80.8023 112.944 80.4867 113.396 80.2495C113.827 80.0084 114.301 79.8512 114.791 79.7864C115.128 79.7521 115.271 79.815 115.231 79.8722Z" fill="#263238" fill-opacity="0.5"/>
<path d="M105.322 83.9433C105.333 84.1886 105.247 84.4284 105.082 84.6104C104.917 84.7924 104.687 84.902 104.442 84.9153C104.323 84.9279 104.202 84.9164 104.087 84.8816C103.972 84.8468 103.866 84.7893 103.773 84.7125C103.681 84.6358 103.605 84.5413 103.55 84.4347C103.495 84.3281 103.462 84.2116 103.453 84.0919C103.445 83.8473 103.532 83.6092 103.696 83.4279C103.861 83.2465 104.089 83.1361 104.333 83.1199C104.453 83.1073 104.573 83.1188 104.688 83.1536C104.803 83.1884 104.909 83.2459 105.002 83.3227C105.094 83.3995 105.17 83.4939 105.225 83.6005C105.28 83.7071 105.313 83.8236 105.322 83.9433Z" fill="#263238" fill-opacity="0.5"/>
<path d="M105.208 81.2502C105.076 81.2502 104.465 80.8672 103.492 80.627C102.52 80.3869 101.714 80.4383 101.628 80.3583C101.543 80.2782 101.731 80.2439 102.08 80.2153C102.59 80.183 103.101 80.2312 103.595 80.3583C104.074 80.4719 104.53 80.6652 104.945 80.93C105.174 81.113 105.242 81.2388 105.208 81.2502Z" fill="#263238" fill-opacity="0.5"/>
<path d="M109.142 89.1008C109.672 88.9239 110.221 88.8106 110.778 88.7634C111.035 88.7634 111.275 88.6719 111.315 88.4947C111.331 88.2297 111.266 87.9661 111.127 87.7399L110.309 85.7901C109.165 83.0227 108.353 80.7413 108.468 80.7013C108.582 80.6613 109.611 82.8626 110.715 85.63C110.989 86.3162 111.252 86.968 111.498 87.5913C111.667 87.8978 111.724 88.2537 111.658 88.5976C111.623 88.6898 111.567 88.7727 111.494 88.8401C111.422 88.9074 111.335 88.9575 111.241 88.9864C111.1 89.0305 110.954 89.0555 110.806 89.0607C110.256 89.1454 109.697 89.1589 109.142 89.1008Z" fill="#263238" fill-opacity="0.5"/>
<path d="M105.208 77.3506C105.094 77.6193 104.093 77.4421 102.921 77.5221C101.749 77.6022 100.754 77.8881 100.634 77.6308C100.566 77.5107 100.749 77.2591 101.143 77.0133C101.674 76.7112 102.267 76.5345 102.876 76.4969C103.486 76.4592 104.096 76.5615 104.66 76.796C105.037 76.9961 105.243 77.2191 105.208 77.3506Z" fill="#263238" fill-opacity="0.5"/>
<path d="M115.209 77.5736C114.986 77.808 114.117 77.5736 113.076 77.5736C112.036 77.5736 111.149 77.7508 110.944 77.5107C110.852 77.3963 110.989 77.1619 111.372 76.9389C111.901 76.6619 112.492 76.526 113.088 76.5444C113.689 76.5402 114.28 76.694 114.803 76.9903C115.18 77.2248 115.306 77.4649 115.209 77.5736Z" fill="#263238" fill-opacity="0.5"/>
<path d="M118.81 72.1931C118.753 71.893 118.587 71.6244 118.345 71.438C118.102 71.2516 117.8 71.1602 117.495 71.1811C117.824 71.0874 118.131 70.93 118.399 70.718C118.532 70.6105 118.632 70.4677 118.688 70.3058C118.743 70.144 118.752 69.9697 118.713 69.8031C118.542 69.2942 117.89 69.1856 117.375 69.0426C116.7 68.8463 116.101 68.4471 115.66 67.8991C115.037 67.11 114.797 66.0808 114.253 65.2288C113.903 64.6788 113.433 64.2145 112.879 63.8701C112.325 63.5256 111.701 63.3098 111.052 63.2384C110.404 63.1671 109.748 63.2421 109.132 63.458C108.516 63.6738 107.957 64.0249 107.495 64.4855C106.99 63.9669 106.369 63.5762 105.684 63.3459C104.998 63.1156 104.267 63.0524 103.551 63.1614C102.836 63.2705 102.157 63.5487 101.571 63.9729C100.985 64.3971 100.509 64.9551 100.182 65.6005C99.3047 65.2347 98.3453 65.1115 97.4042 65.2437C96.4631 65.3759 95.5748 65.7587 94.8325 66.352C94.0901 66.9453 93.5209 67.7274 93.1844 68.6162C92.848 69.505 92.7567 70.4679 92.9202 71.4041L97.0141 73.9142C97.0473 73.6029 97.1463 73.3021 97.3043 73.0318C97.4624 72.7615 97.6761 72.5278 97.9312 72.3462C98.1863 72.1647 98.477 72.0393 98.7841 71.9784C99.0913 71.9175 99.4079 71.9225 99.7129 71.993C100.948 72.3532 101.737 73.7827 103.018 73.8799C104.018 73.9542 104.87 73.1823 105.837 72.925C107.009 72.6105 108.25 73.0794 109.307 73.6741C110.365 74.2687 111.377 75.012 112.555 75.3094C113.962 75.5914 115.422 75.4171 116.723 74.8119C117.301 74.6092 117.828 74.2834 118.267 73.857C118.484 73.6431 118.646 73.3804 118.741 73.091C118.835 72.8015 118.859 72.4937 118.81 72.1931Z" fill="#263238" fill-opacity="0.5"/>
<path d="M97.7062 71.9816L116.461 71.8787C115.784 70.6182 114.801 69.5485 113.602 68.7682C111.111 66.9483 108.109 65.9618 105.025 65.9493C101.966 65.9493 95.8479 69.8774 93.6922 72.0445C91.9769 73.7598 92.0226 75.2407 92.0226 75.2407C91.8054 77.6765 93.2405 80.3868 93.8523 82.7711C94.1611 83.9947 94.8072 87.6999 94.8072 87.6999C95.8364 87.6713 96.1966 86.8365 96.0137 85.8187L95.7106 81.8162C96.7226 80.972 97.4315 79.8206 97.7297 78.5369C98.028 77.2531 97.8992 75.9072 97.3631 74.7033C97.1058 74.3488 96.4883 72.6963 97.7062 71.9816Z" fill="#263238" fill-opacity="0.5"/>
<path d="M95.4423 81.5532C94.4874 78.2369 93.6069 74.6918 94.6247 71.3755H94.0529L93.8242 71.5413C93.2955 71.3636 92.7239 71.359 92.1924 71.5282C91.6609 71.6973 91.1971 72.0314 90.8683 72.4819C90.5394 72.9324 90.3627 73.476 90.3637 74.0337C90.3647 74.5915 90.5433 75.1345 90.8738 75.5838C90.3162 75.5789 89.7761 75.7778 89.3549 76.1432C88.9337 76.5086 88.6605 77.0152 88.5866 77.5679C88.5886 78.338 88.8001 79.0931 89.1984 79.7521C89.5978 80.4131 89.8421 81.1559 89.9132 81.9249C89.9372 82.3078 89.8254 82.6869 89.5974 82.9954C89.3693 83.304 89.0398 83.5222 88.6667 83.6116C88.8474 84.0017 89.157 84.3176 89.5434 84.5061C89.9298 84.6946 90.3693 84.7442 90.788 84.6466C90.5209 85.2984 90.0749 85.8613 89.5015 86.2704C90.7251 87.1052 92.4004 86.8422 93.727 86.1732C94.5499 85.8422 95.2217 85.2192 95.6138 84.4236C95.9798 83.503 95.7053 82.4909 95.4423 81.5532Z" fill="#263238" fill-opacity="0.5"/>
<path d="M95.1336 85.4242C95.0192 85.3785 90.5593 84.2063 90.8395 88.6948C91.1197 93.1833 95.5567 91.9997 95.5567 91.8682C95.5567 91.7367 95.1336 85.4242 95.1336 85.4242Z" fill="#FFBE9D"/>
<path d="M94.4813 90.2386C94.4813 90.2386 94.407 90.2958 94.2755 90.3644C94.0978 90.4525 93.8931 90.4689 93.7037 90.4101C93.2177 90.2615 92.7774 89.5353 92.7088 88.7234C92.6742 88.3354 92.7269 87.9447 92.8632 87.5798C92.8996 87.4355 92.9708 87.3022 93.0704 87.1916C93.1701 87.081 93.2952 86.9964 93.4349 86.9451C93.5237 86.9175 93.6192 86.9211 93.7056 86.9555C93.792 86.9898 93.864 87.0528 93.9095 87.1338C93.9781 87.2539 93.9495 87.3454 93.9781 87.3568C94.0067 87.3682 94.0696 87.271 94.0239 87.0881C93.9871 86.9812 93.9194 86.8877 93.8295 86.8193C93.7661 86.7751 93.6944 86.7442 93.6187 86.7285C93.543 86.7128 93.465 86.7125 93.3892 86.7278C93.2072 86.7756 93.0403 86.8689 92.9043 86.9989C92.7682 87.129 92.6675 87.2915 92.6116 87.4712C92.4466 87.8728 92.3781 88.3076 92.4115 88.7405C92.4972 89.6439 92.9832 90.4559 93.6694 90.616C93.7912 90.6427 93.9174 90.6423 94.0389 90.6146C94.1605 90.5869 94.2745 90.5327 94.3727 90.4559C94.4813 90.3472 94.4985 90.2443 94.4813 90.2386Z" fill="#D08A66"/>
<path d="M90.4732 81.7019C90.4732 81.7019 90.3474 81.5304 90.3874 81.1759C90.4353 80.9354 90.5354 80.7083 90.6806 80.5107C90.8259 80.3131 91.0127 80.1498 91.228 80.0323C91.8722 79.7256 92.5732 79.5562 93.2864 79.5348C93.6854 79.5349 94.0788 79.4407 94.4346 79.2598C94.7903 79.079 95.0982 78.8166 95.3333 78.4942C95.7068 77.7671 95.8314 76.9375 95.6879 76.1327C95.5792 75.378 95.3791 74.6976 95.2819 74.1086C95.1008 73.4776 95.1108 72.8071 95.3105 72.1817C95.3144 72.8126 95.3854 73.4413 95.522 74.0572C95.6478 74.629 95.8708 75.2979 96.0081 76.0927C96.1807 76.972 96.0476 77.8839 95.6307 78.6772C95.3827 79.0872 95.0071 79.4045 94.5614 79.5806C94.1624 79.7286 93.7449 79.821 93.3207 79.855C92.6445 79.859 91.9751 79.9909 91.348 80.2439C91.1517 80.3448 90.9773 80.4837 90.835 80.6525C90.6927 80.8214 90.5852 81.0167 90.5189 81.2273C90.4933 81.3843 90.478 81.5429 90.4732 81.7019Z" fill="#455A64"/>
<path d="M89.387 79.7521C89.387 79.7521 89.2897 79.6263 89.2497 79.3462C89.2035 78.9511 89.2814 78.5514 89.4727 78.2026C89.604 77.9548 89.785 77.7368 90.0045 77.5622C90.261 77.3697 90.5552 77.2334 90.8679 77.162C91.1712 77.097 91.4599 76.9768 91.7198 76.8075C91.8347 76.7047 91.9248 76.5772 91.9832 76.4346C92.0417 76.292 92.067 76.1379 92.0572 75.9841C92.0572 75.6467 92.0171 75.2865 92.0286 74.9263C92.0333 74.5822 92.0716 74.2394 92.1429 73.9028C92.2584 73.3341 92.4774 72.7914 92.7891 72.3018C92.8882 72.1222 93.0306 71.9701 93.2033 71.8593C93.376 71.7485 93.5736 71.6824 93.7782 71.6671C94.0756 71.6671 94.2014 71.8044 94.1899 71.8158C94.1785 71.8272 94.0413 71.7643 93.7897 71.8158C93.6178 71.8525 93.4566 71.9283 93.3188 72.0374C93.181 72.1465 93.0701 72.2859 92.9949 72.4448C92.7368 72.9244 92.5555 73.4414 92.4574 73.9771C92.4021 74.2944 92.3734 74.6157 92.3717 74.9377C92.3717 75.2694 92.4231 75.6239 92.406 76.0127C92.4143 76.2162 92.3759 76.4189 92.2936 76.6053C92.2113 76.7917 92.0874 76.9567 91.9314 77.0876C91.6362 77.2852 91.3033 77.4196 90.9536 77.4822C90.6933 77.5267 90.4453 77.6262 90.2265 77.7741C90.0076 77.922 89.8227 78.1149 89.6843 78.3398C89.4494 78.7715 89.346 79.2624 89.387 79.7521Z" fill="#455A64"/>
<path d="M115.666 67.8991C115.695 67.8991 115.329 68.1449 114.74 67.8705C114.408 67.6906 114.118 67.4432 113.888 67.1443C113.604 66.7724 113.251 66.4597 112.847 66.2237C112.322 65.9285 111.723 65.7925 111.122 65.8321C110.521 65.8717 109.944 66.0852 109.462 66.4467C108.89 66.847 108.416 67.413 107.747 67.8819C107.407 68.1342 107.017 68.3115 106.603 68.4022C106.175 68.4772 105.735 68.4357 105.328 68.2821C104.516 67.9905 103.876 67.4931 103.178 67.2415C102.505 66.9831 101.79 66.8531 101.069 66.8584C99.8264 66.8569 98.6193 67.2693 97.6378 68.0306C96.9822 68.5427 96.4376 69.1827 96.0368 69.9117C95.7567 70.432 95.6537 70.7522 95.6251 70.7408C95.5966 70.7294 95.6251 70.655 95.6709 70.5007C95.7356 70.278 95.8159 70.0602 95.911 69.8488C96.2803 69.0702 96.8173 68.3829 97.4834 67.8362C98.487 67.0158 99.7382 66.5584 101.034 66.5382C101.797 66.5184 102.557 66.6485 103.27 66.9213C104.025 67.1958 104.676 67.6932 105.414 67.9505C105.763 68.0851 106.143 68.1226 106.512 68.0591C106.87 67.9771 107.207 67.8213 107.501 67.6017C108.101 67.1729 108.605 66.6068 109.216 66.1837C109.782 65.76 110.471 65.533 111.178 65.5376C111.78 65.542 112.372 65.7036 112.893 66.0065C113.31 66.2727 113.673 66.6162 113.962 67.0185C114.163 67.3123 114.421 67.5615 114.723 67.7504C115.006 67.9192 115.344 67.9724 115.666 67.8991Z" fill="#455A64"/>
<path d="M106.649 90.2786C106.792 90.2786 106.952 91.2049 107.89 91.7481C108.827 92.2913 109.828 92.0168 109.862 92.1484C109.896 92.2799 109.662 92.3771 109.233 92.4571C108.673 92.5612 108.094 92.464 107.598 92.1827C107.123 91.9079 106.771 91.4619 106.614 90.9362C106.512 90.5417 106.58 90.2844 106.649 90.2786Z" fill="#263238" fill-opacity="0.5"/>
<path d="M165.817 179.62C164.076 178.124 161.818 177.372 159.528 177.527L155.662 189.803C158.493 189.929 161.317 191.387 164.05 190.638C165.142 190.301 166.114 189.659 166.853 188.788C167.592 187.917 168.065 186.852 168.219 185.72C168.338 184.585 168.182 183.438 167.764 182.377C167.346 181.315 166.678 180.369 165.817 179.62Z" fill="#FF2156"/>
<path d="M159.574 177.247C159.574 177.149 159.991 177.069 160.717 177.075C161.798 177.095 162.867 177.298 163.879 177.676C165.426 178.278 166.765 179.317 167.733 180.666C168.324 181.466 168.761 182.37 169.019 183.33C169.299 184.382 169.331 185.484 169.111 186.55C168.898 187.63 168.416 188.638 167.71 189.483C167.034 190.252 166.177 190.841 165.217 191.198C163.657 191.75 161.975 191.859 160.357 191.513C159.316 191.309 158.3 190.992 157.326 190.569C156.646 190.278 156.286 190.06 156.32 189.963C156.354 189.866 156.766 189.894 157.464 190.015C158.161 190.135 159.219 190.358 160.477 190.472C161.904 190.63 163.347 190.434 164.68 189.9C165.41 189.591 166.057 189.113 166.566 188.505C167.101 187.84 167.466 187.055 167.63 186.218C167.787 185.388 167.775 184.535 167.595 183.71C167.416 182.885 167.072 182.104 166.584 181.415C165.796 180.222 164.712 179.252 163.439 178.602C162.536 178.176 161.592 177.846 160.62 177.618C159.962 177.47 159.562 177.35 159.574 177.247Z" fill="#F5F5F5"/>
<path d="M123.763 223.304L115.358 246.855L144.604 257.462C145.45 254.603 132.351 243.511 132.351 243.511L138.355 228.644L123.763 223.304Z" fill="#FF2156"/>
<g opacity="0.6">
<path opacity="0.6" d="M123.768 238.965C123.455 238.948 123.148 239.047 122.904 239.244C122.66 239.44 122.497 239.719 122.447 240.028C122.419 240.339 122.511 240.649 122.705 240.894C122.899 241.138 123.179 241.299 123.488 241.343C123.821 241.361 124.149 241.254 124.407 241.042C124.665 240.831 124.835 240.53 124.883 240.2C124.883 239.577 124.265 238.862 123.648 238.948" fill="white"/>
</g>
<path d="M115.358 246.855L116.209 244.483L143.987 255.564C143.987 255.564 145.084 256.599 144.604 257.462L115.358 246.855Z" fill="white"/>
<path d="M132.882 243.533C132.825 243.676 132.087 243.482 131.218 243.688C130.349 243.894 129.755 244.357 129.646 244.26C129.537 244.162 130.046 243.408 131.104 243.179C132.162 242.95 132.957 243.413 132.882 243.533Z" fill="#263238" fill-opacity="0.5"/>
<path d="M135.513 245.918C135.513 246.066 134.787 246.084 134.083 246.489C133.38 246.895 133.008 247.507 132.865 247.45C132.722 247.393 132.928 246.552 133.815 246.032C134.701 245.512 135.513 245.78 135.513 245.918Z" fill="#263238" fill-opacity="0.5"/>
<path d="M135.896 250.217C135.759 250.217 135.816 249.417 136.468 248.765C137.119 248.113 137.897 248.05 137.914 248.193C137.931 248.336 137.371 248.599 136.845 249.143C136.319 249.686 136.044 250.258 135.896 250.217Z" fill="#263238" fill-opacity="0.5"/>
<path d="M133.872 239.994C133.763 240.103 133.18 239.668 132.357 239.422C131.533 239.176 130.807 239.211 130.779 239.062C130.75 238.913 131.533 238.622 132.494 238.919C133.455 239.216 133.986 239.908 133.872 239.994Z" fill="#263238" fill-opacity="0.5"/>
<path d="M134.432 236.272C133.907 236.226 133.404 236.04 132.974 235.734C132.478 235.451 132.021 235.105 131.613 234.705C131.369 234.472 131.142 234.221 130.933 233.956C130.801 233.806 130.693 233.636 130.613 233.453C130.555 233.317 130.545 233.167 130.583 233.025C130.621 232.883 130.706 232.758 130.824 232.67C130.932 232.596 131.055 232.548 131.184 232.531C131.313 232.513 131.444 232.525 131.567 232.567C131.753 232.633 131.928 232.726 132.088 232.841C132.373 233.032 132.641 233.248 132.888 233.487C133.301 233.888 133.649 234.351 133.917 234.859C134.211 235.305 134.361 235.83 134.346 236.363C134.266 236.363 134.095 235.82 133.597 235.048C133.302 234.604 132.952 234.199 132.557 233.842C132.322 233.632 132.072 233.44 131.808 233.27C131.527 233.075 131.264 232.978 131.139 233.087C131.013 233.196 131.076 233.15 131.11 233.264C131.169 233.399 131.248 233.524 131.344 233.636C131.532 233.89 131.736 234.13 131.956 234.356C132.327 234.747 132.735 235.101 133.174 235.414C133.929 235.957 134.466 236.197 134.432 236.272Z" fill="#263238" fill-opacity="0.5"/>
<path d="M134.175 236.42C134.051 235.902 134.095 235.357 134.3 234.865C134.474 234.314 134.738 233.796 135.084 233.333C135.291 233.061 135.522 232.808 135.776 232.578C135.926 232.414 136.116 232.292 136.327 232.222C136.538 232.152 136.763 232.137 136.982 232.178C137.111 232.229 137.223 232.316 137.305 232.428C137.387 232.541 137.436 232.674 137.445 232.812C137.456 233.004 137.44 233.197 137.399 233.384C137.309 233.848 137.127 234.29 136.864 234.683C136.601 235.075 136.262 235.412 135.867 235.671C135.021 236.243 134.363 236.175 134.369 236.123C134.375 236.072 134.941 235.94 135.65 235.368C136.053 235.04 136.381 234.628 136.61 234.162C136.744 233.891 136.838 233.602 136.891 233.304C136.959 232.978 136.931 232.681 136.805 232.675C136.676 232.67 136.548 232.694 136.429 232.744C136.31 232.795 136.204 232.871 136.119 232.967C135.882 233.168 135.663 233.39 135.467 233.63C135.132 234.04 134.858 234.496 134.655 234.985C134.3 235.849 134.26 236.42 134.175 236.42Z" fill="#263238" fill-opacity="0.5"/>
<path d="M95.4308 160.408C90.9938 160.511 86.7854 161.134 83.7264 164.353C79.6725 168.624 74.6637 174.702 74.3778 178.916C73.9547 185.206 77.757 187.093 80.5301 188.637C81.7568 189.3 83.1391 189.622 84.5326 189.569L135.81 189.18L137.417 180.494L104.253 172.318L105.631 159.836L95.4308 160.408Z" fill="#263238" fill-opacity="0.5"/>
<path d="M105.66 159.83L121.79 159.087C121.79 159.087 149.659 160.636 155.6 166.085C161.54 171.535 160.803 177.727 158.819 183.668C156.835 189.609 139.378 227.626 139.378 227.626C139.378 227.626 140.796 230.045 140.001 232.458C139.68 233.515 139.089 234.47 138.287 235.23C137.485 235.989 136.5 236.528 135.427 236.792L119.92 231.074C119.92 231.074 117.816 230.331 119.303 228.347C120.79 226.363 121.779 225.997 121.779 225.997V222.034C121.779 222.034 127.228 212.125 127.72 210.765C128.211 209.404 133.437 189.243 133.437 189.243L136.908 183.279C136.908 183.279 128.52 179.334 121.247 176.475L104.265 172.289L105.66 159.83Z" fill="#263238" fill-opacity="0.5"/>
<path d="M131.825 230.377C131.356 230.104 130.901 229.806 130.464 229.485C128.273 228.065 125.806 227.128 123.225 226.734C122.684 226.682 122.146 226.602 121.613 226.494C122.157 226.431 122.707 226.441 123.248 226.523C125.893 226.805 128.42 227.767 130.584 229.313C131.043 229.612 131.46 229.969 131.825 230.377Z" fill="#455A64"/>
<path d="M139.572 227.655C139.234 227.378 138.932 227.059 138.674 226.706C138.148 226.094 137.451 225.225 136.725 224.23C135.998 223.235 135.369 222.315 134.941 221.634C134.685 221.278 134.47 220.895 134.3 220.491C134.607 220.801 134.879 221.144 135.112 221.514L136.965 224.053C137.657 224.991 138.291 225.837 138.84 226.574C139.123 226.907 139.368 227.269 139.572 227.655Z" fill="#455A64"/>
<path d="M145.233 177.858C145.233 177.904 144.661 178.03 143.763 178.327C141.413 179.103 139.283 180.433 137.554 182.204C137.216 182.593 136.86 182.965 136.485 183.319C136.726 182.857 137.035 182.433 137.399 182.061C138.231 181.122 139.194 180.307 140.258 179.642C141.322 178.973 142.478 178.462 143.689 178.127C144.187 177.96 144.708 177.869 145.233 177.858Z" fill="#455A64"/>
<path d="M129.395 204.778C129.401 204.663 129.422 204.55 129.457 204.441L129.698 203.497L130.624 200.038L133.797 188.654C134.443 186.43 134.992 184.314 135.616 182.393C136.274 180.723 137.268 179.207 138.537 177.939C139.375 177.079 140.303 176.312 141.305 175.651C141.665 175.423 141.945 175.251 142.145 175.148C142.241 175.087 142.343 175.036 142.448 174.994C142.448 174.994 142.06 175.257 141.373 175.743C140.405 176.435 139.505 177.218 138.686 178.082C137.462 179.345 136.505 180.842 135.873 182.484C135.301 184.377 134.729 186.521 134.083 188.734L130.83 200.089C130.407 201.513 130.058 202.674 129.806 203.52C129.686 203.898 129.595 204.206 129.515 204.446C129.49 204.562 129.449 204.673 129.395 204.778Z" fill="#455A64"/>
<path d="M115.129 175.737C115.043 175.737 114.705 172.73 114.368 169.002C114.031 165.274 113.796 162.243 113.911 162.237C114.025 162.232 114.328 165.245 114.665 168.973C115.003 172.701 115.209 175.731 115.129 175.737Z" fill="#455A64"/>
<path d="M88.2778 183.816C88.2321 183.816 87.9862 183.353 87.4773 182.639C86.8203 181.709 86.0327 180.879 85.1387 180.174C84.2377 179.478 83.2424 178.914 82.1826 178.499C81.365 178.179 80.8332 178.059 80.8446 178.007C81.3259 178.03 81.8006 178.128 82.2512 178.299C84.4873 179.036 86.3974 180.528 87.6546 182.519C87.9321 182.914 88.1427 183.353 88.2778 183.816Z" fill="#455A64"/>
<path d="M98.1583 172.838C98.1583 172.884 97.4493 172.449 96.2657 171.906C93.1602 170.496 89.7158 170.004 86.3396 170.488C85.053 170.671 84.2697 170.9 84.2583 170.848C84.4246 170.754 84.6037 170.685 84.79 170.643C85.2869 170.489 85.793 170.367 86.3052 170.277C89.7202 169.677 93.2372 170.182 96.3457 171.718C96.8118 171.948 97.2625 172.207 97.6951 172.495C97.8647 172.587 98.0206 172.703 98.1583 172.838Z" fill="#455A64"/>
<path d="M136.788 180.477C136.65 180.47 136.514 180.447 136.382 180.409L135.238 180.163L131.064 179.242C127.536 178.453 122.653 177.39 117.239 176.32C111.824 175.251 106.906 174.365 103.344 173.753L99.1187 173.027L97.9752 172.827C97.8401 172.811 97.7076 172.778 97.5806 172.73C97.7165 172.733 97.852 172.745 97.9866 172.764L99.1302 172.913C100.131 173.05 101.577 173.267 103.367 173.547C106.941 174.119 111.869 174.954 117.29 176.029C122.71 177.104 127.582 178.196 131.104 179.036C132.86 179.459 134.283 179.814 135.261 180.071L136.405 180.369C136.535 180.393 136.664 180.43 136.788 180.477Z" fill="#455A64"/>
<path d="M104.282 173.782C104.225 173.782 104.105 173.107 103.573 172.146C103.262 171.592 102.877 171.082 102.429 170.631C101.865 170.075 101.265 169.556 100.634 169.076C99.4713 168.217 98.2419 167.452 96.9575 166.789C96.4141 166.53 95.8904 166.232 95.3908 165.897C95.9662 166.079 96.5233 166.314 97.0547 166.6C98.3816 167.215 99.6423 167.964 100.817 168.836C101.457 169.324 102.06 169.857 102.624 170.431C103.083 170.907 103.468 171.448 103.767 172.038C103.973 172.436 104.128 172.859 104.231 173.296C104.278 173.453 104.295 173.618 104.282 173.782Z" fill="#455A64"/>
<path d="M161.397 181.529C161.46 181.598 160.602 182.461 159.933 183.782C159.264 185.103 159.047 186.292 158.961 186.275C158.959 185.351 159.204 184.443 159.67 183.645C160.049 182.8 160.645 182.07 161.397 181.529Z" fill="#263238" fill-opacity="0.5"/>
<g opacity="0.3">
<path opacity="0.3" d="M124.695 122.945L128.366 148.8L128.548 149.212C129.409 140.273 128.087 131.259 124.695 122.945Z" fill="black"/>
</g>
<path d="M144.461 137.799L132.528 158.658L103.121 159.298L103.046 160.631L131.521 160.419L132.425 160.385L162.489 160.448L168.567 149.967L176.332 138.84C176.444 138.675 176.509 138.482 176.52 138.283C176.531 138.084 176.488 137.885 176.394 137.708C176.301 137.532 176.161 137.384 175.99 137.282C175.818 137.179 175.622 137.124 175.423 137.125L145.41 137.239C145.216 137.241 145.026 137.293 144.86 137.392C144.693 137.49 144.555 137.631 144.461 137.799Z" fill="#E0E0E0"/>
<path d="M168.567 149.984C168.567 149.984 170.111 151.402 169.871 152.603C169.631 153.804 169.705 154.701 168.567 154.781C168.589 155.221 168.44 155.652 168.153 155.985C167.866 156.318 167.461 156.528 167.024 156.571C167.024 156.571 167.372 158.458 165.177 158.784C165.177 158.784 164.502 160.802 163.118 160.311C162.321 160.039 161.554 159.685 160.831 159.253L160.425 158.521C160.425 158.521 158.384 157.755 158.887 156.605C159.196 155.908 160.248 155.725 160.248 155.725C160.127 155.438 160.076 155.127 160.099 154.817C160.121 154.507 160.218 154.207 160.38 153.941C160.866 153.283 162.455 153.827 162.455 153.827C162.422 153.263 162.602 152.708 162.958 152.271C163.53 151.625 166.034 153.369 166.034 153.369L167.412 151.722L168.567 149.984Z" fill="#FFBE9D"/>
<path d="M165.176 158.784C164.285 158.404 163.434 157.935 162.638 157.383C161.789 156.915 160.992 156.359 160.259 155.725C161.15 156.108 162 156.579 162.798 157.131C163.644 157.601 164.441 158.154 165.176 158.784Z" fill="#D08A66"/>
<path d="M167.023 156.571C166.194 156.245 165.404 155.827 164.667 155.325C163.881 154.908 163.143 154.405 162.466 153.826C163.297 154.15 164.087 154.568 164.822 155.073C165.609 155.49 166.347 155.992 167.023 156.571Z" fill="#D08A66"/>
<path d="M164.508 152.431C164.554 152.346 165.497 152.843 166.595 153.541C167.275 153.933 167.93 154.369 168.556 154.844C168.516 154.941 167.533 154.495 166.435 153.792C165.746 153.408 165.1 152.952 164.508 152.431Z" fill="#D08A66"/>
<path d="M176.332 137.925C176.285 137.933 176.237 137.933 176.189 137.925H175.766H174.142L168.173 137.971L148.475 138.017H147.04C146.829 137.997 146.616 138.034 146.423 138.124C146.231 138.215 146.067 138.355 145.948 138.531C145.49 139.347 145.044 140.151 144.61 140.944L142.071 145.519L137.766 153.255C136.542 155.439 135.541 157.211 134.838 158.464C134.501 159.035 134.226 159.527 134.032 159.87L133.815 160.23L133.735 160.351C133.735 160.351 133.735 160.299 133.786 160.213L133.98 159.836L134.741 158.407L137.6 153.152L141.854 145.381C142.654 143.923 143.501 142.391 144.37 140.807L145.713 138.377C145.86 138.159 146.062 137.985 146.298 137.87C146.533 137.756 146.796 137.706 147.057 137.725H148.492L168.19 137.765L174.16 137.817L175.783 137.845H176.207C176.253 137.865 176.295 137.892 176.332 137.925Z" fill="#263238" fill-opacity="0.5"/>
<path d="M155.177 148.417C155.038 148.618 154.96 148.855 154.952 149.099C154.945 149.343 155.008 149.584 155.134 149.793C155.259 150.003 155.443 150.171 155.662 150.279C155.881 150.386 156.127 150.428 156.37 150.399C156.612 150.371 156.841 150.273 157.029 150.117C157.218 149.962 157.357 149.755 157.431 149.523C157.505 149.29 157.51 149.041 157.446 148.805C157.382 148.57 157.251 148.358 157.069 148.194C156.788 147.975 156.431 147.875 156.077 147.917C155.723 147.959 155.399 148.139 155.177 148.417Z" fill="white"/>
<g opacity="0.3">
<path opacity="0.3" d="M71.6961 140.361C71.4445 140.464 71.1529 140.635 71.1529 140.933C71.162 141.043 71.2082 141.148 71.284 141.228C71.3597 141.309 71.4606 141.362 71.5703 141.379C71.9897 141.319 72.4005 141.21 72.7939 141.053C75.8873 140.372 78.4317 141.024 81.3707 142.196L81.4679 142.099C80.3014 139.566 75.0239 139.006 71.6961 140.361Z" fill="black"/>
</g>
<path d="M231 256.433C231 256.513 179.282 256.582 115.5 256.582C51.7177 256.582 0 256.49 0 256.433C0 256.376 51.7063 256.284 115.5 256.284C179.294 256.284 231 256.324 231 256.433Z" fill="#263238" fill-opacity="0.5"/>
<path d="M55.7034 74.1544C55.8006 74.2516 74.7895 67.7276 74.7895 67.7276L67.4707 50.9744L50.586 57.4527L59.8831 62.7931L55.7034 74.1544Z" fill="#455A64"/>
<path d="M64.6112 56.0175V33.2091C64.6112 33.2091 90.8046 28.4176 109.679 28.7035C128.554 28.9893 147.988 32.0827 147.988 32.0827V53.9819C147.988 53.9819 88.8319 48.6987 64.6112 56.0175Z" fill="#455A64"/>
<path d="M64.4744 56.0404L74.7664 67.8248V53.982C74.7664 53.982 66.1611 55.0112 64.4744 56.0404Z" fill="#263238" fill-opacity="0.5"/>
<path d="M64.6116 33.2034C64.6974 33.2034 64.7317 38.3494 64.6974 44.639C64.6631 50.9286 64.5601 56.0747 64.4801 56.0747C64.4 56.0747 64.36 50.9629 64.3943 44.639C64.4286 38.3151 64.5258 33.2034 64.6116 33.2034Z" fill="#263238" fill-opacity="0.5"/>
<path d="M156.851 72.4048C156.754 72.502 137.765 65.9779 137.765 65.9779L145.067 49.219L161.969 55.6859L152.666 61.0263L156.851 72.4048Z" fill="#455A64"/>
<path d="M148.092 54.2907L137.8 66.0752V53.233C141.25 53.3511 144.689 53.7045 148.092 54.2907Z" fill="#263238" fill-opacity="0.5"/>
<path d="M147.977 32.0827C148.057 32.0827 148.149 37.0515 148.177 43.1867C148.206 49.3219 148.177 54.2907 148.08 54.2907C147.983 54.2907 147.909 49.3219 147.88 43.1867C147.851 37.0515 147.891 32.0827 147.977 32.0827Z" fill="#263238" fill-opacity="0.5"/>
<path d="M79.3805 43.2095C79.3265 42.5529 79.4673 41.8949 79.7853 41.3179C80.1033 40.7408 80.5844 40.2704 81.1683 39.9653C81.7523 39.6602 82.4132 39.534 83.0685 39.6025C83.7238 39.6711 84.3443 39.9313 84.8525 40.3506L84.052 41.3112C83.8365 41.1146 83.5802 40.968 83.3015 40.882C83.0227 40.796 82.7284 40.7727 82.4396 40.8138C81.927 40.8851 81.4637 41.157 81.1517 41.5699C80.8397 41.9827 80.7044 42.5026 80.7757 43.0151C80.8469 43.5277 81.1189 43.991 81.5317 44.303C81.9446 44.615 82.4645 44.7503 82.977 44.679C83.2677 44.6408 83.5461 44.5377 83.7915 44.3774C84.037 44.217 84.2433 44.0036 84.3951 43.7527L85.4014 44.456C85.0286 44.9984 84.504 45.4188 83.8934 45.6645C83.2827 45.9101 82.6132 45.9702 81.9686 45.8371C81.324 45.704 80.733 45.3838 80.2696 44.9164C79.8062 44.449 79.4909 43.8553 79.3634 43.2095H79.3805Z" fill="white"/>
<path d="M85.6187 42.3519C85.5122 41.6917 85.6064 41.0149 85.8891 40.4089C86.1717 39.8029 86.6298 39.2957 87.2039 38.953C87.7781 38.6103 88.442 38.4479 89.1095 38.4868C89.777 38.5257 90.4175 38.7641 90.948 39.1711C91.4785 39.5782 91.8746 40.1351 92.085 40.7698C92.2953 41.4045 92.3103 42.0878 92.1279 42.7311C91.9455 43.3744 91.5742 43.9482 91.062 44.378C90.5498 44.8079 89.9204 45.0741 89.2552 45.1422C88.8316 45.2098 88.3986 45.1903 87.9828 45.0849C87.567 44.9796 87.177 44.7906 86.8366 44.5294C86.4963 44.2683 86.2128 43.9405 86.0033 43.5661C85.7939 43.1917 85.663 42.7786 85.6187 42.3519ZM90.8276 41.8144C90.7811 41.4434 90.6264 41.0943 90.3829 40.8107C90.1393 40.527 89.8176 40.3213 89.4579 40.2193C89.0982 40.1173 88.7164 40.1234 88.3601 40.237C88.0039 40.3505 87.689 40.5664 87.4546 40.8578C87.2203 41.1491 87.0769 41.503 87.0424 41.8753C87.0079 42.2476 87.0838 42.6218 87.2605 42.9513C87.4373 43.2808 87.7072 43.5509 88.0365 43.728C88.3658 43.9051 88.7399 43.9813 89.1123 43.9472C89.369 43.9303 89.6194 43.8603 89.8477 43.7416C90.076 43.6228 90.2771 43.458 90.4383 43.2575C90.5996 43.057 90.7175 42.8252 90.7845 42.5768C90.8515 42.3284 90.8662 42.0688 90.8276 41.8144Z" fill="white"/>
<path d="M99.096 44.2559L98.8502 40.608L97.2549 43.7299L96.6259 43.7699L94.6533 40.9567L94.8877 44.5247L93.5669 44.6104L93.201 38.5324L94.3445 38.4581L96.8604 42.0889L98.8559 38.1722L99.9994 38.0978L100.411 44.1702L99.096 44.2559Z" fill="white"/>
<path d="M106.969 40.0933C107.004 41.4542 106.009 42.3233 104.385 42.3805L103.155 42.4148L103.207 44.0958L101.795 44.1358L101.623 38.0121L104.259 37.9377C105.889 37.9149 106.923 38.7325 106.969 40.0933ZM105.54 40.1334C105.54 39.4644 105.077 39.087 104.213 39.1099L103.07 39.1442L103.133 41.2598L104.276 41.2255C105.134 41.2026 105.557 40.7966 105.54 40.1334Z" fill="white"/>
<path d="M108.067 37.8806H109.474V42.8208H112.527V43.9643H108.067V37.8806Z" fill="white"/>
<path d="M117.988 42.998V44.1415L113.27 44.0043L113.448 37.9148L118.022 38.0521L117.988 39.1956L114.786 39.0984L114.751 40.425L117.576 40.505L117.542 41.6028L114.717 41.5171L114.677 42.9294L117.988 42.998Z" fill="white"/>
<path d="M120.595 39.3272L118.651 39.2128L118.719 38.0692L124.014 38.3894L123.945 39.533L122.001 39.4129L121.704 44.3474L120.297 44.2616L120.595 39.3272Z" fill="white"/>
<path d="M129.143 43.8328L129.04 44.9764L124.34 44.5418L124.912 38.4809L129.486 38.9041L129.383 40.0476L126.192 39.7274L126.072 41.0482L128.885 41.3055L128.788 42.3976L125.969 42.1403L125.844 43.5412L129.143 43.8328Z" fill="white"/>
<path d="M130.904 39.0356L133.643 39.4015C135.616 39.6646 136.811 41.0311 136.57 42.8322C136.33 44.6334 134.809 45.6912 132.837 45.4053L130.098 45.0393L130.904 39.0356ZM132.923 44.2788C133.171 44.3188 133.426 44.3085 133.671 44.2485C133.915 44.1885 134.146 44.0801 134.348 43.9296C134.55 43.7791 134.72 43.5897 134.848 43.3724C134.976 43.1552 135.059 42.9145 135.092 42.6646C135.125 42.4148 135.108 42.1608 135.041 41.9177C134.975 41.6746 134.86 41.4472 134.705 41.2491C134.549 41.051 134.355 40.8862 134.134 40.7643C133.913 40.6424 133.671 40.5659 133.42 40.5394L132.145 40.3679L131.647 44.1073L132.923 44.2788Z" fill="white"/>
<path d="M159.693 34.1582L161.191 35.9135L165.41 34.1582L164.175 32.3113L159.693 34.1582Z" fill="#455A64"/>
<path d="M157.76 25.8044C157.76 26.2387 157.631 26.6632 157.39 27.0243C157.149 27.3853 156.806 27.6668 156.405 27.833C156.004 27.9991 155.562 28.0426 155.136 27.9579C154.71 27.8732 154.319 27.6641 154.012 27.357C153.705 27.0499 153.496 26.6587 153.411 26.2328C153.326 25.8069 153.37 25.3654 153.536 24.9642C153.702 24.563 153.984 24.2201 154.345 23.9788C154.706 23.7376 155.13 23.6088 155.565 23.6088C156.146 23.6103 156.704 23.8421 157.115 24.2536C157.527 24.665 157.759 25.2226 157.76 25.8044Z" fill="#FF2156"/>
<path d="M108.576 58.5561C108.575 58.7737 108.509 58.9861 108.387 59.1662C108.265 59.3463 108.092 59.4861 107.89 59.5678C107.688 59.6495 107.467 59.6694 107.254 59.625C107.041 59.5806 106.846 59.4738 106.694 59.3184C106.541 59.1629 106.439 58.9657 106.399 58.7518C106.359 58.5379 106.383 58.3169 106.469 58.117C106.555 57.917 106.699 57.7471 106.881 57.6288C107.064 57.5105 107.277 57.4492 107.495 57.4526C107.784 57.4571 108.06 57.5755 108.262 57.7822C108.465 57.9888 108.577 58.2669 108.576 58.5561Z" fill="#FF2156"/>
<path d="M57.4296 42.0545C57.4295 42.2201 57.3803 42.382 57.288 42.5195C57.1958 42.657 57.0647 42.764 56.9115 42.8268C56.7583 42.8897 56.5899 42.9055 56.4276 42.8724C56.2654 42.8392 56.1167 42.7586 56.0004 42.6407C55.8841 42.5228 55.8055 42.373 55.7746 42.2103C55.7437 42.0476 55.7619 41.8794 55.8268 41.7271C55.8918 41.5747 56.0005 41.4452 56.1393 41.3548C56.2781 41.2645 56.4406 41.2175 56.6062 41.2197C56.8256 41.2227 57.035 41.312 57.1891 41.4682C57.3432 41.6245 57.4296 41.8351 57.4296 42.0545Z" fill="#FF2156"/>
<path d="M54.3307 32.866L56.7894 33.0146L57.9558 28.1774L55.6572 28.2746L54.3307 32.866Z" fill="#455A64"/>
<path d="M131.178 71.4784L132.007 73.7999L136.913 72.9765L135.924 70.9009L131.178 71.4784Z" fill="#FF2156"/>
<path d="M81.559 58.0815L80.0438 60.0256L83.3658 63.725L84.5895 61.7752L81.559 58.0815Z" fill="#455A64"/>
<path d="M75.6871 12.4134L81.4907 18.3313L89.6615 15.2437L89.9874 17.2735L86.4481 24.518L89.7129 29.9271L89.4385 31.5452L81.5307 30.213L76.8536 35.3419L75.7557 34.5128L74.7894 27.9887L67.4134 24.1464L67.0875 22.654L74.515 20.6242L75.6871 12.4134Z" fill="#FF2156"/>
<g opacity="0.3">
<path opacity="0.3" d="M75.6871 12.4134L81.4907 18.3313L89.6615 15.2437L89.9874 17.2735L86.4481 24.518L89.7129 29.9271L89.4385 31.5452L81.5307 30.213L76.8536 35.3419L75.7557 34.5128L74.7894 27.9887L67.4134 24.1464L67.0875 22.654L74.515 20.6242L75.6871 12.4134Z" fill="black"/>
</g>
<path d="M75.6871 10.7495L81.4907 16.6732L89.6615 15.2437L85.8248 22.5968L89.7129 29.9271L81.5307 28.5548L75.7557 34.5128L74.5378 26.3077L67.0875 22.654L74.515 18.9603L75.6871 10.7495Z" fill="#FF2156"/>
<path d="M135.867 12.4134L130.058 18.3313L121.887 15.2437L121.561 17.2735L125.101 24.518L121.836 29.9271L122.11 31.5452L130.018 30.213L134.695 35.3419L135.793 34.5128L136.759 27.9887L144.135 24.1464L144.461 22.654L137.034 20.6242L135.867 12.4134Z" fill="#FF2156"/>
<g opacity="0.3">
<path opacity="0.3" d="M135.867 12.4134L130.058 18.3313L121.887 15.2437L121.561 17.2735L125.101 24.518L121.836 29.9271L122.11 31.5452L130.018 30.213L134.695 35.3419L135.793 34.5128L136.759 27.9887L144.135 24.1464L144.461 22.654L137.034 20.6242L135.867 12.4134Z" fill="black"/>
</g>
<path d="M135.867 10.7495L130.058 16.6732L121.887 15.2437L125.724 22.5968L121.836 29.9271L130.018 28.5548L135.793 34.5128L137.011 26.3077L144.461 22.654L137.034 18.9603L135.867 10.7495Z" fill="#FF2156"/>
<path d="M105.586 2.02414L110.417 11.4643L121.561 10.8067L121.184 13.4026L114.105 20.8987L116.021 28.7378L115.077 30.6075L105.934 25.9704L98.2783 30.4531L97.2548 29.018L98.5584 20.6871L91.0224 13.191L91.1939 11.2527L101.029 11.6015L105.586 2.02414Z" fill="#FF2156"/>
<g opacity="0.3">
<path opacity="0.3" d="M105.586 2.02414L110.417 11.4643L121.561 10.8067L121.184 13.4026L114.105 20.8987L116.021 28.7378L115.077 30.6075L105.934 25.9704L98.2783 30.4531L97.2548 29.018L98.5584 20.6871L91.0224 13.191L91.1939 11.2527L101.029 11.6015L105.586 2.02414Z" fill="black"/>
</g>
<path d="M106.215 0L111.046 9.43441L121.561 10.8067L114.077 18.3199L116.021 28.7378L106.569 23.9462L97.2548 29.0179L98.8958 18.5429L91.1939 11.2527L101.663 9.57163L106.215 0Z" fill="#FF2156"/>
<path d="M125.466 84.6861L133.54 85.5781C136.266 81.7193 140.336 79.0194 144.951 78.0092C149.567 76.9989 154.393 77.7513 158.481 80.1185C162.57 82.4857 165.625 86.2965 167.047 90.802C168.469 95.3074 168.154 100.182 166.165 104.467C164.175 108.752 160.655 112.138 156.296 113.96C151.937 115.782 147.054 115.907 142.607 114.312C138.16 112.716 134.471 109.515 132.264 105.338C130.057 101.16 129.493 96.3087 130.681 91.7362L125.466 84.6861Z" fill="#FAFAFA"/>
<path d="M125.466 84.6866C125.781 85.1098 127.416 87.2711 130.755 91.7024H130.635C130.639 91.693 130.646 91.6846 130.653 91.6779C130.661 91.6712 130.67 91.6662 130.68 91.6635C130.69 91.6608 130.7 91.6603 130.71 91.6621C130.72 91.6638 130.73 91.6679 130.738 91.6738C130.752 91.6819 130.762 91.6939 130.768 91.7083C130.775 91.7227 130.776 91.7386 130.773 91.7539C129.954 94.9616 129.998 98.3286 130.898 101.514C131.163 102.47 131.513 103.4 131.945 104.293C132.174 104.75 132.391 105.219 132.637 105.682L133.489 107.038C136.209 110.981 140.325 113.746 145.004 114.774C147.595 115.343 150.277 115.355 152.872 114.808C155.608 114.213 158.179 113.022 160.402 111.32C162.731 109.552 164.603 107.252 165.863 104.613C167.167 101.93 167.81 98.9734 167.738 95.9908C167.655 93.1375 166.932 90.3393 165.623 87.8029C164.391 85.3983 162.646 83.294 160.511 81.639C156.665 78.6663 151.825 77.2827 146.988 77.7738C144.945 78.019 142.95 78.5703 141.07 79.4091C138.08 80.7911 135.504 82.9319 133.597 85.6186C133.591 85.6296 133.582 85.6384 133.571 85.6435C133.559 85.6487 133.547 85.65 133.534 85.6472L125.466 84.6866L133.551 85.5043L133.483 85.5386C135.383 82.8154 137.972 80.6451 140.985 79.249C142.873 78.3786 144.885 77.8039 146.948 77.5451C151.851 77.026 156.765 78.4143 160.671 81.4218C162.843 83.0963 164.618 85.2304 165.869 87.6713C167.206 90.2443 167.942 93.0866 168.024 95.9851C168.1 99.0146 167.449 102.018 166.126 104.745C164.844 107.424 162.94 109.759 160.574 111.555C158.314 113.28 155.702 114.486 152.923 115.088C150.282 115.644 147.552 115.626 144.919 115.037C140.189 113.994 136.033 111.192 133.294 107.198L132.437 105.825C132.191 105.357 131.973 104.876 131.739 104.413C131.309 103.508 130.961 102.567 130.698 101.6C129.801 98.3803 129.778 94.98 130.63 91.7481L130.767 91.7996C130.756 91.8162 130.74 91.8283 130.721 91.8336C130.702 91.8389 130.682 91.8369 130.664 91.8282L125.466 84.6866Z" fill="#263238" fill-opacity="0.5"/>
<path d="M142.032 89.724C142.038 89.8116 142.038 89.8995 142.032 89.987C142.032 90.1757 142.032 90.4159 142.032 90.7189C142.032 91.3822 142.032 92.3028 142.066 93.4692C142.066 95.8421 142.106 99.187 142.134 103.19L142.003 103.058H155.457C155.491 103.024 155.177 103.338 155.308 103.201V101.371C155.308 100.771 155.308 100.17 155.308 99.5758V96.0937C155.308 93.8409 155.308 91.7081 155.308 89.7469L155.434 89.8784L145.714 89.8098L142.964 89.7812H142.232H141.969H142.203H142.912L145.628 89.7469L155.423 89.684H155.554V89.8098C155.554 91.771 155.554 93.9038 155.554 96.1566V103.195C155.691 103.064 155.377 103.384 155.406 103.35H141.951H141.82V103.195C141.82 99.1584 141.866 95.7906 141.883 93.4006C141.883 92.257 141.883 91.3307 141.917 90.6789C141.917 90.3873 141.917 90.1529 141.917 89.9699C141.944 89.8832 141.983 89.8005 142.032 89.724Z" fill="#263238" fill-opacity="0.5"/>
<path d="M154.033 91.9483C154.227 92.1027 152.42 94.71 149.99 97.7747C149.51 98.3865 149.035 98.9698 148.595 99.4901L148.309 99.8389L147.989 99.5473C145.885 97.6547 144.461 96.2023 144.587 96.0537C144.713 95.905 146.365 97.1057 148.544 98.9126L147.932 98.9698C148.349 98.398 148.807 97.8262 149.293 97.2201C151.717 94.1554 153.844 91.7996 154.033 91.9483Z" fill="#FF2156"/>
</svg>
