<svg width="42" height="40" viewBox="0 0 42 40" fill="none" xmlns="http://www.w3.org/2000/svg">
<path d="M18.1362 4.9639C15.5875 4.9639 13.0961 5.67848 10.9769 7.01728C8.85779 8.35607 7.20612 10.259 6.23079 12.4853C5.25546 14.7116 5.00027 17.1614 5.49749 19.5249C5.99471 21.8884 7.22201 24.0594 9.02418 25.7633C10.8264 27.4673 13.1225 28.6277 15.6222 29.0978C18.1219 29.568 20.7129 29.3267 23.0675 28.4045C25.4222 27.4823 27.4347 25.9207 28.8507 23.917C30.2667 21.9134 31.0224 19.5577 31.0224 17.1479C31.0222 13.9166 29.6645 10.8176 27.2479 8.53274C24.8313 6.24784 21.5537 4.9641 18.1362 4.9639V4.9639Z" stroke="#FF2156" stroke-width="2.5" stroke-miterlimit="10"/>
<path d="M27.7503 26.238L36.7499 34.7472" stroke="#FF2156" stroke-width="2.5" stroke-miterlimit="10" stroke-linecap="round"/>
<path d="M17.8501 10.0059C18.376 11.15 19.2389 12.7718 20.8282 14.6144C21.9488 15.9143 22.9588 17.643 22.9588 19.4C22.9588 22.2581 20.8094 24.2227 17.8501 24.2227C14.8907 24.2227 12.7414 22.2594 12.7414 19.4C12.7414 17.7164 13.755 15.9102 14.872 14.6144L17.8501 10.0059ZM17.8501 10.0059C17.3242 11.15 16.4613 12.7717 14.8721 14.6142L17.8501 10.0059Z" stroke="#FF2156" stroke-width="1.5"/>
<path d="M18.336 19.3332L18.336 19.3332C17.606 20.646 18.1965 21.5361 18.8102 21.7307L18.8104 21.7308C19.2758 21.8785 19.6527 21.794 19.9482 21.5719C20.2593 21.3382 20.5243 20.9163 20.6548 20.326L18.336 19.3332ZM18.336 19.3332C18.7643 18.5628 18.9864 17.7928 19.1465 17.2375M18.336 19.3332L19.1465 17.2375M19.1465 17.2375C19.1742 17.1417 19.2 17.0522 19.2247 16.9703M19.1465 17.2375L19.2247 16.9703M19.2247 16.9703C19.2825 16.7784 19.3276 16.6519 19.3634 16.5705M19.2247 16.9703L19.3634 16.5705M19.3634 16.5705C19.676 16.7539 20.0724 17.2089 20.3672 17.8858C20.6872 18.6205 20.836 19.5059 20.6549 20.3259L19.3634 16.5705Z" stroke="#FF2156"/>
</svg>
