<svg width="360" height="32" viewBox="0 0 360 32" fill="none" xmlns="http://www.w3.org/2000/svg">
<path d="M10.9695 1.89146C11.248 1.62815 11.6167 1.48145 12 1.48145C12.3833 1.48145 12.752 1.62815 13.0305 1.89146L20.2965 8.76146C20.7465 9.18596 21 9.77696 21 10.3965V18.75C21 19.3467 20.7629 19.919 20.341 20.3409C19.919 20.7629 19.3467 21 18.75 21H15.75C15.1533 21 14.581 20.7629 14.159 20.3409C13.7371 19.919 13.5 19.3467 13.5 18.75V15C13.5 14.801 13.421 14.6103 13.2803 14.4696C13.1397 14.329 12.9489 14.25 12.75 14.25H11.25C11.0511 14.25 10.8603 14.329 10.7197 14.4696C10.579 14.6103 10.5 14.801 10.5 15V18.75C10.5 19.3467 10.2629 19.919 9.84099 20.3409C9.41903 20.7629 8.84674 21 8.25 21H5.25C4.65326 21 4.08097 20.7629 3.65901 20.3409C3.23705 19.919 3 19.3467 3 18.75V10.395C3 9.77696 3.255 9.18596 3.705 8.75996L10.9695 1.89146ZM12 2.98196L4.734 9.85196C4.66024 9.92189 4.60146 10.0061 4.56123 10.0994C4.52101 10.1928 4.50017 10.2933 4.5 10.395V18.75C4.5 18.9489 4.57902 19.1396 4.71967 19.2803C4.86032 19.4209 5.05109 19.5 5.25 19.5H8.25C8.44891 19.5 8.63968 19.4209 8.78033 19.2803C8.92098 19.1396 9 18.9489 9 18.75V15C9 14.4032 9.23705 13.8309 9.65901 13.409C10.081 12.987 10.6533 12.75 11.25 12.75H12.75C13.3467 12.75 13.919 12.987 14.341 13.409C14.7629 13.8309 15 14.4032 15 15V18.75C15 18.9489 15.079 19.1396 15.2197 19.2803C15.3603 19.4209 15.5511 19.5 15.75 19.5H18.75C18.9489 19.5 19.1397 19.4209 19.2803 19.2803C19.421 19.1396 19.5 18.9489 19.5 18.75V10.395C19.5 10.2931 19.4793 10.1922 19.4391 10.0986C19.3988 10.005 19.3399 9.92056 19.266 9.85046L12 2.98196Z" fill="#FF2156"/>
<circle cx="12.5" cy="29.5" r="2.5" fill="#FF2156"/>
<g clip-path="url(#clip0_15_13)">
<path d="M249 12H255.5L258.75 4L266.062 20L268.5 12H275" stroke="#B3B3B3" stroke-width="2"/>
</g>
<path d="M348 2C345.243 2 343 4.243 343 7C343 9.757 345.243 12 348 12C350.757 12 353 9.757 353 7C353 4.243 350.757 2 348 2ZM348 10C346.346 10 345 8.654 345 7C345 5.346 346.346 4 348 4C349.654 4 351 5.346 351 7C351 8.654 349.654 10 348 10ZM357 21V20C357 16.141 353.859 13 350 13H346C342.14 13 339 16.141 339 20V21H341V20C341 17.243 343.243 15 346 15H350C352.757 15 355 17.243 355 20V21H357Z" fill="#B3B3B3"/>
<path d="M97 19C101.418 19 105 15.4183 105 11C105 6.58172 101.418 3 97 3C92.5817 3 89 6.58172 89 11C89 15.4183 92.5817 19 97 19Z" stroke="#B3B3B3" stroke-width="2" stroke-linecap="round" stroke-linejoin="round"/>
<path d="M108 22L103 17" stroke="#B3B3B3" stroke-width="2" stroke-linecap="round" stroke-linejoin="round"/>
<defs>
<clipPath id="clip0_15_13">
<rect width="24" height="24" fill="white" transform="translate(250)"/>
</clipPath>
</defs>
</svg>
