<svg width="17" height="17" viewBox="0 0 17 17" fill="none" xmlns="http://www.w3.org/2000/svg">
<path d="M13.3571 5.6591e-09C14.2863 -5.17548e-05 15.1804 0.354965 15.8564 0.992413C16.5325 1.62986 16.9394 2.50155 16.9939 3.42913L17 3.64285V8.96019C16.9998 9.53035 16.7991 10.0823 16.4329 10.5193L16.2884 10.6772L10.6772 16.2884C10.274 16.6915 9.74185 16.94 9.1739 16.9902L8.96019 17H3.64285C2.71366 17 1.81958 16.645 1.14354 16.0075C0.46749 15.3701 0.0605836 14.4984 0.00607156 13.5708L5.6591e-09 13.3571V3.64285C-5.17548e-05 2.71366 0.354965 1.81958 0.992413 1.14354C1.62986 0.46749 2.50155 0.0605836 3.42913 0.00607156L3.64285 5.6591e-09H13.3571ZM13.3571 1.21428H3.64285C3.03015 1.21409 2.44002 1.44549 1.99076 1.8621C1.5415 2.27871 1.26631 2.84973 1.22035 3.4607L1.21428 3.64285V13.3571C1.21409 13.9698 1.44549 14.5599 1.8621 15.0092C2.27871 15.4585 2.84973 15.7336 3.4607 15.7796L3.64285 15.7857H8.49998V12.1428C8.49992 11.2136 8.85494 10.3196 9.49239 9.64351C10.1298 8.96747 11.0015 8.56056 11.9291 8.50605L12.1428 8.49998H15.7857V3.64285C15.7859 3.03015 15.5545 2.44002 15.1379 1.99076C14.7212 1.5415 14.1502 1.26631 13.5392 1.22035L13.3571 1.21428ZM15.5222 9.71547L12.1428 9.71426C11.5301 9.71406 10.94 9.94547 10.4907 10.3621C10.0415 10.7787 9.76628 11.3497 9.72033 11.9607L9.71426 12.1428V15.5197L9.81869 15.4299L15.4299 9.81869C15.4627 9.7859 15.493 9.7519 15.521 9.71547H15.5222Z" fill="#FF2156"/>
</svg>
