<svg width="18" height="17" viewBox="0 0 18 17" fill="none" xmlns="http://www.w3.org/2000/svg">
<path d="M4.84615 0L0 2.42308V16.6964H18V4.23485H9.69231V2.42308L4.84615 0ZM4.84615 1.54662L8.30769 3.27738V15.3118H1.38462V3.27738L4.84615 1.54662ZM2.76923 4.23485V5.61946H4.15385V4.23485H2.76923ZM5.53846 4.23485V5.61946H6.92308V4.23485H5.53846ZM9.69231 5.61946H16.6154V15.3118H9.69231V5.61946ZM2.76923 7.00408V8.38869H4.15385V7.00408H2.76923ZM5.53846 7.00408V8.38869H6.92308V7.00408H5.53846ZM11.0769 7.00408V8.38869H12.4615V7.00408H11.0769ZM13.8462 7.00408V8.38869H15.2308V7.00408H13.8462ZM2.76923 9.77331V11.1579H4.15385V9.77331H2.76923ZM5.53846 9.77331V11.1579H6.92308V9.77331H5.53846ZM11.0769 9.77331V11.1579H12.4615V9.77331H11.0769ZM13.8462 9.77331V11.1579H15.2308V9.77331H13.8462ZM2.76923 12.5425V13.9272H4.15385V12.5425H2.76923ZM5.53846 12.5425V13.9272H6.92308V12.5425H5.53846ZM11.0769 12.5425V13.9272H12.4615V12.5425H11.0769ZM13.8462 12.5425V13.9272H15.2308V12.5425H13.8462Z" fill="#FF2156"/>
</svg>
