<svg width="30" height="33" viewBox="0 0 30 33" fill="none" xmlns="http://www.w3.org/2000/svg">
<path d="M30 17.3194C30.002 16.3953 29.7297 15.4891 29.2141 14.704C28.6985 13.9189 27.9602 13.2863 27.0833 12.8782C26.2063 12.4701 25.2258 12.3028 24.2533 12.3954C23.2808 12.4879 22.3553 12.8366 21.582 13.4018C20.8086 13.967 20.2185 14.726 19.8788 15.5925C19.539 16.459 19.4632 17.3983 19.6599 18.3036C19.8567 19.2088 20.3181 20.0437 20.9917 20.7133C21.6654 21.3829 22.5242 21.8604 23.4706 22.0914V23.493C23.4706 25.1348 22.7808 26.7093 21.553 27.8702C20.3252 29.0311 18.6599 29.6833 16.9236 29.6833C15.1872 29.6833 13.5219 29.0311 12.2941 27.8702C11.0663 26.7093 10.3765 25.1348 10.3765 23.493C10.4422 22.0192 10.8232 20.5732 11.4965 19.2425C12.1699 17.9119 13.1216 16.7241 14.2941 15.751H14.1177C15.3656 14.9812 16.3947 13.9337 17.1147 12.7002C17.8347 11.4667 18.2235 10.0851 18.2471 8.67639V3.70415C18.2471 2.72175 17.8343 1.77958 17.0996 1.08492C16.3649 0.390258 15.3685 0 14.3294 0H12.353C12.0066 4.87965e-09 11.6745 0.130086 11.4296 0.36164C11.1847 0.593195 11.0471 0.90725 11.0471 1.23472C11.0471 1.56218 11.1847 1.87624 11.4296 2.10779C11.6745 2.33935 12.0066 2.46943 12.353 2.46943H14.2941C14.6405 2.46943 14.9726 2.59952 15.2175 2.83108C15.4624 3.06263 15.6 3.37668 15.6 3.70415V8.67639C15.6001 10.308 14.917 11.8732 13.7001 13.03C12.4832 14.1868 10.8315 14.8412 9.10591 14.85V15.751V14.85C8.24846 14.8544 7.39848 14.699 6.60451 14.3928C5.81055 14.0866 5.08815 13.6356 4.47856 13.0654C3.86896 12.4952 3.38412 11.8171 3.05171 11.0698C2.7193 10.3224 2.54583 9.52049 2.54121 8.70976V3.70415C2.54121 3.37668 2.67879 3.06263 2.92369 2.83108C3.16859 2.59952 3.50075 2.46943 3.84709 2.46943H5.68238C6.02872 2.46943 6.36088 2.33935 6.60578 2.10779C6.85068 1.87624 6.98827 1.56218 6.98827 1.23472C6.98827 0.90725 6.85068 0.593195 6.60578 0.36164C6.36088 0.130086 6.02872 0 5.68238 0H3.84709C2.82035 0.0174945 1.84192 0.415462 1.12241 1.10824C0.402911 1.80101 -0.000135971 2.73321 3.07349e-05 3.70415V8.67639C-0.00378236 10.0642 0.347259 11.4322 1.02325 12.664C1.69924 13.8959 2.68014 14.9549 3.88238 15.751C5.0485 16.727 5.99362 17.9161 6.66084 19.2466C7.32805 20.5772 7.70356 22.0216 7.76474 23.493C7.76474 24.6302 8.00164 25.7563 8.46191 26.8069C8.92218 27.8576 9.59682 28.8122 10.4473 29.6163C11.2978 30.4205 12.3074 31.0583 13.4186 31.4935C14.5298 31.9287 15.7208 32.1527 16.9236 32.1527C18.1263 32.1527 19.3173 31.9287 20.4285 31.4935C21.5397 31.0583 22.5493 30.4205 23.3998 29.6163C24.2503 28.8122 24.9249 27.8576 25.3852 26.8069C25.8455 25.7563 26.0824 24.6302 26.0824 23.493V22.0914C27.2019 21.8181 28.1939 21.2014 28.9028 20.3378C29.6118 19.4742 29.9977 18.4126 30 17.3194ZM24.7059 19.7889C24.1894 19.7889 23.6844 19.644 23.2549 19.3727C22.8254 19.1013 22.4906 18.7157 22.293 18.2644C22.0953 17.8132 22.0436 17.3167 22.1443 16.8377C22.2451 16.3586 22.4939 15.9186 22.8591 15.5733C23.2244 15.2279 23.6897 14.9927 24.1964 14.8974C24.703 14.8021 25.2282 14.8511 25.7054 15.038C26.1826 15.2249 26.5905 15.5414 26.8775 15.9475C27.1645 16.3536 27.3177 16.831 27.3177 17.3194C27.3177 17.6437 27.2501 17.9648 27.1189 18.2644C26.9876 18.564 26.7952 18.8363 26.5527 19.0656C26.3102 19.2949 26.0223 19.4768 25.7054 19.6009C25.3885 19.725 25.0489 19.7889 24.7059 19.7889Z" fill="#FF2156"/>
</svg>
