<svg width="19" height="31" viewBox="0 0 19 31" fill="none" xmlns="http://www.w3.org/2000/svg">
<path d="M9.5 0C4.2522 0 0 4.2351 0 9.481C0 18.5516 9.5 30.381 9.5 30.381C9.5 30.381 19 18.5497 19 9.481C19 4.237 14.7478 0 9.5 0ZM9.5 14.7269C8.13944 14.7269 6.8346 14.1864 5.87254 13.2244C4.91048 12.2623 4.37 10.9575 4.37 9.5969C4.37 8.23634 4.91048 6.9315 5.87254 5.96944C6.8346 5.00738 8.13944 4.4669 9.5 4.4669C10.8606 4.4669 12.1654 5.00738 13.1275 5.96944C14.0895 6.9315 14.63 8.23634 14.63 9.5969C14.63 10.9575 14.0895 12.2623 13.1275 13.2244C12.1654 14.1864 10.8606 14.7269 9.5 14.7269Z" fill="#FF2156"/>
</svg>
