<svg width="281" height="195" viewBox="0 0 281 195" fill="none" xmlns="http://www.w3.org/2000/svg">
<path d="M3.70992 117.213C5.46152 117.977 9.73541 117.882 9.74177 117.882C9.74814 117.882 8.82458 115.079 8.74177 114.913C7.7991 112.945 4.83731 109.703 2.41693 110.034C2.01756 110.099 1.63636 110.248 1.2982 110.47C0.960031 110.692 0.672491 110.983 0.454331 111.324C0.23617 111.665 0.092288 112.047 0.0320666 112.448C-0.0281548 112.848 -0.00336256 113.256 0.104827 113.646C0.506101 115.321 2.21948 116.563 3.70992 117.213Z" fill="#263238"/>
<path d="M5.18754 129.627C7.00283 129.894 10.8181 128.786 11.1239 128.697C11.7518 130.882 12.5242 133.022 13.436 135.105C13.9646 136.315 14.5315 137.525 15.1111 138.729C14.7672 138.219 14.4742 137.767 14.3977 137.71C12.9774 136.06 9.25761 133.722 7.01557 134.671C6.64818 134.841 6.32044 135.085 6.05361 135.389C5.78678 135.693 5.58682 136.049 5.4667 136.436C5.34659 136.822 5.30899 137.229 5.35637 137.631C5.40374 138.032 5.53502 138.419 5.74168 138.767C6.56971 140.277 8.55697 141.022 10.1621 141.257C11.7672 141.493 15.0665 140.62 15.9328 140.372C16.1621 140.831 16.385 141.296 16.6143 141.754C17.7162 143.952 18.8309 146.143 19.8563 148.327C20.2194 149.098 20.5442 149.869 20.8755 150.64C20.5697 150.181 20.3022 149.805 20.2385 149.754C18.8118 148.105 15.0984 145.761 12.85 146.716C12.4819 146.884 12.1534 147.128 11.886 147.432C11.6186 147.736 11.4183 148.093 11.2981 148.479C11.1779 148.866 11.1405 149.273 11.1884 149.675C11.2363 150.077 11.3684 150.464 11.5761 150.812C12.4041 152.321 14.385 153.066 15.9965 153.302C17.6079 153.538 20.5825 152.742 21.6079 152.461C21.9264 153.257 22.2449 154.054 22.5124 154.843C22.6844 155.385 22.8882 155.894 23.0283 156.449C23.1684 157.003 23.3277 157.538 23.4806 158.073C23.729 159.117 23.9965 160.187 24.213 161.206C24.3659 161.92 24.506 162.595 24.6462 163.283C24.2958 162.512 23.5761 161.022 23.4997 160.901C22.3404 159.06 19.0411 156.181 16.6589 156.78C16.2668 156.888 15.9019 157.077 15.5882 157.336C15.2745 157.595 15.0191 157.917 14.8387 158.282C14.6582 158.646 14.5569 159.044 14.5413 159.451C14.5257 159.857 14.5961 160.262 14.7481 160.64C15.334 162.251 17.1812 163.289 18.7353 163.767C20.4487 164.289 24.2385 163.812 24.7099 163.767C24.9392 164.901 25.1493 166.003 25.3468 167.047C25.9837 170.665 26.3786 173.703 26.6207 175.831C26.6653 176.207 26.6971 176.544 26.7353 176.863H19.4296L20.3213 194.213H36.3978L37.2831 176.863H30.4551C30.506 176.761 30.5506 176.659 30.6016 176.55C31.5443 174.595 32.8436 171.792 34.2449 168.353C34.6908 167.27 35.1494 166.105 35.6016 164.901C36.0602 164.996 39.8118 165.761 41.5634 165.366C43.143 165.003 45.0666 164.092 45.7736 162.538C45.953 162.175 46.0539 161.779 46.0699 161.375C46.0859 160.97 46.0165 160.567 45.8662 160.192C45.716 159.816 45.4883 159.476 45.1979 159.195C44.9076 158.913 44.5612 158.696 44.1812 158.557C41.8755 157.78 38.3468 160.404 37.0538 162.156C36.9774 162.257 36.2767 163.468 35.85 164.245C36.0347 163.748 36.213 163.277 36.3978 162.767C36.7672 161.761 37.1048 160.748 37.4742 159.659L37.9583 158.041C38.1302 157.506 38.2449 156.92 38.3914 156.353C38.7035 155.035 38.9583 153.684 39.1812 152.315C40.0666 152.64 43.2067 153.729 44.8373 153.589C46.4678 153.449 48.4933 152.882 49.4296 151.442C49.6625 151.111 49.8228 150.734 49.9003 150.336C49.9778 149.938 49.9707 149.529 49.8793 149.134C49.788 148.739 49.6145 148.368 49.3702 148.045C49.1259 147.721 48.8163 147.453 48.4615 147.257C46.2959 146.143 42.4105 148.2 40.8691 149.735C40.7736 149.831 39.7927 151.06 39.264 151.742C39.3914 150.92 39.5252 150.098 39.6334 149.264C39.9328 146.843 40.1621 144.391 40.3978 141.939C40.4742 141.194 40.5506 140.449 40.6334 139.697C40.9455 139.818 44.6525 141.194 46.4742 141.066C48.0984 140.952 50.1303 140.359 51.0729 138.92C51.3067 138.587 51.4677 138.209 51.5454 137.81C51.6231 137.411 51.6157 136.999 51.5237 136.603C51.4317 136.207 51.2573 135.835 51.0117 135.511C50.7661 135.187 50.4549 134.918 50.0984 134.722C47.9328 133.608 44.0538 135.665 42.5124 137.2C42.3914 137.315 40.9838 139.079 40.6462 139.55C40.8181 137.901 41.0092 136.264 41.2831 134.659C41.613 132.484 42.0832 130.333 42.6908 128.219C42.8373 128.277 46.6971 129.735 48.5697 129.601C50.1876 129.487 52.2194 128.894 53.1621 127.455C53.3949 127.123 53.5553 126.746 53.6328 126.349C53.7103 125.951 53.7031 125.541 53.6118 125.146C53.5205 124.752 53.347 124.381 53.1027 124.057C52.8584 123.734 52.5488 123.466 52.1939 123.27C50.0283 122.156 46.143 124.213 44.6016 125.748C44.4806 125.869 42.9646 127.767 42.6908 128.136C42.729 128.009 42.7544 127.882 42.7927 127.761C43.4592 125.659 44.3119 123.621 45.3404 121.671C45.8946 120.582 46.4869 119.582 47.0793 118.614C47.7736 118.958 50.9519 120.525 52.6462 120.57C54.3404 120.614 56.3596 120.27 57.4487 118.939C57.7158 118.635 57.9159 118.278 58.0361 117.892C58.1563 117.505 58.1939 117.098 58.1465 116.696C58.099 116.294 57.9676 115.907 57.7607 115.559C57.5538 115.212 57.2761 114.911 56.9455 114.678C54.9137 113.327 50.8309 114.945 49.1302 116.302C49.0347 116.378 48.1748 117.232 47.5634 117.863C47.8373 117.429 48.1111 116.984 48.385 116.589C49.4041 115.054 50.436 113.716 51.3532 112.531C51.8818 111.863 52.3723 111.257 52.8373 110.722C53.6971 110.722 57.143 110.601 58.6526 109.894C60.1621 109.187 61.8373 107.913 62.1621 106.232C62.2587 105.839 62.2715 105.429 62.1998 105.031C62.1281 104.632 61.9735 104.253 61.7459 103.918C61.5183 103.583 61.2229 103.299 60.8787 103.086C60.5346 102.872 60.1494 102.733 59.7481 102.678C57.3277 102.417 54.4487 105.741 53.5634 107.729C53.4869 107.901 52.5952 110.722 52.6398 110.722H52.6908C52.2322 111.245 51.7481 111.805 51.2322 112.429C50.2831 113.595 49.2258 114.92 48.1685 116.442C47.0068 118.063 45.9433 119.752 44.9837 121.499C43.8979 123.444 42.9877 125.482 42.264 127.589C42.264 127.589 42.264 127.64 42.264 127.665C42.264 126.952 42.264 124.952 42.2258 124.799C41.9455 122.64 40.1366 118.64 37.7672 118.194C37.3671 118.131 36.9582 118.153 36.5672 118.258C36.1762 118.364 35.8119 118.551 35.4981 118.807C35.1843 119.063 34.9281 119.383 34.7461 119.744C34.5642 120.106 34.4607 120.502 34.4423 120.907C34.3022 122.62 35.5443 124.334 36.7544 125.417C38.1239 126.64 41.9201 127.824 42.2194 127.913C41.5396 130.084 41.0035 132.297 40.6143 134.538C40.385 135.812 40.1876 137.162 40.0156 138.487C40.0156 137.85 40.0156 137.315 39.9837 137.213C39.7035 135.054 37.8946 131.054 35.5251 130.608C35.1252 130.546 34.7167 130.568 34.3261 130.674C33.9355 130.781 33.5716 130.968 33.258 131.223C32.9445 131.479 32.6883 131.798 32.506 132.16C32.3238 132.521 32.2196 132.917 32.2003 133.321C32.0602 135.034 33.3022 136.748 34.5188 137.831C35.7353 138.913 38.9774 140.003 39.8181 140.277C39.7545 140.786 39.6844 141.296 39.6271 141.805C39.3341 144.251 39.0538 146.691 38.7035 149.079C38.5825 149.92 38.4296 150.742 38.2767 151.57C38.2767 151.022 38.2767 150.557 38.2767 150.487C37.9965 148.327 36.1876 144.328 33.8181 143.882C33.4179 143.82 33.009 143.842 32.6181 143.948C32.2272 144.054 31.8629 144.241 31.5488 144.497C31.2348 144.753 30.9779 145.072 30.795 145.433C30.6121 145.795 30.5071 146.19 30.4869 146.595C30.3468 148.308 31.5952 150.022 32.8054 151.105C34.0156 152.187 36.8118 153.194 37.8054 153.525C37.6271 154.366 37.4487 155.206 37.2385 156.015C37.0857 156.563 36.971 157.098 36.7863 157.64C36.6016 158.181 36.436 158.716 36.2704 159.245C35.9009 160.251 35.5315 161.289 35.1494 162.264C34.8882 162.939 34.6271 163.582 34.3659 164.226C34.4997 163.391 34.7226 161.754 34.7226 161.614C34.6985 159.699 34.1832 157.821 33.2258 156.162C33.2331 155.949 33.2182 155.735 33.1812 155.525C33.1313 155.123 32.9973 154.737 32.7879 154.391C32.5786 154.044 32.2986 153.746 31.9663 153.515C31.6339 153.285 31.2567 153.126 30.8591 153.051C30.4615 152.976 30.0526 152.986 29.6589 153.079C27.3022 153.716 25.8372 157.843 25.6971 160.015C25.6971 160.143 25.7735 161.544 25.8436 162.423C25.7226 161.913 25.6143 161.41 25.4869 160.888C25.2385 159.843 24.9646 158.812 24.6653 157.703C24.506 157.168 24.3468 156.633 24.1812 156.092C24.0156 155.55 23.799 154.996 23.6143 154.442C23.143 153.168 22.6143 151.894 22.0474 150.62C22.9583 150.404 26.1812 149.582 27.4806 148.589C28.7799 147.595 30.1621 145.996 30.1621 144.277C30.1723 143.872 30.0974 143.47 29.9422 143.097C29.7871 142.723 29.5551 142.387 29.2614 142.108C28.9678 141.83 28.6189 141.617 28.2375 141.483C27.856 141.348 27.4506 141.295 27.0474 141.327C24.6207 141.589 22.5188 145.449 22.0793 147.582C22.0793 147.716 21.9073 149.277 21.85 150.13C21.4997 149.372 21.1621 148.614 20.7863 147.863C19.7035 145.678 18.5379 143.506 17.385 141.334L16.3404 139.334C16.6716 139.257 20.5251 138.366 21.9774 137.251C23.2513 136.264 24.6334 134.646 24.6207 132.926C24.6318 132.521 24.5576 132.119 24.4028 131.744C24.2481 131.37 24.0163 131.033 23.7225 130.754C23.4287 130.475 23.0795 130.261 22.6976 130.126C22.3157 129.991 21.9097 129.938 21.506 129.971C19.0793 130.232 16.9774 134.092 16.5379 136.226C16.5379 136.385 16.3022 138.64 16.2767 139.213C15.5188 137.741 14.7672 136.27 14.092 134.792C13.1582 132.8 12.3561 130.749 11.6907 128.652C11.8372 128.614 15.8691 127.703 17.3532 126.563C18.627 125.57 20.0092 123.952 19.9965 122.232C20.0066 121.827 19.9317 121.425 19.7766 121.051C19.6215 120.678 19.3897 120.34 19.0961 120.062C18.8025 119.783 18.4537 119.569 18.0723 119.434C17.6909 119.299 17.2853 119.245 16.8818 119.277C14.4614 119.544 12.3595 123.404 11.92 125.531C11.8818 125.703 11.6653 128.124 11.6589 128.563C11.6207 128.442 11.5697 128.321 11.5315 128.2C10.93 126.08 10.5186 123.91 10.3022 121.716C10.1621 120.506 10.1047 119.34 10.0665 118.206C10.8372 118.111 14.3404 117.646 15.799 116.767C17.2576 115.888 18.729 114.468 18.9073 112.754C18.9619 112.355 18.932 111.948 18.8197 111.56C18.7074 111.173 18.5151 110.813 18.2552 110.505C17.9953 110.196 17.6736 109.946 17.3109 109.769C16.9482 109.593 16.5525 109.494 16.1493 109.48C13.7098 109.48 11.2003 113.079 10.5251 115.149C10.4869 115.264 10.2449 116.423 10.0793 117.315C10.0793 116.799 10.0793 116.27 10.0793 115.78C10.0793 113.939 10.2003 112.251 10.3149 110.761C10.3914 109.907 10.4742 109.143 10.557 108.429C11.264 107.945 14.0793 105.952 14.9455 104.531C15.8118 103.111 16.4869 101.143 15.85 99.5377C15.714 99.1566 15.4995 98.8085 15.2202 98.5157C14.941 98.223 14.6033 97.9923 14.2291 97.8385C13.8549 97.6847 13.4525 97.6114 13.0482 97.6232C12.6438 97.635 12.2464 97.7317 11.8818 97.9071C9.71621 99.0281 9.14933 103.385 9.50602 105.55C9.50602 105.735 10.3532 108.582 10.3914 108.557H10.436C10.3404 109.238 10.2449 109.977 10.1621 110.786C10.0092 112.283 9.85634 113.971 9.81175 115.818C9.74585 117.811 9.79477 119.805 9.95825 121.792C10.1146 124.006 10.4684 126.202 11.0156 128.353C11.0183 128.378 11.0183 128.404 11.0156 128.429C10.6334 127.824 9.50602 126.175 9.40411 126.06C7.98372 124.417 4.26398 122.073 2.02194 123.022C1.65435 123.192 1.32651 123.437 1.05963 123.741C0.792763 124.046 0.592812 124.403 0.472726 124.789C0.35264 125.176 0.315095 125.584 0.362523 125.986C0.409951 126.388 0.541295 126.776 0.74805 127.124C1.59518 128.62 3.58245 129.366 5.18754 129.627ZM29.3532 161.538C30.6271 162.888 33.8118 164.468 34.2067 164.671C33.7736 165.742 33.3404 166.78 32.9328 167.748C31.4678 171.117 30.1239 173.869 29.1557 175.78C28.9583 176.162 28.7863 176.506 28.6207 176.818H28.4423C28.3914 176.449 28.3404 176.041 28.2767 175.582C27.9837 173.436 27.5188 170.378 26.7927 166.735C26.5697 165.589 26.3022 164.359 26.022 163.105C27.1617 162.647 28.274 162.124 29.3532 161.538Z" fill="#263238"/>
<path d="M46.9775 118.162C47.0158 118.162 47.7546 115.315 47.7801 115.13C48.0795 112.977 47.3916 108.633 45.2323 107.576C44.8631 107.409 44.4629 107.322 44.0579 107.321C43.6528 107.32 43.252 107.404 42.8817 107.568C42.5114 107.732 42.1799 107.973 41.9089 108.273C41.6378 108.574 41.4333 108.929 41.3087 109.315C40.7164 110.933 41.4616 112.913 42.347 114.276C43.3533 115.875 46.9712 118.162 46.9775 118.162Z" fill="#263238"/>
<path d="M64.678 110.2C64.2772 110.267 63.867 110.255 63.4711 110.163C63.0752 110.071 62.7013 109.902 62.371 109.665C62.0407 109.429 61.7604 109.129 61.5464 108.783C61.3324 108.438 61.1888 108.053 61.1238 107.652L56.3914 79.4293L62.4678 78.4039L67.2003 106.633C67.2715 107.033 67.2625 107.444 67.174 107.84C67.0854 108.237 66.919 108.612 66.6844 108.944C66.4497 109.275 66.1516 109.557 65.8072 109.773C65.4627 109.989 65.0789 110.134 64.678 110.2Z" fill="white" stroke="#263238" stroke-linecap="round" stroke-linejoin="round"/>
<path d="M64.6018 91.1618L58.296 90.7988L61.1241 107.671C61.1773 108.083 61.3129 108.479 61.5228 108.836C61.7326 109.194 62.0124 109.505 62.3455 109.752C62.6785 109.999 63.0578 110.176 63.4609 110.273C63.864 110.37 64.2824 110.384 64.6912 110.316C65.1001 110.247 65.4909 110.097 65.8403 109.874C66.1897 109.651 66.4905 109.36 66.7247 109.018C66.959 108.676 67.1218 108.29 67.2036 107.883C67.2853 107.477 67.2843 107.058 67.2005 106.652L64.6018 91.1618Z" fill="#FF2156" stroke="#263238" stroke-linecap="round" stroke-linejoin="round"/>
<path d="M63.393 77.3499L55.1705 78.7303L56.1311 84.4528L64.3537 83.0724L63.393 77.3499Z" fill="white" stroke="#263238" stroke-linecap="round" stroke-linejoin="round"/>
<path d="M75.2388 141.327C75.2388 141.327 55.2196 120.085 51.6719 116.799C48.1241 113.512 46.9903 110.971 47.1177 109.487C47.2451 108.003 51.6974 103.487 53.9904 103.678C56.2833 103.869 69.0732 111.996 72.3916 116.251C74.9353 119.507 76.8393 123.216 78.0031 127.181C78.742 129.684 78.7101 130.092 78.7101 130.092L83.8375 135.41L75.2388 141.327Z" fill="#999999" stroke="#263238" stroke-linecap="round" stroke-linejoin="round"/>
<path d="M48.0474 112.315C48.0474 112.315 46.1748 109.181 47.1621 107.557C48.1493 105.933 58.3977 92.9071 60.1047 92.8688C61.8117 92.8306 59.7353 97.3274 57.3022 100.945C54.8691 104.563 52.2066 108.589 52.1366 109.226C52.0665 109.862 51.9965 110.92 51.9965 110.92" fill="#999999"/>
<path d="M48.0474 112.315C48.0474 112.315 46.1748 109.181 47.1621 107.557C48.1493 105.933 58.3977 92.9071 60.1047 92.8688C61.8117 92.8306 59.7353 97.3274 57.3022 100.945C54.8691 104.563 52.2066 108.589 52.1366 109.226C52.0665 109.862 51.9965 110.92 51.9965 110.92" stroke="#263238" stroke-linecap="round" stroke-linejoin="round"/>
<path d="M51.9581 113.557C51.9581 113.557 51.8116 108.792 53.0855 106.589C54.3594 104.385 62.3275 93.4994 63.2065 92.7606C64.0855 92.0217 66.4804 92.6204 64.8053 96.423C63.1301 100.226 58.5696 109.219 58.4804 110.302C58.3912 111.385 57.4231 118.092 57.4231 118.092" fill="#999999"/>
<path d="M51.9581 113.557C51.9581 113.557 51.8116 108.792 53.0855 106.589C54.3594 104.385 62.3275 93.4994 63.2065 92.7606C64.0855 92.0217 66.4804 92.6204 64.8053 96.423C63.1301 100.226 58.5696 109.219 58.4804 110.302C58.3912 111.385 57.4231 118.092 57.4231 118.092" stroke="#263238" stroke-linecap="round" stroke-linejoin="round"/>
<path d="M57.5507 116.608C57.5507 116.608 58.2895 109.334 58.7099 109.232C59.1303 109.13 66.3532 94.3784 66.3532 94.3784C66.3532 94.3784 68.8373 92.2765 68.0857 98.0536C67.3341 103.831 63.9201 111.57 63.9201 111.57L63.4934 121.589" fill="#999999"/>
<path d="M57.5507 116.608C57.5507 116.608 58.2895 109.334 58.7099 109.232C59.1303 109.13 66.3532 94.3784 66.3532 94.3784C66.3532 94.3784 68.8373 92.2765 68.0857 98.0536C67.3341 103.831 63.9201 111.57 63.9201 111.57L63.4934 121.589" stroke="#263238" stroke-linecap="round" stroke-linejoin="round"/>
<path d="M63.6655 118.206C63.6655 118.206 65.7929 109.009 66.398 108.245C67.0031 107.48 68.7292 99.8752 69.8183 99.8306C70.9075 99.786 71.4234 101.741 70.4935 104.78C69.5636 107.818 68.4553 111.27 68.4553 111.27L69.0922 117.984" fill="#999999"/>
<path d="M63.6655 118.206C63.6655 118.206 65.7929 109.009 66.398 108.245C67.0031 107.48 68.7292 99.8752 69.8183 99.8306C70.9075 99.786 71.4234 101.741 70.4935 104.78C69.5636 107.818 68.4553 111.27 68.4553 111.27L69.0922 117.984" stroke="#263238" stroke-linecap="round" stroke-linejoin="round"/>
<path d="M122.99 192.283C127.704 191.391 144.608 171.901 144.608 171.901L143.137 194.5H251.08C249.761 183.55 242.557 89.837 241.831 87.9007C241.06 85.8434 196.239 66.8497 196.239 66.8497L175.946 67.6204C175.946 67.6204 150.544 84.3147 143.837 88.1682C137.13 92.0217 134.85 93.5631 134.85 95.1045C134.85 96.6459 120.048 156.474 120.048 156.474L83.3024 130.468L70.1622 142.773L118.105 192.136C118.105 192.136 118.277 193.181 122.99 192.283Z" fill="#FF2156" stroke="#263238" stroke-linecap="round" stroke-linejoin="round"/>
<path d="M144.659 162.55L144.869 118.729" stroke="#263238" stroke-linecap="round" stroke-linejoin="round"/>
<path d="M144.608 171.901L144.64 166.429" stroke="#263238" stroke-linecap="round" stroke-linejoin="round"/>
<path d="M144.353 129.519L139.475 113.595" stroke="#263238" stroke-linecap="round" stroke-linejoin="round"/>
<path d="M120.047 156.474C121.995 160.037 123.129 163.987 123.366 168.041" stroke="#263238" stroke-linecap="round" stroke-linejoin="round"/>
<path d="M123.366 170.792C123.366 170.792 123.251 172.156 123.251 174.907" stroke="#263238" stroke-linecap="round" stroke-linejoin="round"/>
<path d="M170.755 76.9453L164.596 99.2383L172.455 104.334L164.175 114.34L175.003 159.563L201.755 112.856L193.685 103.512L205.576 100.538L202.812 72.9389C200.226 65.4293 196.64 64.0217 192.838 65.5058C188.659 67.1109 173.513 66.9707 170.755 76.9453Z" fill="#FF2156" stroke="#263238" stroke-linecap="round" stroke-linejoin="round"/>
<path d="M172.665 79.7096C172.665 79.7096 177.334 110.519 177.334 121.984C177.334 133.448 177.124 135.786 177.124 135.786C177.124 135.786 189.653 102.875 193.258 86.7415C195.386 76.7064 195.168 66.3154 192.621 56.3784C192.621 56.3784 183.283 76.1236 172.665 79.7096Z" fill="white" stroke="#263238" stroke-linecap="round" stroke-linejoin="round"/>
<path d="M192.621 56.3784C192.621 56.3784 183.283 76.1236 172.665 79.7351C172.665 79.7351 172.908 81.3211 173.302 83.8943C176.003 83.6332 182.443 82.8625 186.417 81.2701C189.984 79.8434 192.557 68.5313 193.799 61.716C193.509 59.9156 193.116 58.1335 192.621 56.3784Z" fill="#263238" stroke="#263238" stroke-linecap="round" stroke-linejoin="round"/>
<path d="M191.13 94.8434C184.296 97.7351 178.576 96.8943 174.882 95.6013C176.086 104.933 177.334 116.028 177.334 121.958C177.334 133.423 177.124 135.761 177.124 135.761C177.124 135.761 186.213 111.894 191.13 94.8434Z" fill="#263238" stroke="#263238" stroke-linecap="round" stroke-linejoin="round"/>
<path d="M145.761 40.1682C145.761 40.1682 140.665 42.9898 137.481 33.6459C134.296 24.3019 144.175 6.6968 154.398 2.97068C164.621 -0.75544 177.143 -0.908306 186.665 7.02164C196.188 14.9516 195.481 34.3529 195.481 34.3529C195.481 34.3529 204.653 33.8242 209.939 45.1045C215.226 56.3847 205.353 65.9134 198.653 65.7351C191.952 65.5567 188.461 59.3656 187.723 53.9261C186.984 48.4866 174.678 34.8815 168.506 33.2955C162.334 31.7096 157.926 37.3465 152.99 38.3911C148.054 39.4357 145.761 40.1682 145.761 40.1682Z" fill="#263238"/>
<path d="M158.927 17.5248C158.927 17.5248 165.296 21.6713 176.895 23.5694C188.494 25.4675 195.035 28.2382 199.01 31.8497" stroke="#616161" stroke-linecap="round" stroke-linejoin="round"/>
<path d="M161.519 10.8114C161.519 10.8114 171.538 15.9961 182.94 15.4802C194.341 14.9643 201.602 23.7605 201.602 23.7605" stroke="#616161" stroke-linecap="round" stroke-linejoin="round"/>
<path d="M166.016 4.0726C171.439 6.06512 177.162 7.11843 182.939 7.18725C188.406 7.20018 193.661 9.30353 197.627 13.0662" stroke="#616161" stroke-linecap="round" stroke-linejoin="round"/>
<path d="M152.194 18.9325C152.194 18.9325 150.328 20.4548 143.914 27.0535C137.5 33.6522 139.455 38.9707 139.455 38.9707" stroke="#616161" stroke-linecap="round" stroke-linejoin="round"/>
<path d="M152.194 14.977C152.194 14.977 145.971 18.7987 140.092 22.9261C134.213 27.0535 134.392 32.4293 134.392 32.4293" stroke="#616161" stroke-linecap="round" stroke-linejoin="round"/>
<path d="M154.608 7.5312C150.792 8.92949 147.275 11.039 144.245 13.7478C138.889 18.4166 135.965 21.5248 135.965 21.5248" stroke="#616161" stroke-linecap="round" stroke-linejoin="round"/>
<path d="M147.876 5.63309C147.876 5.63309 151.5 2.86875 155.13 1.81143C157.444 1.22887 159.888 1.47217 162.041 2.49933C162.041 2.49933 154.436 12.6904 154.958 21.6777" stroke="#616161" stroke-linecap="round" stroke-linejoin="round"/>
<path d="M145.761 40.1682C145.761 40.1682 140.665 42.9898 137.481 33.6459C134.296 24.3019 144.175 6.6968 154.398 2.97068C164.621 -0.75544 177.143 -0.908306 186.665 7.02164C196.188 14.9516 195.481 34.3529 195.481 34.3529C195.481 34.3529 204.653 33.8242 209.939 45.1045C215.226 56.3847 205.353 65.9134 198.653 65.7351C191.952 65.5567 188.461 59.3656 187.723 53.9261C186.984 48.4866 174.678 34.8815 168.506 33.2955C162.334 31.7096 157.926 37.3465 152.99 38.3911C148.054 39.4357 145.761 40.1682 145.761 40.1682Z" stroke="#263238" stroke-linecap="round" stroke-linejoin="round"/>
<path d="M144.525 38.5822C144.525 38.5822 149.283 53.5695 151.576 60.6204C153.869 67.6714 160.22 77.372 166.035 80.1937C171.85 83.0153 182.079 79.3147 183.493 78.079C184.907 76.8434 192.13 63.7988 193.366 60.9771C194.602 58.1555 193.716 50.9261 193.716 50.9261C193.716 50.9261 197.067 46.1682 196.901 41.7605C196.736 37.3529 194.251 35.2319 192.844 36.1172C191.96 36.6808 191.184 37.3968 190.551 38.2319C190.551 38.2319 189.315 35.9389 184.557 33.1363C179.799 30.3338 176.194 33.5121 168.436 31.2255C164.097 29.9882 159.877 28.3683 155.825 26.3847C155.825 26.3847 150.697 36.1172 144.525 38.5822Z" fill="white" stroke="#263238" stroke-linecap="round" stroke-linejoin="round"/>
<path d="M195.321 40.2446C195.321 40.2446 195.143 37.9198 193.532 39.3529C191.92 40.786 193.353 43.1045 193.353 43.1045C193.353 43.1045 195.856 42.5695 194.627 44.5376" stroke="#263238" stroke-linecap="round" stroke-linejoin="round"/>
<path d="M151.895 50.0472V53.1937C152.994 53.603 154.175 53.7448 155.34 53.6075C156.505 53.4702 157.621 53.0576 158.595 52.4039" stroke="#263238" stroke-linecap="round" stroke-linejoin="round"/>
<path d="M169.653 46.7669L169.78 50.4421C171.14 50.629 172.523 50.5265 173.841 50.1412C175.158 49.7559 176.379 49.0965 177.423 48.2064" stroke="#263238" stroke-linecap="round" stroke-linejoin="round"/>
<path d="M150.322 46.6331C150.322 46.6331 153.08 44.665 159.513 46.372" stroke="#263238" stroke-width="2" stroke-linecap="round" stroke-linejoin="round"/>
<path d="M164.767 45.1873C164.767 45.1873 167.392 42.1682 175.137 41.251" stroke="#263238" stroke-width="2" stroke-linecap="round" stroke-linejoin="round"/>
<path d="M167.621 56.2128C163.041 55.1554 163.392 54.9835 160.22 57.6268C157.048 60.2701 151.404 59.9198 151.404 59.9198H151.36C151.436 60.1491 151.506 60.3784 151.576 60.5949C153.869 67.6523 160.22 77.3465 166.035 80.1682C171.85 82.9899 182.08 79.2892 183.494 78.0535C184.438 76.9108 185.274 75.6826 185.99 74.3848C186.122 74.0291 186.23 73.6652 186.315 73.2956C186.844 70.8242 187.901 65.3593 190.016 61.6586C192.13 57.958 193.716 50.9007 193.716 50.9007C193.716 50.9007 188.621 64.2765 186.487 63.7733C184.353 63.2701 184.194 59.1873 184.194 56.8943C184.194 54.6013 188.959 49.3147 190.723 44.0217C192.487 38.7287 190.544 38.2064 190.544 38.2064C189.487 48.4293 184.373 54.4293 184.373 54.4293C177.143 58.3338 172.201 57.2765 167.621 56.2128Z" fill="#999999" stroke="#263238" stroke-linecap="round" stroke-linejoin="round"/>
<path d="M142.41 45.1045C141.035 45.028 146.64 55.3338 148.226 56.9198C149.812 58.5058 155.812 59.2128 158.805 57.8051C161.799 56.3975 160.57 51.6331 163.041 51.4357C165.512 51.2382 166.92 55.665 169.213 56.5312C171.506 57.3975 179.258 55.6459 183.315 53.8879C187.372 52.13 187.544 47.5185 187.544 47.5185L185.958 37.907C185.958 37.907 166.742 46.5185 142.41 45.1045Z" stroke="#263238" stroke-linecap="round" stroke-linejoin="round"/>
<path d="M142.411 45.1045C142.411 45.1045 164.449 47.3974 192.481 35.2318" stroke="#263238" stroke-width="3" stroke-linecap="round" stroke-linejoin="round"/>
<path d="M181.022 40.3465L183.315 50.5758" stroke="#263238" stroke-linecap="round" stroke-linejoin="round"/>
<path d="M156.2 156.939L146.92 188.652L147.079 191.614L149.175 189.614L158.634 157.652C158.683 157.484 158.697 157.307 158.675 157.132C158.652 156.958 158.594 156.79 158.504 156.639C158.413 156.489 158.293 156.358 158.15 156.256C158.007 156.154 157.844 156.083 157.672 156.047C157.359 155.985 157.035 156.042 156.763 156.207C156.49 156.372 156.29 156.633 156.2 156.939Z" fill="white" stroke="#263238" stroke-linecap="round" stroke-linejoin="round"/>
<path d="M189.245 176.958C189.245 176.958 174.067 172.984 170.685 171.308C167.302 169.633 159.653 165.372 158.232 167.621C156.812 169.869 144.946 181.219 145.602 182.608C146.258 183.996 153.404 190.302 155.003 190.773C156.602 191.245 159.506 193.149 163.181 191.863C166.857 190.576 168.468 189.952 168.468 189.952C168.468 189.952 175.035 191.691 176.857 191.735C178.678 191.78 184.424 189.621 184.424 189.621L188.761 189.257L189.245 176.958Z" fill="#999999" stroke="#263238" stroke-linecap="round" stroke-linejoin="round"/>
<path d="M148.5 185.404L160.856 172.691" stroke="#263238" stroke-linecap="round" stroke-linejoin="round"/>
<path d="M151.392 188.659L162.576 177.512" stroke="#263238" stroke-linecap="round" stroke-linejoin="round"/>
<path d="M156.347 191.277L165.417 183.047" stroke="#263238" stroke-linecap="round" stroke-linejoin="round"/>
<path d="M227.735 97.4102C227.735 97.4102 216.64 111.041 216.538 115.92C216.436 120.799 225.965 165.964 225.965 165.964L185.481 173.041L186.595 192.334C186.595 192.334 250.831 191.945 253.404 191.748C255.977 191.55 261.353 192.436 261.907 190.391C262.462 188.347 243.704 91.2383 243.219 89.9453C242.699 88.8126 241.82 87.8831 240.718 87.3005C239.616 86.7179 238.353 86.5147 237.124 86.7223" fill="#FF2156"/>
<path d="M227.735 97.4102C227.735 97.4102 216.64 111.041 216.538 115.92C216.436 120.799 225.965 165.964 225.965 165.964L185.481 173.041L186.595 192.334C186.595 192.334 250.831 191.945 253.404 191.748C255.977 191.55 261.353 192.436 261.907 190.391C262.462 188.347 243.704 91.2383 243.219 89.9453C242.699 88.8126 241.82 87.8831 240.718 87.3005C239.616 86.7179 238.353 86.5147 237.124 86.7223" stroke="#263238" stroke-linecap="round" stroke-linejoin="round"/>
<path d="M225.965 165.964L241.175 163.735" stroke="#263238" stroke-linecap="round" stroke-linejoin="round"/>
<path d="M226.997 165.99L238.156 160.843" stroke="#263238" stroke-linecap="round" stroke-linejoin="round"/>
<path d="M243.64 163.92C243.64 163.92 248.207 163.232 250.494 163.461" stroke="#263238" stroke-linecap="round" stroke-linejoin="round"/>
<path d="M214.207 120.194H195.971V147.028H214.207V120.194Z" fill="white" stroke="#263238" stroke-linecap="round" stroke-linejoin="round"/>
<path d="M207.048 114.2H203.137V123.837H207.048V114.2Z" fill="#263238" stroke="#263238" stroke-linecap="round" stroke-linejoin="round"/>
<path d="M2.98384 194.442H280.271" stroke="#263238" stroke-linecap="round" stroke-linejoin="round"/>
<path d="M53.2958 161.149H59.4615V189.773C59.4615 190.178 59.3817 190.579 59.2268 190.953C59.0719 191.327 58.8448 191.667 58.5585 191.953C58.2723 192.24 57.9324 192.467 57.5584 192.622C57.1844 192.776 56.7835 192.856 56.3787 192.856C55.561 192.856 54.7769 192.531 54.1988 191.953C53.6206 191.375 53.2958 190.591 53.2958 189.773V161.149Z" fill="white" stroke="#263238" stroke-linecap="round" stroke-linejoin="round"/>
<path d="M53.2961 172.843V189.773C53.2772 190.19 53.3428 190.605 53.489 190.995C53.6352 191.386 53.859 191.742 54.1469 192.043C54.4347 192.344 54.7806 192.584 55.1637 192.748C55.5468 192.912 55.9591 192.996 56.3757 192.996C56.7923 192.996 57.2047 192.912 57.5877 192.748C57.9708 192.584 58.3167 192.344 58.6046 192.043C58.8924 191.742 59.1162 191.386 59.2624 190.995C59.4086 190.605 59.4743 190.19 59.4553 189.773V172.843H53.2961Z" fill="#FF2156" stroke="#263238" stroke-linecap="round" stroke-linejoin="round"/>
<path d="M60.5445 160.245H52.2069V166.041H60.5445V160.245Z" fill="white" stroke="#263238" stroke-linecap="round" stroke-linejoin="round"/>
<path d="M68.3788 192.856C67.5611 192.856 66.777 192.531 66.1989 191.953C65.6207 191.375 65.296 190.591 65.296 189.773V161.149H71.4552V189.773C71.4552 190.59 71.1313 191.373 70.5545 191.951C69.9778 192.529 69.1953 192.854 68.3788 192.856Z" fill="white" stroke="#263238" stroke-linecap="round" stroke-linejoin="round"/>
<path d="M65.2769 172.843V189.773C65.258 190.19 65.3236 190.605 65.4698 190.995C65.616 191.386 65.8398 191.742 66.1277 192.043C66.4155 192.344 66.7614 192.584 67.1445 192.748C67.5276 192.912 67.9399 192.996 68.3565 192.996C68.7732 192.996 69.1855 192.912 69.5686 192.748C69.9516 192.584 70.2975 192.344 70.5854 192.043C70.8732 191.742 71.097 191.386 71.2432 190.995C71.3894 190.605 71.4551 190.19 71.4361 189.773V172.843H65.2769Z" fill="#FF2156" stroke="#263238" stroke-linecap="round" stroke-linejoin="round"/>
<path d="M72.525 160.245H64.1875V166.041H72.525V160.245Z" fill="white" stroke="#263238" stroke-linecap="round" stroke-linejoin="round"/>
<path d="M80.3405 192.856C79.524 192.854 78.7415 192.529 78.1647 191.951C77.588 191.373 77.2641 190.59 77.2641 189.773V161.149H83.4233V189.773C83.4233 190.591 83.0985 191.375 82.5204 191.953C81.9422 192.531 81.1581 192.856 80.3405 192.856Z" fill="white" stroke="#263238" stroke-linecap="round" stroke-linejoin="round"/>
<path d="M77.2961 172.843V189.773C77.2961 190.59 77.62 191.373 78.1967 191.951C78.7735 192.529 79.556 192.854 80.3725 192.856C81.1901 192.856 81.9742 192.531 82.5524 191.953C83.1305 191.375 83.4553 190.591 83.4553 189.773V172.843H77.2961Z" fill="#FF2156" stroke="#263238" stroke-linecap="round" stroke-linejoin="round"/>
<path d="M84.5125 160.245H76.1749V166.041H84.5125V160.245Z" fill="white" stroke="#263238" stroke-linecap="round" stroke-linejoin="round"/>
<path d="M92.3277 192.856C91.5101 192.856 90.7259 192.531 90.1478 191.953C89.5697 191.375 89.2449 190.591 89.2449 189.773V161.149H95.4041V189.773C95.4041 190.59 95.0802 191.373 94.5034 191.951C93.9267 192.529 93.1442 192.854 92.3277 192.856Z" fill="white" stroke="#263238" stroke-linecap="round" stroke-linejoin="round"/>
<path d="M89.2451 172.843V189.773C89.2262 190.19 89.2918 190.605 89.438 190.995C89.5843 191.386 89.808 191.742 90.0959 192.043C90.3837 192.344 90.7296 192.584 91.1127 192.748C91.4958 192.912 91.9081 192.996 92.3247 192.996C92.7414 192.996 93.1537 192.912 93.5368 192.748C93.9198 192.584 94.2658 192.344 94.5536 192.043C94.8414 191.742 95.0652 191.386 95.2114 190.995C95.3577 190.605 95.4233 190.19 95.4044 189.773V172.843H89.2451Z" fill="#FF2156" stroke="#263238" stroke-linecap="round" stroke-linejoin="round"/>
<path d="M96.4935 160.245H88.1559V166.041H96.4935V160.245Z" fill="white" stroke="#263238" stroke-linecap="round" stroke-linejoin="round"/>
<path d="M101.704 169.168H48.0347V170.99H101.704V190.009H45.4296V194.442H105.353V193.398V190.009V170.99V169.168H101.704Z" fill="white" stroke="#263238" stroke-linecap="round" stroke-linejoin="round"/>
<path d="M116.271 194.442H182.704V192.092C182.704 192.092 172.022 192.353 164.462 190.818C159.97 189.957 155.416 189.467 150.844 189.353C147.793 189.238 144.538 189.735 142.232 191.735C139.946 190.156 137.22 189.773 134.506 189.773C128.513 189.773 119.392 191.079 112.882 192.117C109.09 192.739 105.259 193.088 101.417 193.162V194.468L116.271 194.442Z" fill="#263238" stroke="#263238" stroke-linecap="round" stroke-linejoin="round"/>
<path d="M232.939 64.8751L231.856 63.8242C231.796 63.7593 231.732 63.6977 231.665 63.6395C231.143 63.1774 230.47 62.9199 229.773 62.9144C229.075 62.909 228.399 63.156 227.869 63.6098C227.339 64.0637 226.991 64.6938 226.889 65.3841C226.788 66.0743 226.939 66.778 227.315 67.3656C227.501 67.6391 227.729 67.882 227.99 68.0853L228.952 69.1044L229.385 68.6458C229.502 68.6524 229.619 68.6524 229.735 68.6458C230.504 68.6458 231.241 68.3405 231.785 67.797C232.328 67.2535 232.633 66.5164 232.633 65.7477C232.634 65.5637 232.614 65.3801 232.576 65.2L232.939 64.8751Z" fill="#5E5E5E" stroke="#263238" stroke-linecap="round" stroke-linejoin="round"/>
<path d="M231.003 69.958C232.603 69.958 233.901 68.6604 233.901 67.0599C233.901 65.4593 232.603 64.1618 231.003 64.1618C229.402 64.1618 228.105 65.4593 228.105 67.0599C228.105 68.6604 229.402 69.958 231.003 69.958Z" fill="#263238" stroke="#263238" stroke-linecap="round" stroke-linejoin="round"/>
<path d="M236.404 67.3974L234.952 65.9834L234.691 65.735C233.99 65.111 233.086 64.7625 232.147 64.7541C231.209 64.7456 230.299 65.0779 229.586 65.6891C228.874 66.3004 228.407 67.1492 228.273 68.0783C228.139 69.0073 228.346 69.9535 228.856 70.7414L228.888 70.7796C229.133 71.1488 229.439 71.474 229.793 71.7414L231.067 73.1108L231.646 72.4739C231.803 72.4942 231.96 72.5048 232.118 72.5057C232.69 72.5076 233.256 72.3826 233.774 72.1399C234.293 71.8972 234.751 71.5427 235.117 71.1019C235.482 70.6611 235.745 70.1448 235.887 69.5902C236.03 69.0357 236.047 68.4565 235.939 67.8942L236.404 67.3974Z" fill="#5E5E5E" stroke="#263238" stroke-linecap="round" stroke-linejoin="round"/>
<path d="M233.806 74.2127C235.951 74.2127 237.691 72.4732 237.691 70.3274C237.691 68.1815 235.951 66.442 233.806 66.442C231.66 66.442 229.92 68.1815 229.92 70.3274C229.92 72.4732 231.66 74.2127 233.806 74.2127Z" fill="#263238" stroke="#263238" stroke-linecap="round" stroke-linejoin="round"/>
<path d="M244.22 64.8751L243.137 63.8242C243.079 63.7563 243.015 63.6944 242.946 63.6395C242.53 63.2673 242.014 63.0238 241.463 62.9385C240.911 62.8533 240.346 62.9299 239.837 63.1592C239.328 63.3884 238.897 63.7604 238.595 64.23C238.293 64.6997 238.134 65.2468 238.137 65.8051C238.138 66.3583 238.297 66.8996 238.595 67.3656C238.779 67.6409 239.007 67.8841 239.27 68.0853L240.232 69.1044L240.659 68.6458C240.778 68.6524 240.897 68.6524 241.016 68.6458C241.783 68.6442 242.519 68.3381 243.061 67.7948C243.603 67.2515 243.907 66.5153 243.907 65.7478C243.907 65.564 243.89 65.3807 243.856 65.2L244.22 64.8751Z" fill="#5E5E5E" stroke="#263238" stroke-linecap="round" stroke-linejoin="round"/>
<path d="M242.283 69.958C243.884 69.958 245.181 68.6604 245.181 67.0599C245.181 65.4593 243.884 64.1618 242.283 64.1618C240.682 64.1618 239.385 65.4593 239.385 67.0599C239.385 68.6604 240.682 69.958 242.283 69.958Z" fill="#263238" stroke="#263238" stroke-linecap="round" stroke-linejoin="round"/>
<path d="M247.685 67.3974L246.232 65.9834L245.978 65.735C245.276 65.111 244.373 64.7625 243.434 64.7541C242.495 64.7456 241.585 65.0779 240.873 65.6891C240.161 66.3004 239.694 67.1492 239.56 68.0783C239.426 69.0073 239.633 69.9535 240.143 70.7414L240.175 70.7796C240.423 71.149 240.73 71.4742 241.086 71.7414L242.36 73.1108L242.933 72.4739C243.091 72.4942 243.251 72.5048 243.411 72.5057C243.983 72.5076 244.549 72.3826 245.068 72.1399C245.586 71.8972 246.045 71.5427 246.41 71.1019C246.775 70.6611 247.038 70.1448 247.181 69.5902C247.323 69.0357 247.34 68.4565 247.232 67.8942L247.685 67.3974Z" fill="#5E5E5E" stroke="#263238" stroke-linecap="round" stroke-linejoin="round"/>
<path d="M248.977 70.3274C248.977 71.0958 248.75 71.847 248.323 72.486C247.896 73.1249 247.289 73.6229 246.579 73.917C245.869 74.211 245.088 74.288 244.334 74.1381C243.58 73.9882 242.888 73.6181 242.345 73.0747C241.801 72.5314 241.431 71.8391 241.281 71.0854C241.132 70.3317 241.208 69.5505 241.503 68.8405C241.797 68.1306 242.295 67.5237 242.934 67.0968C243.572 66.6699 244.324 66.442 245.092 66.442C246.123 66.442 247.111 66.8514 247.839 67.58C248.568 68.3087 248.977 69.2969 248.977 70.3274Z" fill="#263238" stroke="#263238" stroke-linecap="round" stroke-linejoin="round"/>
<path d="M252.264 71.665C252.058 71.3048 251.798 70.9783 251.493 70.6968L251.398 70.5822C250.67 69.9598 249.744 69.6186 248.786 69.6204H233.022C231.954 69.6204 230.93 70.0445 230.176 70.7994C229.421 71.5544 228.996 72.5783 228.996 73.6459C228.997 74.6804 229.397 75.6749 230.111 76.4229H230.06L236.774 83.837L258.602 78.614L252.264 71.665Z" fill="#5E5E5E" stroke="#263238" stroke-linecap="round" stroke-linejoin="round"/>
<path d="M256.092 85.8752H240.353C239.285 85.8752 238.262 85.4511 237.507 84.6961C236.752 83.9412 236.328 82.9173 236.328 81.8497C236.328 80.7821 236.752 79.7582 237.507 79.0032C238.262 78.2483 239.285 77.8242 240.353 77.8242H256.092C257.157 77.8293 258.177 78.2565 258.928 79.0122C259.679 79.768 260.1 80.7906 260.098 81.856C260.097 82.9193 259.674 83.9386 258.924 84.6916C258.173 85.4446 257.155 85.8701 256.092 85.8752Z" fill="#263238" stroke="#263238" stroke-linecap="round" stroke-linejoin="round"/>
<path d="M261.869 82.8051H239.665L241.64 87.9771L239.665 99.0535H261.869C263.971 98.9703 265.959 98.077 267.416 96.5607C268.873 95.0444 269.687 93.0229 269.687 90.9198C269.687 88.8166 268.873 86.7951 267.416 85.2788C265.959 83.7625 263.971 82.8692 261.869 82.786V82.8051Z" fill="#263238" stroke="#263238" stroke-linecap="round" stroke-linejoin="round"/>
<path d="M239.665 82.8051V99.0535C241.767 98.9703 243.755 98.077 245.212 96.5607C246.67 95.0444 247.484 93.0229 247.484 90.9198C247.484 88.8166 246.67 86.7951 245.212 85.2788C243.755 83.7625 241.767 82.8692 239.665 82.786V82.8051Z" fill="#5E5E5E" stroke="#263238" stroke-linecap="round" stroke-linejoin="round"/>
<path d="M247.805 100.964C247.805 100.964 239.665 102.073 233.493 106.761C227.321 111.448 226.092 116.015 225.602 118.601C225.288 120.396 225.122 122.213 225.105 124.034V166.468H233.493V123.015C233.493 123.015 232.754 117.34 235.965 112.652C239.175 107.964 247.805 105.99 247.805 105.99V100.964Z" fill="#263238" stroke="#263238" stroke-linecap="round" stroke-linejoin="round"/>
<path d="M240.525 100.964C240.525 100.964 232.385 102.073 226.22 106.761C220.054 111.448 218.818 116.015 218.322 118.601C218.012 120.396 217.848 122.213 217.831 124.034V166.468H226.22V123.015C226.22 123.015 225.481 117.34 228.685 112.652C231.888 107.964 240.525 105.99 240.525 105.99V100.964Z" fill="white" stroke="#263238" stroke-linecap="round" stroke-linejoin="round"/>
<path d="M227.142 150.222C227.683 146.899 225.428 143.767 222.106 143.226C218.783 142.685 215.651 144.94 215.11 148.262C214.569 151.585 216.823 154.717 220.146 155.259C223.469 155.8 226.601 153.545 227.142 150.222Z" fill="#263238" stroke="#263238" stroke-linecap="round" stroke-linejoin="round"/>
<path d="M249.13 121.289H246.665V122.894H249.13V121.289Z" fill="#263238" stroke="#263238" stroke-linecap="round" stroke-linejoin="round"/>
<path d="M250.799 106.729H245.003V121.531H250.799V106.729Z" fill="#263238" stroke="#263238" stroke-linecap="round" stroke-linejoin="round"/>
<path d="M264.792 119.258L262.515 120.201L263.129 121.684L265.406 120.741L264.792 119.258Z" fill="#263238" stroke="#263238" stroke-linecap="round" stroke-linejoin="round"/>
<path d="M260.765 105.177L255.409 107.394L261.072 121.071L266.427 118.853L260.765 105.177Z" fill="#263238" stroke="#263238" stroke-linecap="round" stroke-linejoin="round"/>
<path d="M263.105 99.0726H239.665V108.824H263.105V99.0726Z" fill="#5E5E5E" stroke="#263238" stroke-linecap="round" stroke-linejoin="round"/>
<path d="M263.105 99.0726H244.767V108.824H263.105V99.0726Z" fill="#263238" stroke="#263238" stroke-linecap="round" stroke-linejoin="round"/>
<path d="M258.289 145.525H257.366V137.569H255.149V145.525H254.404V150.525H255.149V163.659H257.366V150.525H258.289V145.525Z" fill="#263238" stroke="#263238" stroke-linecap="round" stroke-linejoin="round"/>
<path d="M275.194 188.27H233.124V172.003C233.124 169.638 234.064 167.369 235.736 165.697C237.408 164.025 239.676 163.085 242.041 163.085H250.041C256.716 163.085 263.117 165.737 267.836 170.456C272.555 175.176 275.207 181.577 275.207 188.251L275.194 188.27Z" fill="#263238" stroke="#263238" stroke-linecap="round" stroke-linejoin="round"/>
<path d="M263.595 188.27H221.557V172.003C221.557 169.638 222.496 167.369 224.169 165.697C225.841 164.025 228.109 163.085 230.474 163.085H238.442C245.117 163.085 251.518 165.737 256.237 170.456C260.957 175.176 263.608 181.577 263.608 188.251L263.595 188.27Z" fill="#5E5E5E" stroke="#263238" stroke-linecap="round" stroke-linejoin="round"/>
<path d="M252.984 136.703H235.716V164.334H252.984V136.703Z" fill="#263238" stroke="#263238" stroke-linecap="round" stroke-linejoin="round"/>
<path d="M252.984 145.729H235.716V155.321H252.984V145.729Z" fill="#5E5E5E" stroke="#263238" stroke-linecap="round" stroke-linejoin="round"/>
<path d="M258.786 188.27H216.716V172.003C216.716 169.638 217.656 167.369 219.328 165.697C221 164.025 223.269 163.085 225.634 163.085H233.634C240.308 163.085 246.709 165.737 251.428 170.456C256.148 175.176 258.799 181.577 258.799 188.251L258.786 188.27Z" fill="#263238" stroke="#263238" stroke-linecap="round" stroke-linejoin="round"/>
<path d="M209.258 194.442C209.097 194.443 208.943 194.383 208.825 194.274C208.706 194.165 208.634 194.016 208.621 193.856L208.099 189.009H210.417L209.895 193.856C209.882 194.016 209.809 194.165 209.691 194.274C209.573 194.383 209.418 194.443 209.258 194.442Z" fill="#263238" stroke="#263238" stroke-linecap="round" stroke-linejoin="round"/>
<path d="M236.532 194.442C236.371 194.443 236.217 194.383 236.098 194.274C235.98 194.165 235.908 194.016 235.895 193.856L235.373 189.009H237.716L237.194 193.856C237.181 194.021 237.105 194.174 236.981 194.283C236.858 194.392 236.697 194.449 236.532 194.442Z" fill="#263238" stroke="#263238" stroke-linecap="round" stroke-linejoin="round"/>
<path d="M246.665 194.442C246.505 194.443 246.35 194.383 246.232 194.274C246.114 194.165 246.041 194.016 246.028 193.856L245.506 189.009H247.85L247.328 193.856C247.315 194.021 247.238 194.174 247.115 194.283C246.991 194.392 246.83 194.449 246.665 194.442Z" fill="#263238" stroke="#263238" stroke-linecap="round" stroke-linejoin="round"/>
<path d="M274.296 194.442C274.135 194.443 273.981 194.383 273.862 194.274C273.744 194.165 273.672 194.016 273.659 193.856L273.137 189.009H275.48L274.958 193.856C274.945 194.021 274.869 194.174 274.745 194.283C274.622 194.392 274.461 194.449 274.296 194.442Z" fill="#263238" stroke="#263238" stroke-linecap="round" stroke-linejoin="round"/>
<path d="M247.187 188.27H205.149V172.003C205.149 169.638 206.089 167.369 207.761 165.697C209.433 164.025 211.701 163.085 214.066 163.085H222.066C228.741 163.085 235.142 165.737 239.861 170.456C244.581 175.176 247.232 181.577 247.232 188.251L247.187 188.27Z" fill="#5E5E5E" stroke="#263238" stroke-linecap="round" stroke-linejoin="round"/>
<path d="M276.863 187.162H204.073C203.359 187.162 202.78 187.741 202.78 188.455V188.461C202.78 189.175 203.359 189.754 204.073 189.754H276.863C277.577 189.754 278.156 189.175 278.156 188.461V188.455C278.156 187.741 277.577 187.162 276.863 187.162Z" fill="white" stroke="#263238" stroke-linecap="round" stroke-linejoin="round"/>
<path d="M278.888 133.99H224.735V138.557H278.888V133.99Z" fill="white" stroke="#263238" stroke-linecap="round" stroke-linejoin="round"/>
<path d="M278.895 133.99H243.347V138.557H278.895V133.99Z" fill="#263238" stroke="#263238" stroke-linecap="round" stroke-linejoin="round"/>
</svg>
