<svg width="26" height="22" viewBox="0 0 26 22" fill="none" xmlns="http://www.w3.org/2000/svg">
<path d="M25.1333 21.8548H25.1079C24.9048 21.8548 24.7398 21.7871 24.6129 21.6517C24.486 21.5163 24.414 21.3386 24.3971 21.1186C24.3802 20.8817 24.3252 20.5728 24.2321 20.192C24.139 19.8112 23.8428 19.1977 23.3435 18.3514C22.8443 17.5052 22.1969 16.752 21.4014 16.0919C20.6059 15.4319 19.4001 14.8395 17.7837 14.3148C16.1674 13.7902 14.293 13.5278 12.1605 13.5278V18.1991C12.1605 18.2837 12.1478 18.3599 12.1224 18.4276C12.097 18.4953 12.0674 18.563 12.0335 18.6307C11.9997 18.6984 11.9531 18.7576 11.8939 18.8084C11.8347 18.8592 11.7712 18.9015 11.7035 18.9353C11.3819 19.0876 11.0942 19.0538 10.8403 18.8338L0.304646 10.1006C0.203098 10.0159 0.126936 9.91862 0.0761616 9.80861C0.0253872 9.6986 0 9.58436 0 9.46589C0 9.21201 0.101549 9.00045 0.304646 8.83121L10.8403 0.199555C11.0942 -0.0204672 11.3777 -0.058548 11.6908 0.0853128C12.0039 0.229174 12.1605 0.478815 12.1605 0.834236V5.37855C12.8375 5.4124 13.4891 5.4674 14.1153 5.54356C14.7415 5.61972 15.3508 5.72127 15.9432 5.84821C16.5355 5.97515 17.1025 6.1317 17.6441 6.31787C18.1857 6.50405 18.7019 6.71984 19.1927 6.96525C19.6835 7.21066 20.149 7.47722 20.589 7.76494C21.0291 8.05267 21.4437 8.37001 21.833 8.71696C22.2223 9.06392 22.5861 9.43204 22.9246 9.82131C23.6524 10.6675 24.249 11.6365 24.7144 12.7281C25.1799 13.8198 25.4972 14.8057 25.6665 15.6858C25.8357 16.5658 25.9373 17.4629 25.9711 18.3768C26.005 19.2907 26.0092 19.9339 25.9838 20.3062C25.9584 20.6786 25.9288 20.9663 25.8949 21.1694C25.8611 21.3725 25.7765 21.5375 25.6411 21.6644C25.5057 21.7914 25.3364 21.8548 25.1333 21.8548ZM11.3481 11.9031C12.6682 11.9031 13.8868 11.9708 15.0038 12.1062C16.1209 12.2416 17.1025 12.4404 17.9488 12.7028C18.795 12.9651 19.5524 13.2528 20.2209 13.5659C20.8894 13.879 21.486 14.2429 22.0107 14.6576C22.5354 15.0722 22.9754 15.4657 23.3308 15.8381C23.6863 16.2104 24.0248 16.6251 24.3463 17.082C24.0248 14.628 23.1362 12.5631 21.6807 10.8876C19.4635 8.29808 16.0193 7.00333 11.3481 7.00333C11.1281 7.00333 10.9377 6.92293 10.7769 6.76215C10.6161 6.60136 10.5357 6.41096 10.5357 6.19094V2.53518L2.08175 9.46589L10.5357 16.4728V12.7154C10.5357 12.4954 10.6119 12.3008 10.7642 12.1315C10.8149 12.0808 10.8742 12.0385 10.9419 12.0046C11.0096 11.9708 11.0773 11.9454 11.145 11.9284C11.2127 11.9115 11.2804 11.9031 11.3481 11.9031Z" fill="white"/>
</svg>
