<svg width="30" height="30" viewBox="0 0 30 30" fill="none" xmlns="http://www.w3.org/2000/svg">
<path d="M4.8814 0V12.6923H6.54962L7.32211 10.8692V2.30769H19.5256V9.23078H26.8477V27.6923H7.32211V21.0531L7.25743 20.9919L5.80399 19.6154H4.8814V30H29.2884V7.60847L28.9455 7.24731L21.6234 0.324231L21.2414 0H4.8814ZM21.9663 3.96693L25.0941 6.92308H21.9663V3.96577V3.96693ZM10.9453 8.52347L8.09459 15.2527L7.82733 15H0V17.3077H6.81688L8.98544 19.3627L11.021 14.5535L14.682 22.6304L17.2082 16.6592L17.5523 17.3077H19.8551C20.1238 17.7477 20.5384 18.0915 21.0348 18.2859C21.5312 18.4803 22.0815 18.5144 22.6005 18.3829C23.1195 18.2514 23.5781 17.9617 23.9052 17.5587C24.2322 17.1557 24.4095 16.6619 24.4095 16.1539C24.4095 15.6459 24.2322 15.1521 23.9052 14.749C23.5781 14.346 23.1195 14.0563 22.6005 13.9248C22.0815 13.7933 21.5312 13.8274 21.0348 14.0218C20.5384 14.2162 20.1238 14.5601 19.8551 15H19.0582L16.9604 11.0331L14.6052 16.6004L10.9441 8.52347H10.9453Z" fill="#FF2156"/>
</svg>
