<svg width="23" height="23" viewBox="0 0 23 23" fill="none" xmlns="http://www.w3.org/2000/svg">
<path d="M4.05864 5.41165C4.05864 3.97639 4.62879 2.59992 5.64367 1.58504C6.65855 0.570154 8.03503 0 9.47029 0C10.9055 0 12.282 0.570154 13.2969 1.58504C14.3118 2.59992 14.8819 3.97639 14.8819 5.41165C14.8819 6.84691 14.3118 8.22338 13.2969 9.23826C12.282 10.2531 10.9055 10.8233 9.47029 10.8233C8.03503 10.8233 6.65855 10.2531 5.64367 9.23826C4.62879 8.22338 4.05864 6.84691 4.05864 5.41165ZM9.47029 1.35291C8.39384 1.35291 7.36149 1.78053 6.60033 2.54169C5.83917 3.30285 5.41155 4.33521 5.41155 5.41165C5.41155 6.48809 5.83917 7.52045 6.60033 8.28161C7.36149 9.04277 8.39384 9.47039 9.47029 9.47039C10.5467 9.47039 11.5791 9.04277 12.3402 8.28161C13.1014 7.52045 13.529 6.48809 13.529 5.41165C13.529 4.33521 13.1014 3.30285 12.3402 2.54169C11.5791 1.78053 10.5467 1.35291 9.47029 1.35291Z" fill="white"/>
<path d="M0 14.882C0 13.3762 1.22168 12.1762 2.718 12.1762H16.235C16.6273 12.1762 16.9994 12.26 17.3349 12.4089C17.1833 13.0069 17.2321 13.64 17.4702 14.2055H17.4066C17.2878 13.9999 17.1171 13.8291 16.9114 13.7103C16.7057 13.5916 16.4724 13.5291 16.235 13.5291H2.718C1.95902 13.5291 1.35291 14.1338 1.35291 14.882C1.35291 16.653 2.19442 17.972 3.61634 18.8771C5.06395 19.8012 7.12309 20.2936 9.47039 20.2936C10.7719 20.2936 11.9841 20.1421 13.0529 19.8499C12.8716 20.3062 12.8119 20.8017 12.8797 21.288C11.8123 21.5288 10.661 21.6465 9.47039 21.6465C6.96074 21.6465 4.6229 21.1243 2.88847 20.019C1.12698 18.8961 0 17.1684 0 14.882Z" fill="white"/>
<path d="M18.7174 12.5348L19.2573 11.2617C19.5103 10.6637 20.1164 10.339 20.7116 10.4635L20.8388 10.496L21.5153 10.7124C22.1863 10.9275 22.6991 11.5012 22.8655 12.2223C23.2592 13.9364 22.787 16.024 21.4463 18.4836C20.1082 20.9404 18.643 22.4165 17.048 22.9143C16.4283 23.1078 15.7627 22.9685 15.2621 22.5477L15.1309 22.4259L14.6168 21.9105C14.4008 21.6881 14.2613 21.4028 14.2184 21.0957C14.1756 20.7887 14.2317 20.4761 14.3787 20.2031L14.4544 20.0786L15.2283 18.9422C15.369 18.7277 15.5708 18.5603 15.8076 18.4616C16.0445 18.363 16.3055 18.3376 16.5568 18.3889L16.6921 18.4254L18.1222 18.903C18.6917 18.47 19.168 17.9289 19.5481 17.2727C19.8742 16.7112 20.0893 16.143 20.1881 15.5667L20.2286 15.2772L19.0394 14.1475C18.8475 13.9604 18.711 13.7239 18.6451 13.4641C18.5792 13.2044 18.5865 12.9314 18.666 12.6755L18.7161 12.5348H18.7174Z" fill="white"/>
</svg>
