<svg width="51" height="48" viewBox="0 0 51 48" fill="none" xmlns="http://www.w3.org/2000/svg">
<path d="M16.6446 29.3506H23.2443V32.5353H16.6446V29.3506Z" fill="#D0CFCE"/>
<path d="M11.2813 12.872H28.9086V21.2027C28.9086 23.7547 27.1318 25.8227 24.939 25.8227H23.9765C21.7696 26.2007 21.8612 29.3507 21.8612 29.3507H17.8704C17.8704 29.3507 17.9621 26.2007 15.7552 25.8227H15.2517C13.0589 25.8227 11.2813 23.7547 11.2813 21.2027V12.8734V12.872Z" fill="#FF2156"/>
<path d="M36.0201 13.6774H37.0206C37.761 13.6774 38.3617 14.2454 38.3617 14.9461V20.1261C38.3617 20.8261 37.761 21.3941 37.0206 21.3941H36.0201C35.844 21.3941 35.6696 21.3613 35.5069 21.2975C35.3442 21.2338 35.1963 21.1404 35.0718 21.0227C34.9473 20.9049 34.8485 20.7651 34.7811 20.6113C34.7137 20.4575 34.679 20.2926 34.679 20.1261V14.9461C34.679 14.2454 35.2797 13.6774 36.0201 13.6774Z" fill="#FF003D"/>
<path d="M22.5678 20.5573C22.5882 20.8763 22.5393 21.1958 22.4241 21.4963C22.309 21.7967 22.1301 22.0717 21.8983 22.3043C21.6666 22.5369 21.3869 22.7222 21.0766 22.8488C20.7663 22.9754 20.4319 23.0406 20.0939 23.0404C19.7559 23.0402 19.4216 22.9746 19.1114 22.8477C18.8013 22.7208 18.5219 22.5352 18.2904 22.3023C18.0589 22.0695 17.8803 21.7943 17.7656 21.4938C17.6508 21.1932 17.6023 20.8736 17.623 20.5547C17.623 20.5547 17.5962 18.8827 19.6819 15.858C19.6819 15.858 20.0732 15.2307 20.4673 15.8167C22.5537 18.8413 22.5678 20.5573 22.5678 20.5573Z" fill="#FF2156"/>
<path d="M20.0952 15.5667C21.6866 16.7794 22.5517 20.344 22.5517 20.344C22.5517 22.0974 21.4602 23.0467 20.0952 23.0467C20.0952 23.0467 22.8147 20.928 20.0952 15.5667Z" fill="#FF2156"/>
<path d="M19.9442 33.3113V35.9333C19.9415 37.0757 20.363 38.1827 21.1352 39.0613C21.9075 39.9398 22.9815 40.5342 24.1698 40.7406C25.9748 41.086 27.8433 40.9926 29.5997 40.4693C30.7408 40.0971 31.7029 39.3504 32.3114 38.3647C32.9198 37.379 33.1342 36.2197 32.9157 35.0973C32.8206 34.6263 32.7678 34.1486 32.7578 33.6693C32.7634 32.7816 32.9662 31.9049 33.3531 31.096C33.7399 30.2872 34.3022 29.5642 35.0035 28.974C36.401 27.7306 37.9769 25.9513 36.4398 21.394" stroke="#F9144A" stroke-width="0.5" stroke-linecap="round" stroke-linejoin="round"/>
<path d="M11.2813 12.872V11.7147C11.2813 10.719 11.6997 9.76419 12.4442 9.06018C13.1888 8.35617 14.1987 7.96066 15.2517 7.96066C15.2517 7.96066 15.2517 7.96066 15.2517 7.96066H24.939C25.9918 7.96066 27.0016 8.35608 27.7462 9.05994C28.4908 9.76381 28.9091 10.7185 28.9093 11.714V12.8987" stroke="#C5C5C5" stroke-width="0.5" stroke-linecap="round" stroke-linejoin="round"/>
<path d="M16.6444 29.3506H23.2441V32.5353H16.6444V29.3506Z" stroke="#ABABAB" stroke-width="0.5" stroke-linecap="round" stroke-linejoin="round"/>
<path d="M36.0201 13.6773H37.0206C37.7609 13.6773 38.3617 14.2453 38.3617 14.946V20.126C38.3617 20.826 37.7609 21.394 37.0206 21.394H36.0201C35.844 21.394 35.6696 21.3612 35.5069 21.2975C35.3442 21.2338 35.1963 21.1404 35.0718 21.0226C34.9473 20.9049 34.8485 20.7651 34.7811 20.6112C34.7137 20.4574 34.679 20.2925 34.679 20.126V14.946C34.679 14.2453 35.2797 13.6773 36.0201 13.6773V13.6773Z" stroke="#FF2156" stroke-width="0.5" stroke-linecap="round" stroke-linejoin="round"/>
<path d="M36.52 13.6773V9.27527" stroke="#FF2D5F" stroke-width="0.5" stroke-linecap="round" stroke-linejoin="round"/>
<path d="M11.2813 12.872H28.9086V21.2027C28.9086 23.7547 27.1318 25.8227 24.939 25.8227H23.9765C21.7696 26.2007 21.8612 29.3507 21.8612 29.3507H17.8704C17.8704 29.3507 17.9621 26.2007 15.7552 25.8227H15.2517C13.0589 25.8227 11.2813 23.7547 11.2813 21.2027V12.8733V12.872Z" stroke="#C5C5C5" stroke-width="0.5" stroke-miterlimit="10"/>
<path d="M22.5678 20.5573C22.5882 20.8762 22.5393 21.1958 22.4241 21.4962C22.309 21.7966 22.1301 22.0716 21.8983 22.3042C21.6666 22.5368 21.3869 22.7221 21.0766 22.8487C20.7663 22.9753 20.4319 23.0405 20.0939 23.0403C19.7559 23.0401 19.4216 22.9746 19.1114 22.8476C18.8013 22.7207 18.5219 22.5351 18.2904 22.3023C18.0589 22.0694 17.8803 21.7943 17.7656 21.4937C17.6508 21.1931 17.6023 20.8736 17.623 20.5546C17.623 20.5546 17.5962 18.8826 19.6819 15.8579C19.6819 15.8579 20.0732 15.2306 20.4673 15.8166C22.5537 18.8413 22.5678 20.5573 22.5678 20.5573" stroke="#FF2156" stroke-width="0.375" stroke-linecap="round" stroke-linejoin="round"/>
</svg>
