<svg width="69" height="103" viewBox="0 0 69 103" fill="none" xmlns="http://www.w3.org/2000/svg">
<path d="M36.6504 1.64429C35.7772 -0.548097 32.8808 -0.548097 32.0162 1.64429L55.1183 33.9798C44.2244 20.2663 39.4085 8.60312 36.6504 1.64429ZM36.6504 1.64429L34.7751 2.38757C34.7755 2.38852 34.7758 2.38946 34.7762 2.3904M36.6504 1.64429L34.7764 2.39075C34.7763 2.39064 34.7763 2.39052 34.7762 2.3904M34.7762 2.3904C34.7039 2.20903 34.6149 2.12607 34.5544 2.08547C34.4871 2.04018 34.4095 2.01728 34.3301 2.01728C34.2507 2.01728 34.1746 2.04014 34.1094 2.08408C34.0512 2.12331 33.9638 2.2044 33.8928 2.38437L33.8915 2.38757C31.1029 9.42339 26.2005 21.2961 15.1278 35.2346C8.43492 43.6645 2.01728 55.8031 2.01728 67.5402C2.01728 87.5912 15.9989 100.983 34.3333 100.983C52.6674 100.983 66.6493 87.5827 66.6493 67.5402C66.6493 55.3235 60.2403 43.6753 53.5388 35.2346C42.4676 21.298 37.565 9.42658 34.7762 2.3904Z" stroke="#FF2156" stroke-width="4"/>
<path d="M34.2441 75.8303C33.7728 76.841 33.0744 78.1045 31.9859 79.4989L34.2441 75.8303ZM34.2441 75.8303C34.7155 76.841 35.4138 78.1045 36.5024 79.4989L34.2441 75.8303ZM30.209 83.8952C30.209 82.3643 31.0478 80.7012 31.9857 79.4991H36.5026C37.4447 80.7066 38.2793 82.2956 38.2793 83.8952C38.2793 86.5254 36.5198 88.1872 34.2441 88.1872C31.9683 88.1872 30.209 86.5265 30.209 83.8952Z" stroke="#FF2156" stroke-width="2"/>
<path d="M44.332 64.6808C43.8607 65.6915 43.1623 66.9551 42.0737 68.3494L44.332 64.6808ZM44.332 64.6808C44.8033 65.6915 45.5017 66.9551 46.5903 68.3494L44.332 64.6808ZM40.2968 72.7457C40.2968 71.2148 41.1356 69.5518 42.0736 68.3496H46.5904C47.5325 69.5571 48.3672 71.1461 48.3672 72.7457C48.3672 75.3759 46.6077 77.0378 44.332 77.0378C42.0562 77.0378 40.2968 75.3771 40.2968 72.7457Z" stroke="#FF2156" stroke-width="2"/>
<path d="M31.59 56.7169C31.1187 57.7275 30.4203 58.9911 29.3318 60.3854L31.59 56.7169ZM31.59 56.7169C32.0614 57.7275 32.7598 58.9911 33.8483 60.3854L31.59 56.7169ZM27.5549 64.7817C27.5549 63.2509 28.3937 61.5878 29.3316 60.3857H33.8485C34.7906 61.5931 35.6252 63.1821 35.6252 64.7817C35.6252 67.4119 33.8657 69.0738 31.59 69.0738C29.3142 69.0738 27.5549 67.4131 27.5549 64.7817Z" stroke="#FF2156" stroke-width="2"/>
</svg>
