<svg width="276" height="264" viewBox="0 0 276 264" fill="none" xmlns="http://www.w3.org/2000/svg">
<path fill-rule="evenodd" clip-rule="evenodd" d="M258.368 115.041C258.368 107.017 257.589 107.008 249.377 107.008H191.653C183.449 107.008 182.644 107.017 182.644 115.041H190.805V140.216L165.013 228.665C165.013 236.706 171.666 243.214 179.879 243.214H261.134C269.338 243.214 276 236.706 276 228.665L250.413 139.959L250.293 115.041H258.368ZM267.343 223.253C269.663 230.823 265.604 235.541 255.08 235.541H186.789C174.792 235.541 171.846 230.463 174.527 223.253L198.383 140.602L198.289 114.801H242.176V140.396L267.343 223.253Z" fill="#CCDDE5"/>
<path fill-rule="evenodd" clip-rule="evenodd" d="M233.689 158.387H207.828L192.089 212.404C189.049 222.251 190.034 225.968 204.146 225.968H237.363C251.346 225.968 251.663 221.532 249.428 212.404L233.689 158.387Z" fill="#FF2156"/>
<g clip-path="url(#clip0_39_18)">
<path d="M61.0371 197.447L149.054 44.9976C149.197 44.7507 149.273 44.452 149.373 44.1121C150.072 41.5944 149.641 39.4665 148.691 36.7646C147.099 32.1829 147.524 29.356 149.322 27.048C151.724 24.0045 162.214 21.6806 186.82 35.8868C211.426 50.0931 214.654 60.3234 213.219 63.9251C212.141 66.6489 209.901 68.4143 205.12 69.33C202.31 69.8744 200.247 70.5488 198.416 72.4133C198.172 72.67 197.935 72.89 197.809 73.1325L109.792 225.582C97.7001 246.526 81.2547 248.237 68.5608 240.908L68.4785 240.861L68.3962 240.813C55.6862 233.489 48.9452 218.391 61.0371 197.447Z" fill="url(#paint0_linear_39_18)"/>
<path opacity="0.23" d="M176.201 54.2795C164.145 47.3189 155.501 44.3309 149.509 43.4497C149.968 41.2049 149.539 39.2155 148.691 36.7646C148.211 35.3628 147.918 34.1372 147.797 33.039C152.723 31.5626 163.312 32.6558 182.346 43.6593C201.377 54.6465 207.618 63.2696 208.802 68.2738C207.775 68.723 206.583 69.0772 205.129 69.3625C202.566 69.8579 200.629 70.4813 198.93 71.9971C195.167 67.2319 188.257 61.2401 176.201 54.2795Z" fill="url(#paint1_radial_39_18)"/>
<path d="M119.137 100.665L63.5913 196.919C51.8513 217.23 57.8925 231.663 69.7017 238.481C81.5065 245.282 97.007 243.355 108.766 222.987L195.607 72.5747L119.137 100.665Z" fill="url(#paint2_linear_39_18)"/>
<path opacity="0.55" d="M66.2186 210.684L155.114 56.7125C155.292 56.4045 155.529 56.1345 155.811 55.918C156.093 55.7015 156.415 55.5427 156.759 55.4507C157.102 55.3586 157.461 55.3351 157.813 55.3816C158.166 55.428 158.506 55.5434 158.814 55.7212C159.122 55.899 159.392 56.1358 159.608 56.4179C159.825 56.7001 159.984 57.0221 160.076 57.3657C160.168 57.7092 160.191 58.0675 160.145 58.4201C160.098 58.7727 159.983 59.1127 159.805 59.4207L70.9094 213.393C70.1611 214.689 68.506 215.132 67.2099 214.384C66.5939 214.019 66.1451 213.428 65.9598 212.736C65.7746 212.045 65.8675 211.308 66.2186 210.684Z" fill="white"/>
<path opacity="0.69" d="M165.304 108.954C169.373 107.864 171.787 103.683 170.697 99.6141C169.607 95.5457 165.425 93.1313 161.356 94.2214C157.288 95.3115 154.874 99.4933 155.964 103.562C157.054 107.63 161.236 110.045 165.304 108.954Z" fill="white"/>
<path d="M171.764 71.5373C175.833 70.4472 178.247 66.2654 177.157 62.197C176.067 58.1286 171.885 55.7142 167.817 56.8043C163.748 57.8945 161.334 62.0763 162.424 66.1447C163.514 70.2131 167.696 72.6275 171.764 71.5373Z" fill="#F31A4E"/>
<path opacity="0.69" d="M145.944 119.516C147.915 118.987 149.085 116.961 148.557 114.99C148.028 113.018 146.002 111.848 144.031 112.376C142.059 112.905 140.889 114.931 141.417 116.903C141.946 118.874 143.972 120.044 145.944 119.516Z" fill="white"/>
<path d="M187.26 31.4909C191.238 30.4248 193.599 26.3351 192.533 22.3563C191.467 18.3775 187.378 16.0163 183.399 17.0824C179.42 18.1485 177.059 22.2382 178.125 26.217C179.191 30.1958 183.281 32.557 187.26 31.4909Z" fill="#EE3863"/>
<path d="M204.167 26.9606C206.022 26.4636 207.123 24.5569 206.626 22.7019C206.129 20.847 204.222 19.7461 202.367 20.2432C200.512 20.7402 199.411 22.6469 199.908 24.5019C200.405 26.3569 202.312 27.4577 204.167 26.9606Z" fill="#F31A4E"/>
<path opacity="0.69" d="M130.702 150.642C134.116 149.727 136.142 146.218 135.228 142.804C134.313 139.389 130.803 137.363 127.389 138.278C123.975 139.193 121.949 142.702 122.863 146.117C123.778 149.531 127.288 151.557 130.702 150.642Z" fill="white"/>
<path opacity="0.69" d="M134.799 127.51C136.116 127.157 136.898 125.803 136.545 124.486C136.192 123.169 134.838 122.387 133.521 122.74C132.204 123.093 131.422 124.447 131.775 125.764C132.128 127.082 133.482 127.863 134.799 127.51Z" fill="white"/>
</g>
<defs>
<linearGradient id="paint0_linear_39_18" x1="100.666" y1="185.112" x2="212.913" y2="-9.30698" gradientUnits="userSpaceOnUse">
<stop offset="0.234" stop-color="#E6E6E6"/>
<stop offset="0.434" stop-color="#E2E5E6"/>
<stop offset="0.625" stop-color="#D7E0E5"/>
<stop offset="0.812" stop-color="#C3D9E4"/>
<stop offset="0.996" stop-color="#A9CEE3"/>
<stop offset="1" stop-color="#A8CEE3"/>
</linearGradient>
<radialGradient id="paint1_radial_39_18" cx="0" cy="0" r="1" gradientUnits="userSpaceOnUse" gradientTransform="translate(172.149 65.3365) rotate(-149.092) scale(61.2076 25.4051)">
<stop offset="0.299" stop-color="#5CBAE6" stop-opacity="0"/>
<stop offset="0.679" stop-color="#5CBAE6"/>
<stop offset="0.957" stop-color="#5CBAE6" stop-opacity="0"/>
</radialGradient>
<linearGradient id="paint2_linear_39_18" x1="143.94" y1="162.055" x2="97.9524" y2="135.503" gradientUnits="userSpaceOnUse">
<stop stop-color="#FF2156"/>
<stop offset="0.693" stop-color="#E61F4E"/>
<stop offset="0.76" stop-color="#ED4069"/>
<stop offset="0.873" stop-color="#E82553"/>
<stop offset="1" stop-color="#EF0C42"/>
</linearGradient>
<clipPath id="clip0_39_18">
<rect width="215" height="215" fill="white" transform="translate(0 55.6505) rotate(-15)"/>
</clipPath>
</defs>
</svg>
