<svg width="35" height="34" viewBox="0 0 35 34" fill="none" xmlns="http://www.w3.org/2000/svg">
<path d="M15.744 20.6065C20.6547 20.6065 28.8392 26.7973 28.8392 26.7973V2.03418C28.8392 2.03418 20.6547 8.22496 15.744 8.22496V20.6065ZM5.9226 20.6065L10.8333 32.9881H17.3809L12.4702 20.6065H5.9226ZM28.8392 19.0588C29.4841 19.0588 30.1227 18.9387 30.7184 18.7054C31.3142 18.4721 31.8556 18.1301 32.3116 17.6989C32.7676 17.2678 33.1293 16.7559 33.3761 16.1926C33.6229 15.6293 33.7499 15.0255 33.7499 14.4157C33.7499 13.806 33.6229 13.2022 33.3761 12.6389C33.1293 12.0756 32.7676 11.5637 32.3116 11.1326C31.8556 10.7014 31.3142 10.3594 30.7184 10.1261C30.1227 9.89276 29.4841 9.77266 28.8392 9.77266V19.0588ZM15.744 26.7973C17.3809 26.7973 20.6547 25.2496 20.6547 22.1542L15.744 26.7973ZM1.0119 14.4157C1.0119 9.60087 3.94359 8.22496 7.5595 8.22496H15.744V20.6065H7.5595C3.94359 20.6065 1.0119 19.2306 1.0119 14.4157Z" stroke="#FF2156" stroke-width="2"/>
</svg>
